<svg xmlns="http://www.w3.org/2000/svg" width="47" height="59" viewBox="0 0 47 59" fill="none">
<path d="M39.0604 31.506C38.995 24.2057 44.9872 20.6761 45.2704 20.5007C41.8712 15.5243 36.5981 14.8446 34.746 14.7789C30.3227 14.3185 26.0301 17.4315 23.7857 17.4315C21.5414 17.4315 18.0114 14.8227 14.2854 14.8885C9.46986 14.9543 4.98117 17.7604 2.49713 22.123C-2.60167 31.0018 1.21154 44.0458 6.09245 51.2146C8.5329 54.7222 11.3874 58.6464 15.1134 58.5149C18.7741 58.3614 20.1251 56.1692 24.5484 56.1692C28.9717 56.1692 30.1919 58.5149 34.0051 58.4272C37.9273 58.3614 40.3895 54.8976 42.7428 51.3461C45.5755 47.3123 46.7086 43.3443 46.7521 43.147C46.665 43.1251 39.1257 40.2313 39.0604 31.4841V31.506Z" fill="#042A35"/>
<path d="M31.8699 10.0659C33.831 7.5886 35.1819 4.23441 34.8115 0.814453C31.957 0.94599 28.4053 2.78751 26.3571 5.22094C24.5485 7.34745 22.9361 10.8551 23.3501 14.1216C26.5532 14.3628 29.8216 12.4993 31.8699 10.0659Z" fill="#042A35"/>
</svg>