<svg width="200" height="80" viewBox="0 0 200 80" fill="none" xmlns="http://www.w3.org/2000/svg">
<path id="Vector" d="M188.022 69.7135L186.378 68.07L184.734 69.7135L182.055 72.3891L181.383 73.061H129.642L117.585 61.0077H91.1463L79.487 73.6444H22.0698L2.32534 53.9083V2.32464H65.628L79.5312 15.6843H173.396L180.553 22.8395H193.25L185.56 40.172C179.944 52.8297 167.366 61.0077 153.516 61.0077H125.166V63.3324H153.516C168.285 63.3324 181.697 54.6127 187.685 41.1158L200 13.3597H174.359L165.025 4.02859H121.773L112.439 13.3597H80.4683L66.5651 0H0V54.8707L21.1071 75.9714H80.5102L92.1694 63.3347H116.625L128.682 75.3879H181.767L182.058 75.6785L184.736 78.3565L186.38 80L188.025 78.3565L190.703 75.6785L192.347 74.035L190.703 72.3915L188.025 69.7158L188.022 69.7135ZM196.426 15.6843L194.282 20.5149H181.518L176.686 15.6843H196.428H196.426ZM122.736 6.35323H164.06L171.068 13.3597H115.725L122.736 6.35323ZM186.378 76.7106L183.699 74.0327L186.378 71.357L189.055 74.0327L186.378 76.7106Z" fill="#DDDDDD"/>
</svg>
