<svg xmlns="http://www.w3.org/2000/svg" width="51" height="58" viewBox="0 0 51 58" fill="none">
  <path d="M1.80063 0.310547C1.19052 0.529775 0.689331 1.12169 0.689331 1.86707V56.2137C0.689331 56.9591 1.16871 57.551 1.77882 57.7702L30.4759 29.0294L1.80063 0.310547Z" fill="#4AC8EF"/>
  <path d="M38.5817 20.94L3.17334 0.442164C2.73755 0.179091 2.23639 0.157169 1.82239 0.310629L30.4977 29.0295L38.5817 20.94Z" fill="#66BE69"/>
  <path d="M3.15157 57.6386L38.5817 37.1407L30.4759 29.0293L1.77881 57.7701C2.2146 57.9236 2.69399 57.9016 3.15157 57.6605" fill="#EF4049"/>
  <path d="M38.5818 37.14L50.1086 30.4754C51.1981 29.8397 51.1981 28.2393 50.1086 27.6255L38.5818 20.9609L30.4978 29.0505L38.6036 37.1619L38.5818 37.14Z" fill="#FFD10A"/>
</svg>