<svg width="45" height="46" viewBox="0 0 45 46" fill="none" xmlns="http://www.w3.org/2000/svg">
<g clip-path="url(#clip0_64_152)">
<path d="M13.0043 22.2226L1.75024 11.9862L6.41949 7.22717L15.0696 15.3385L13.0043 22.2226Z" fill="#359FD9"/>
<path d="M24.0186 33.1476L34.3448 44.3119L39.0439 39.5828L30.8728 30.9926L24.0186 33.1476Z" fill="#359FD9"/>
<path d="M29.0164 45.0614C26.3525 45.0315 23.0301 43.7145 20.3364 41.0506C15.1583 35.9324 10.0101 30.7544 4.89193 25.5763C1.80903 22.4335 0.492062 18.6323 0.881166 14.2624C1.09068 11.8978 1.95868 9.74277 3.36544 7.82718C4.68241 6.06125 7.3762 5.76194 8.96255 7.25849C10.9979 9.20401 12.9733 11.2094 14.9488 13.2447C16.2657 14.6215 16.2059 16.8664 14.8889 18.3928C13.961 19.4704 13.991 20.3084 14.9787 21.3261C18.1514 24.4988 21.3241 27.6715 24.4968 30.8741C25.5144 31.8917 26.3525 31.9217 27.4001 30.9938C29.0463 29.5871 31.2612 29.6469 32.7877 31.1734C34.6434 32.9992 36.4692 34.825 38.295 36.6807C40.0908 38.4766 39.7915 41.2602 37.7263 42.6968C35.4216 44.2832 32.9074 45.0913 28.9565 45.0913L29.0164 45.0614ZM30.0639 42.9962C32.4584 42.9363 34.6434 42.3077 36.559 40.9608C37.5766 40.2425 37.7263 39.0453 36.8284 38.1473C35.0325 36.3215 33.2067 34.4957 31.351 32.67C30.5428 31.8618 29.585 31.8618 28.747 32.64C27.0409 34.1665 24.826 34.1665 23.2097 32.5502C19.8874 29.2578 16.595 25.9355 13.3026 22.6431C11.6863 21.0268 11.6863 18.8119 13.2128 17.1058C13.991 16.2677 13.991 15.3099 13.2128 14.5018C11.4169 12.676 9.62103 10.8801 7.79524 9.08429C6.83745 8.12649 5.6402 8.27615 4.862 9.41353C1.83896 13.9032 2.34779 20.039 6.20889 23.9301C11.4169 29.2279 16.6848 34.4658 21.9526 39.7037C24.1975 41.9186 26.981 42.9363 30.0639 43.0261V42.9962Z" fill="#2B5884"/>
<path d="M44.9995 22.0738C44.9995 22.3432 44.9995 22.6126 44.9995 22.8819C44.9995 23.6003 44.6104 24.0193 43.9819 24.0193C43.3234 24.0193 42.9343 23.6003 42.9343 22.852C42.8744 19.6195 42.186 16.5665 40.6595 13.723C37.3971 7.73683 32.4285 4.17503 25.694 3.09751C24.826 2.94786 23.958 2.91793 23.0601 2.85807C22.2519 2.82813 21.803 2.49889 21.803 1.81048C21.803 1.18193 22.2519 0.822754 23.09 0.822754C26.6817 0.822754 30.0939 1.69075 33.2366 3.39682C39.5222 6.8389 43.3234 12.1367 44.7002 19.2004C44.79 19.6793 44.82 20.1582 44.8798 20.6371C44.9397 21.116 44.9696 21.5949 44.9995 22.1037V22.0738Z" fill="#2B5884"/>
<path d="M38.595 22.6429C38.625 23.4809 38.2957 23.9898 37.6372 24.0197C36.9189 24.0795 36.4699 23.6306 36.4699 22.7925C36.44 19.8293 35.5421 17.1355 33.7163 14.8009C31.0524 11.3588 27.5205 9.50312 23.1506 9.3834C22.3724 9.3834 21.9234 9.08409 21.8336 8.5154C21.684 7.73719 22.2227 7.19843 23.1506 7.22836C26.2335 7.31815 29.1069 8.18615 31.681 9.95209C35.572 12.6459 37.8168 16.3873 38.5052 21.0864C38.5651 21.5653 38.595 22.0742 38.625 22.6429H38.595Z" fill="#359FD9"/>
<path d="M23.1508 14.0522C27.2812 14.142 31.0226 17.4044 31.6512 21.3254C31.741 21.8642 31.7709 22.4029 31.7709 22.9417C31.7709 23.6301 31.4117 24.0192 30.7832 24.0491C30.1247 24.0491 29.7356 23.69 29.7057 22.9716C29.5859 20.3676 28.4486 18.3622 26.1738 17.0153C25.216 16.4466 24.1385 16.2072 23.061 16.1174C22.163 16.0575 21.7739 15.7283 21.7739 15.0399C21.7739 14.3515 22.2229 14.0222 23.1508 14.0522C23.1807 14.0522 23.2405 14.0522 23.1208 14.0522H23.1508Z" fill="#2B5884"/>
</g>
<defs>
<clipPath id="clip0_64_152">
<rect width="44.1782" height="44.2381" fill="white" transform="translate(0.821777 0.822998)"/>
</clipPath>
</defs>
</svg>
