<svg width="60" height="49" viewBox="0 0 60 49" fill="none" xmlns="http://www.w3.org/2000/svg">
<path d="M33.9414 24.0113C33.9414 27.8616 32.3941 31.3512 29.8881 33.8917C29.8683 33.9148 29.8452 33.9379 29.8254 33.9579C29.8023 33.9811 29.7792 34.0009 29.7559 34.024L19.8805 43.9044C21.484 42.3001 22.704 40.3089 23.3849 38.0794C23.4344 37.9207 23.4808 37.7652 23.5238 37.6032C23.8345 36.4422 23.9998 35.2216 23.9998 33.9581C23.9998 30.0748 22.4227 26.5585 19.8803 24.0116L0.000732422 4.12146C0.017245 4.09833 0.0337574 4.08511 0.0535724 4.06859C2.59275 1.55125 6.08395 -6.10352e-05 9.93888 -6.10352e-05C10.5174 -6.10352e-05 11.0861 0.036285 11.6481 0.105823C14.8451 0.489559 17.7115 1.95151 19.877 4.12146H19.8803L29.7557 14.0019C29.7789 14.0217 29.802 14.0448 29.8252 14.0646C29.8451 14.0878 29.8682 14.1109 29.888 14.1309C32.394 16.6712 33.9412 20.161 33.9412 24.0113H33.9414Z" fill="url(#paint0_linear_0_30)"/>
<path d="M19.8816 24.0121C17.7158 26.1791 14.8464 27.6421 11.6465 28.0278C11.0868 28.0982 10.5177 28.1319 9.93945 28.1319C8.68224 28.1319 7.46151 27.9666 6.29903 27.6544C3.93128 27.0239 1.80822 25.7844 0.107276 24.1194C0.0949662 24.1072 0.0796546 24.0949 0.0674954 24.0826C0.0430268 24.0581 0.0217104 24.0366 0.000244141 24.0121C0.0370221 23.9723 0.0766522 23.9325 0.116583 23.8959C1.81737 22.2339 3.93443 21.0005 6.29903 20.37C7.46151 20.0578 8.68209 19.8926 9.93945 19.8926C10.5177 19.8926 11.0866 19.9262 11.6465 19.9967C14.8464 20.3823 17.7158 21.8454 19.8816 24.0123V24.0121Z" fill="url(#paint1_linear_0_30)"/>
<path d="M23.999 33.9594C23.999 35.2204 23.8338 36.4416 23.5218 37.6017C23.479 37.7639 23.4331 37.9199 23.3842 38.0791C22.705 40.3073 21.4845 42.2998 19.8814 43.9037C17.7156 46.0706 14.8461 47.5336 11.6463 47.9193C11.0865 47.9897 10.5174 48.0234 9.9392 48.0234C6.08472 48.0234 2.59112 46.4716 0.0520891 43.9558C0.0337752 43.9404 0.018464 43.9251 0 43.9038C0.0795604 43.8212 0.159121 43.7446 0.238681 43.6682L5.82157 38.0793L9.9392 33.9596L11.6463 32.2518L19.8814 24.0123C22.4236 26.5588 23.999 30.0755 23.999 33.9596V33.9594Z" fill="url(#paint2_linear_0_30)"/>
<path d="M59.6462 4.12152L53.8242 9.94649L49.7048 14.068L39.7666 24.0112H39.7633L29.8879 33.8916C32.3939 31.3513 33.9412 27.8615 33.9412 24.0112C33.9412 20.1609 32.3939 16.6712 29.8879 14.1308C29.8681 14.111 29.845 14.0878 29.8252 14.0645L33.9413 9.94634L39.7633 4.12137C42.309 1.57444 45.8233 0 49.7048 0C51.1363 0 52.5182 0.215072 53.8242 0.615178C56.0492 1.29659 58.0429 2.51388 59.6462 4.12152Z" fill="url(#paint3_linear_0_30)"/>
<defs>
<linearGradient id="paint0_linear_0_30" x1="0.828461" y1="4.29838" x2="29.0162" y2="33.2334" gradientUnits="userSpaceOnUse">
<stop offset="0.11" stop-color="#F6F6F6"/>
<stop offset="0.55" stop-color="#C9C8C8"/>
<stop offset="1" stop-color="#989696"/>
</linearGradient>
<linearGradient id="paint1_linear_0_30" x1="-2.31692" y1="24.0121" x2="22.8566" y2="24.0121" gradientUnits="userSpaceOnUse">
<stop offset="0.11" stop-color="#F6F6F6"/>
<stop offset="0.3" stop-color="#C8C8C8"/>
<stop offset="0.62" stop-color="#767777"/>
<stop offset="0.73" stop-color="#6A6B6B"/>
<stop offset="1" stop-color="#4E4F4F"/>
</linearGradient>
<linearGradient id="paint2_linear_0_30" x1="3.39438" y1="49.3459" x2="24.0898" y2="30.057" gradientUnits="userSpaceOnUse">
<stop offset="0.11" stop-color="#F6F6F6"/>
<stop offset="0.37" stop-color="#C8C8C8"/>
<stop offset="0.96" stop-color="#555656"/>
<stop offset="1" stop-color="#4E4F4F"/>
</linearGradient>
<linearGradient id="paint3_linear_0_30" x1="54.1976" y1="-1.00147" x2="25.4049" y2="29.6854" gradientUnits="userSpaceOnUse">
<stop offset="0.11" stop-color="#F6F6F6"/>
<stop offset="0.37" stop-color="#C8C8C8"/>
<stop offset="0.96" stop-color="#555656"/>
<stop offset="1" stop-color="#4E4F4F"/>
</linearGradient>
</defs>
</svg>
