<svg width="189" height="39" viewBox="0 0 189 39" fill="none" xmlns="http://www.w3.org/2000/svg">
<path d="M18.5484 15.2008L26.9772 0.337802C27.0104 0.277571 27.0774 0.237549 27.1439 0.237549H36.2935C36.4404 0.237549 36.5339 0.397631 36.4603 0.531168L22.5525 24.3277C22.5525 24.3277 22.526 24.388 22.526 24.428V38.0824C22.526 38.1894 22.4392 38.2762 22.3323 38.2762H14.4508C14.3439 38.2762 14.2572 38.1894 14.2572 38.0824V24.0876C14.2572 24.0543 14.2504 24.0206 14.2306 23.9873L0.483277 0.538308C0.410007 0.411507 0.503476 0.244679 0.650015 0.244679H9.84595C9.91288 0.244679 9.97942 0.284701 10.0127 0.344932L18.388 15.2012H18.548L18.5484 15.2008Z" fill="url(#paint0_linear_0_35)"/>
<path d="M96.5353 0.438371V30.5246C96.5353 30.6316 96.6221 30.7184 96.729 30.7184H116.963C117.07 30.7184 117.157 30.8052 117.157 30.9122V38.0832C117.157 38.1901 117.07 38.2769 116.963 38.2769H88.4072C88.3002 38.2769 88.2135 38.1901 88.2135 38.0832V0.438768C88.2135 0.33178 88.3002 0.244995 88.4072 0.244995H96.3421C96.449 0.244995 96.5357 0.33178 96.5357 0.438768L96.5353 0.438371Z" fill="url(#paint1_linear_0_35)"/>
<path d="M122.529 1.65343C123.457 0.718671 124.625 0.244751 126.039 0.244751C127.454 0.244751 128.622 0.712331 129.536 1.65343C130.457 2.58819 130.918 3.75001 130.918 5.1254C130.918 6.50079 130.451 7.61585 129.51 8.57082C128.576 9.52578 127.414 10.0064 126.04 10.0064C124.665 10.0064 123.544 9.5456 122.609 8.63105C121.615 7.65626 121.081 6.2674 121.141 4.87854C121.195 3.60974 121.655 2.53509 122.529 1.65343H122.529Z" fill="url(#paint2_linear_0_35)"/>
<path d="M122.309 10.9547H129.743C129.85 10.9547 129.937 11.0414 129.937 11.1484V38.0766C129.937 38.1835 129.85 38.2703 129.743 38.2703H122.309C122.202 38.2703 122.115 38.1835 122.115 38.0766V11.1484C122.115 11.0414 122.202 10.9547 122.309 10.9547Z" fill="url(#paint3_linear_0_35)"/>
<path d="M152.52 6.91679C149.23 6.91679 147.582 8.46693 147.562 11.5732V12.3165C147.562 12.4172 147.648 12.4992 147.755 12.4992H157.572C157.679 12.4992 157.766 12.5812 157.766 12.6819V18.674C157.766 18.7746 157.679 18.8567 157.572 18.8567H147.755C147.648 18.8567 147.562 18.9387 147.562 19.0393V38.0931C147.562 38.1938 147.475 38.2758 147.368 38.2758H139.934C139.827 38.2758 139.74 38.1938 139.74 38.0931V19.0393C139.74 18.9387 139.653 18.8567 139.546 18.8567H133.861C133.754 18.8567 133.667 18.7746 133.667 18.674V12.6819C133.667 12.5812 133.754 12.4992 133.861 12.4992H139.546C139.653 12.4992 139.74 12.4172 139.74 12.3165V10.2497C139.74 7.28213 140.841 4.86856 143.05 3.01608C145.259 1.1636 148.122 0.237549 151.639 0.237549C153.094 0.237549 155.076 0.502241 157.592 1.02529C157.685 1.04431 157.758 1.13229 157.745 1.22065L157.144 7.4335C157.131 7.55317 157.011 7.62885 156.891 7.58486C155.57 7.13749 154.115 6.91679 152.513 6.91679H152.52H152.52Z" fill="url(#paint4_linear_0_35)"/>
<path d="M174.122 9.41876C178.467 9.41876 181.95 10.7474 184.567 13.4114C187.183 16.0754 188.491 19.5609 188.491 23.8741C188.491 24.0143 188.484 24.2144 188.464 24.4684C188.444 24.7224 188.417 25.0426 188.384 25.4234C188.358 25.704 188.344 25.9373 188.337 26.1311C188.337 26.2314 188.251 26.3182 188.144 26.3182H167.996C167.856 26.3182 167.763 26.4584 167.809 26.5852C168.99 29.5163 171.834 30.9852 176.345 30.9852C179.568 30.9852 182.397 30.304 184.84 28.9421C184.953 28.8819 185.093 28.9421 185.12 29.0689L186.522 35.5187C186.542 35.5988 186.502 35.6855 186.435 35.7323C183.666 37.4148 180.282 38.2695 176.298 38.283C171.119 38.283 167.009 36.9544 163.972 34.2904C160.936 31.6331 159.414 28.1611 159.414 23.8812C159.414 19.6013 160.796 16.2161 163.565 13.4986C166.328 10.7878 169.852 9.42551 174.13 9.42551L174.123 9.41876H174.122ZM167.876 21.4839H180.409C180.522 21.4839 180.616 21.3836 180.609 21.2703C180.482 19.9551 179.841 18.8864 178.673 18.0654C177.446 17.1972 175.951 16.7633 174.182 16.7633C172.52 16.7633 171.119 17.1905 169.978 18.0384C168.91 18.8329 168.142 19.9012 167.689 21.2235C167.649 21.3503 167.742 21.4839 167.875 21.4839H167.876Z" fill="url(#paint5_linear_0_35)"/>
<path d="M52.3701 26.405L54.3254 25.0363L64.5293 17.8919C67.8126 15.5952 72.3442 16.3897 74.6397 19.6813C76.9353 22.9663 76.1412 27.5002 72.8512 29.7969C70.362 31.5396 67.1587 31.4996 64.7563 29.9506L58.6634 34.2171C63.5285 38.9376 71.1965 39.6988 76.9555 35.6725C83.482 31.1053 85.0706 22.1116 80.5057 15.5817C75.9408 9.05186 66.9516 7.4625 60.425 12.0297L42.3932 24.6492C44.6622 27.8873 49.1201 28.6822 52.3634 26.4117L52.3701 26.405Z" fill="url(#paint6_linear_0_35)"/>
<path d="M62.1669 21.2838L60.2115 22.6525L50.0077 29.7969C46.7244 32.0936 42.1928 31.2991 39.8972 28.0074C37.6017 24.7225 38.3958 20.1886 41.6858 17.8919C44.175 16.1492 47.3783 16.1892 49.7807 17.7381L55.8736 13.4717C51.0085 8.75113 43.3405 7.98993 37.5815 12.0163C31.055 16.5835 29.4664 25.5772 34.0313 32.1071C38.5962 38.6369 47.5854 40.2263 54.1119 35.6591L72.1438 23.0396C69.8748 19.8014 65.4169 19.0065 62.1736 21.2771L62.1669 21.2838Z" fill="url(#paint7_linear_0_35)"/>
<defs>
<linearGradient id="paint0_linear_0_35" x1="18.4716" y1="-16.9004" x2="18.4716" y2="39.205" gradientUnits="userSpaceOnUse">
<stop offset="0.11" stop-color="#F6F6F6"/>
<stop offset="0.55" stop-color="#C9C8C8"/>
<stop offset="1" stop-color="#989696"/>
</linearGradient>
<linearGradient id="paint1_linear_0_35" x1="102.685" y1="-16.9005" x2="102.685" y2="39.205" gradientUnits="userSpaceOnUse">
<stop offset="0.11" stop-color="#F6F6F6"/>
<stop offset="0.55" stop-color="#C9C8C8"/>
<stop offset="1" stop-color="#989696"/>
</linearGradient>
<linearGradient id="paint2_linear_0_35" x1="126.027" y1="-16.9003" x2="126.027" y2="39.2051" gradientUnits="userSpaceOnUse">
<stop offset="0.11" stop-color="#F6F6F6"/>
<stop offset="0.55" stop-color="#C9C8C8"/>
<stop offset="1" stop-color="#989696"/>
</linearGradient>
<linearGradient id="paint3_linear_0_35" x1="126.026" y1="-16.9003" x2="126.026" y2="39.2051" gradientUnits="userSpaceOnUse">
<stop offset="0.11" stop-color="#F6F6F6"/>
<stop offset="0.55" stop-color="#C9C8C8"/>
<stop offset="1" stop-color="#989696"/>
</linearGradient>
<linearGradient id="paint4_linear_0_35" x1="145.716" y1="-16.9004" x2="145.716" y2="39.205" gradientUnits="userSpaceOnUse">
<stop offset="0.11" stop-color="#F6F6F6"/>
<stop offset="0.55" stop-color="#C9C8C8"/>
<stop offset="1" stop-color="#989696"/>
</linearGradient>
<linearGradient id="paint5_linear_0_35" x1="173.952" y1="-16.9003" x2="173.952" y2="39.2051" gradientUnits="userSpaceOnUse">
<stop offset="0.11" stop-color="#F6F6F6"/>
<stop offset="0.55" stop-color="#C9C8C8"/>
<stop offset="1" stop-color="#989696"/>
</linearGradient>
<linearGradient id="paint6_linear_0_35" x1="62.7522" y1="-16.9003" x2="62.7522" y2="39.2051" gradientUnits="userSpaceOnUse">
<stop offset="0.11" stop-color="#F6F6F6"/>
<stop offset="0.55" stop-color="#C9C8C8"/>
<stop offset="1" stop-color="#989696"/>
</linearGradient>
<linearGradient id="paint7_linear_0_35" x1="51.7847" y1="-16.9003" x2="51.7847" y2="39.2051" gradientUnits="userSpaceOnUse">
<stop offset="0.11" stop-color="#F6F6F6"/>
<stop offset="0.55" stop-color="#C9C8C8"/>
<stop offset="1" stop-color="#989696"/>
</linearGradient>
</defs>
</svg>
