<svg xmlns="http://www.w3.org/2000/svg" width="162" height="38" viewBox="0 0 162 38" fill="none">
  <g clip-path="url(#clip0_766_87)">
    <path d="M99.8938 1.31964C100.765 0.438008 101.867 0 103.199 0C104.532 0 105.628 0.438008 106.493 1.31964C107.359 2.20127 107.792 3.29068 107.792 4.58785C107.792 5.88503 107.354 6.92951 106.471 7.82799C105.588 8.72647 104.498 9.17571 103.199 9.17571C101.901 9.17571 100.81 8.72647 99.9163 7.82799C99.0281 6.92951 98.5784 5.85134 98.5784 4.58785C98.5784 3.32437 99.0168 2.20127 99.8882 1.31964H99.8938Z" fill="url(#paint0_linear_766_87)"/>
    <path d="M18.1069 14.9484L26.5391 0.0954633C26.5728 0.0336929 26.6403 0 26.7077 0H35.8595C36.0113 0 36.1012 0.162849 36.0282 0.292005L22.1094 24.0736C22.0925 24.1017 22.0813 24.1354 22.0813 24.1691V37.8091C22.0813 37.9158 21.9969 38 21.8901 38H13.9976C13.8908 38 13.8064 37.9158 13.8064 37.8091V23.8265C13.8064 23.7928 13.7952 23.7591 13.7783 23.731L0.0281672 0.292005C-0.0449121 0.162849 0.0450316 0 0.196812 0H9.39919C9.46664 0 9.5341 0.0393084 9.56783 0.101079L17.9495 14.9484H18.1069Z" fill="url(#paint1_linear_766_87)"/>
    <path d="M50.7901 26.8027L52.6396 25.5111L62.2861 18.7725C65.3891 16.605 69.6727 17.3574 71.8426 20.4628C74.0125 23.5626 73.2592 27.8416 70.1505 30.0091C67.7951 31.6545 64.7708 31.6152 62.4997 30.1495L56.7433 34.1758C61.3417 38.6289 68.5934 39.3477 74.035 35.546C80.2018 31.2333 81.7027 22.7483 77.391 16.5881C73.0737 10.4279 64.5796 8.9286 58.4129 13.2357L41.3741 25.1461C43.5159 28.2066 47.732 28.9478 50.7958 26.8083L50.7901 26.8027Z" fill="url(#paint2_linear_766_87)"/>
    <path d="M60.0544 21.9734L58.2049 23.2649L48.5584 30.0035C45.4554 32.1711 41.1718 31.4186 39.0019 28.3133C36.832 25.2135 37.5853 20.9345 40.694 18.7669C43.0494 17.1216 46.0737 17.1609 48.3448 18.6266L54.1012 14.6003C49.5029 10.1472 42.2511 9.42839 36.8095 13.2301C30.6428 17.5428 29.1418 26.0278 33.4535 32.188C37.7708 38.3481 46.2649 39.8475 52.4316 35.5404L69.4704 23.63C67.3286 20.5695 63.1125 19.8283 60.0488 21.9678L60.0544 21.9734Z" fill="url(#paint3_linear_766_87)"/>
    <path d="M85.4073 38V0H92.7715V38H85.4073Z" fill="url(#paint4_linear_766_87)"/>
    <path d="M106.87 10.7424H99.506V38H106.87V10.7424Z" fill="url(#paint5_linear_766_87)"/>
    <path d="M128.131 6.76666C125.033 6.76666 123.482 8.31092 123.465 11.405V12.326H133.072V18.6603H123.465V38.0056H116.101V18.6546H110.384V12.3204H116.101V10.0742C116.101 7.11482 117.141 4.71139 119.221 2.86951C121.3 1.02201 123.993 0.101074 127.304 0.101074C128.704 0.101074 130.621 0.376233 133.066 0.920935L132.465 7.50229C131.166 7.00251 129.721 6.75543 128.125 6.75543L128.131 6.76666Z" fill="url(#paint6_linear_766_87)"/>
    <path d="M148.469 10.7424C152.562 10.7424 155.839 12.0003 158.301 14.5104C160.763 17.0262 161.994 20.3168 161.994 24.3937C161.994 24.5285 161.989 24.7138 161.972 24.9552C161.955 25.1967 161.933 25.4999 161.899 25.8593C161.865 26.2187 161.848 26.4995 161.848 26.696H142.432C143.483 29.6385 146.192 31.1042 150.566 31.1042C153.691 31.1042 156.429 30.4191 158.773 29.0489L160.173 35.5123C157.542 37.1521 154.327 37.9775 150.515 37.9944C145.642 37.9944 141.774 36.7365 138.913 34.2264C136.051 31.7107 134.618 28.4368 134.618 24.3937C134.618 20.3505 135.922 17.1497 138.525 14.5834C141.127 12.0171 144.444 10.7368 148.469 10.7368V10.7424ZM142.33 22.1419H154.585C154.518 20.8054 153.905 19.7272 152.753 18.9073C151.595 18.0875 150.184 17.6776 148.525 17.6776C146.963 17.6776 145.642 18.0763 144.568 18.8793C143.494 19.6823 142.752 20.7661 142.336 22.1363L142.33 22.1419Z" fill="url(#paint7_linear_766_87)"/>
  </g>
  <defs>
    <linearGradient id="paint0_linear_766_87" x1="103.188" y1="-2.56066" x2="103.188" y2="43.6773" gradientUnits="userSpaceOnUse">
      <stop offset="0.11" stop-color="#F6F6F6"/>
      <stop offset="0.37" stop-color="#C8C8C8"/>
      <stop offset="0.96" stop-color="#555656"/>
      <stop offset="1" stop-color="#4E4F4F"/>
    </linearGradient>
    <linearGradient id="paint1_linear_766_87" x1="18.0282" y1="-2.56066" x2="18.0282" y2="43.6773" gradientUnits="userSpaceOnUse">
      <stop offset="0.11" stop-color="#F6F6F6"/>
      <stop offset="0.37" stop-color="#C8C8C8"/>
      <stop offset="0.96" stop-color="#555656"/>
      <stop offset="1" stop-color="#4E4F4F"/>
    </linearGradient>
    <linearGradient id="paint2_linear_766_87" x1="60.6109" y1="-2.56069" x2="60.6109" y2="43.6772" gradientUnits="userSpaceOnUse">
      <stop offset="0.11" stop-color="#F6F6F6"/>
      <stop offset="0.37" stop-color="#C8C8C8"/>
      <stop offset="0.96" stop-color="#555656"/>
      <stop offset="1" stop-color="#4E4F4F"/>
    </linearGradient>
    <linearGradient id="paint3_linear_766_87" x1="50.2336" y1="-2.56068" x2="50.2336" y2="43.6772" gradientUnits="userSpaceOnUse">
      <stop offset="0.11" stop-color="#F6F6F6"/>
      <stop offset="0.37" stop-color="#C8C8C8"/>
      <stop offset="0.96" stop-color="#555656"/>
      <stop offset="1" stop-color="#4E4F4F"/>
    </linearGradient>
    <linearGradient id="paint4_linear_766_87" x1="89.0894" y1="0" x2="89.0894" y2="43.6773" gradientUnits="userSpaceOnUse">
      <stop offset="0.11" stop-color="#F6F6F6"/>
      <stop offset="0.37" stop-color="#C8C8C8"/>
      <stop offset="0.96" stop-color="#555656"/>
      <stop offset="1" stop-color="#4E4F4F"/>
    </linearGradient>
    <linearGradient id="paint5_linear_766_87" x1="103.188" y1="5.17359e-06" x2="103.188" y2="43.6773" gradientUnits="userSpaceOnUse">
      <stop offset="0.11" stop-color="#F6F6F6"/>
      <stop offset="0.37" stop-color="#C8C8C8"/>
      <stop offset="0.96" stop-color="#555656"/>
      <stop offset="1" stop-color="#4E4F4F"/>
    </linearGradient>
    <linearGradient id="paint6_linear_766_87" x1="121.733" y1="-2.56067" x2="121.733" y2="43.6773" gradientUnits="userSpaceOnUse">
      <stop offset="0.11" stop-color="#F6F6F6"/>
      <stop offset="0.37" stop-color="#C8C8C8"/>
      <stop offset="0.96" stop-color="#555656"/>
      <stop offset="1" stop-color="#4E4F4F"/>
    </linearGradient>
    <linearGradient id="paint7_linear_766_87" x1="148.312" y1="-2.56066" x2="148.312" y2="43.6773" gradientUnits="userSpaceOnUse">
      <stop offset="0.11" stop-color="#F6F6F6"/>
      <stop offset="0.37" stop-color="#C8C8C8"/>
      <stop offset="0.96" stop-color="#555656"/>
      <stop offset="1" stop-color="#4E4F4F"/>
    </linearGradient>
    <clipPath id="clip0_766_87">
      <rect width="162" height="38" fill="white"/>
    </clipPath>
  </defs>
</svg>