<svg width="88" height="80" viewBox="0 0 88 80" fill="none" xmlns="http://www.w3.org/2000/svg">
<g id="Frame 12753">
<g id="Vector" filter="url(#filter0_d_1893_3127)">
<path d="M52.42 73.7644L28.7586 41.2822C28.3831 40.789 28.3831 39.8356 28.7586 39.3425L52.4595 6.23562C53.013 5.47945 52.6769 4 51.9653 4H35.3411C31.6249 4 28.0272 6.16986 25.161 10.1479L4.26706 39.3425C3.91125 39.8356 3.91125 40.789 4.26706 41.2822L25.1808 69.9836C28.0075 73.863 31.5656 76 35.2423 76H51.9456C52.6572 76 52.9735 74.5205 52.4397 73.7644H52.42Z" fill="url(#paint0_linear_1893_3127)"/>
<path d="M51.6974 74.5713C51.6888 74.5094 51.6758 74.4603 51.6624 74.4228L51.6117 74.3532L27.9556 41.8782C27.6011 41.4068 27.4769 40.813 27.4769 40.3123C27.4769 39.8131 27.6004 39.2212 27.9526 38.7504L51.6464 5.65351L51.6463 5.65348L51.6526 5.64497C51.6728 5.61733 51.7084 5.54792 51.726 5.42506C51.7434 5.30432 51.7373 5.17061 51.7109 5.05234C51.7066 5.03323 51.7021 5.0158 51.6976 5H35.3411C32.0442 5 28.7167 6.92417 25.9732 10.7313C25.9729 10.7317 25.9726 10.7321 25.9723 10.7325L5.08026 39.9245L5.07801 39.9276C5.07809 39.9275 5.0765 39.9297 5.07364 39.9347C5.07232 39.937 5.07078 39.9399 5.06906 39.9432C5.06707 39.9471 5.06485 39.9517 5.06244 39.9571C5.05331 39.9774 5.04282 40.0057 5.03302 40.0424C5.01299 40.1174 5.0002 40.2108 5.0002 40.3123C5.0002 40.4139 5.01299 40.5073 5.03302 40.5822C5.04282 40.6189 5.05331 40.6473 5.06244 40.6676C5.06693 40.6776 5.07079 40.6849 5.07364 40.69C5.07574 40.6937 5.07716 40.6958 5.07773 40.6967C5.07794 40.697 5.07804 40.6971 5.07801 40.6971L25.989 69.3947L25.1808 69.9836L25.989 69.3947C28.6922 73.1046 31.9812 75 35.2423 75H51.671C51.675 74.9855 51.6789 74.9698 51.6826 74.9526C51.7088 74.8328 51.7149 74.696 51.6974 74.5713Z" stroke="#F9FBFC" stroke-width="2"/>
</g>
<g id="Vector_2" filter="url(#filter1_d_1893_3127)">
<path d="M82.9779 67C82.9778 66.9724 82.976 66.9449 82.9723 66.9188C82.9697 66.9 82.9666 66.8846 82.9635 66.8722L82.9459 66.8479L64.6468 41.5909C64.3361 41.1747 64.2337 40.6622 64.2337 40.2429C64.2337 39.8249 64.3355 39.3144 64.6438 38.899L82.9716 13.1588L82.9716 13.1588L82.9747 13.1545C82.9761 13.1515 82.9873 13.1283 82.9946 13.0775C82.9981 13.0528 82.9999 13.0266 83 13H70.5437C68.0906 13 65.5778 14.4394 63.4822 17.363C63.4819 17.3634 63.4816 17.3638 63.4814 17.3642L47.3264 40.0594C47.3244 40.0644 47.3209 40.074 47.3169 40.0891C47.3067 40.1274 47.2988 40.1811 47.2988 40.2429C47.2988 40.3047 47.3067 40.3584 47.3169 40.3968C47.3208 40.4114 47.3242 40.4208 47.3262 40.4259L63.4935 62.7337L62.6838 63.3205L63.4935 62.7337C65.5578 65.5821 68.041 67 70.4672 67H82.9779Z" stroke="#F9FBFC" stroke-width="2" shape-rendering="crispEdges"/>
</g>
</g>
<defs>
<filter id="filter0_d_1893_3127" x="0.000244141" y="0" width="56.7356" height="80" filterUnits="userSpaceOnUse" color-interpolation-filters="sRGB">
<feFlood flood-opacity="0" result="BackgroundImageFix"/>
<feColorMatrix in="SourceAlpha" type="matrix" values="0 0 0 0 0 0 0 0 0 0 0 0 0 0 0 0 0 0 127 0" result="hardAlpha"/>
<feOffset/>
<feGaussianBlur stdDeviation="2"/>
<feComposite in2="hardAlpha" operator="out"/>
<feColorMatrix type="matrix" values="0 0 0 0 1 0 0 0 0 1 0 0 0 0 1 0 0 0 1 0"/>
<feBlend mode="normal" in2="BackgroundImageFix" result="effect1_dropShadow_1893_3127"/>
<feBlend mode="normal" in="SourceGraphic" in2="effect1_dropShadow_1893_3127" result="shape"/>
</filter>
<filter id="filter1_d_1893_3127" x="42.2988" y="8" width="45.7012" height="64" filterUnits="userSpaceOnUse" color-interpolation-filters="sRGB">
<feFlood flood-opacity="0" result="BackgroundImageFix"/>
<feColorMatrix in="SourceAlpha" type="matrix" values="0 0 0 0 0 0 0 0 0 0 0 0 0 0 0 0 0 0 127 0" result="hardAlpha"/>
<feOffset/>
<feGaussianBlur stdDeviation="2"/>
<feComposite in2="hardAlpha" operator="out"/>
<feColorMatrix type="matrix" values="0 0 0 0 1 0 0 0 0 1 0 0 0 0 1 0 0 0 1 0"/>
<feBlend mode="normal" in2="BackgroundImageFix" result="effect1_dropShadow_1893_3127"/>
<feBlend mode="normal" in="SourceGraphic" in2="effect1_dropShadow_1893_3127" result="shape"/>
</filter>
<linearGradient id="paint0_linear_1893_3127" x1="4.02745" y1="76.0001" x2="52.7901" y2="76.0001" gradientUnits="userSpaceOnUse">
<stop stop-color="#9CC76F"/>
<stop offset="1" stop-color="#C5DA8B"/>
</linearGradient>
</defs>
</svg>
