<svg width="80" height="80" viewBox="0 0 80 80" fill="none" xmlns="http://www.w3.org/2000/svg">
<g id="fi_12492597">
<path id="Vector" d="M72.1629 58.9214C70.8636 57.3947 69.2141 56.2225 67.3818 55.4955C68.9638 53.9053 69.9422 51.7258 69.9422 49.3236C69.9422 44.4691 65.9502 40.5195 61.0433 40.5195C56.1364 40.5195 52.1444 44.4689 52.1444 49.3236C52.1444 51.725 53.1222 53.9041 54.7035 55.494C51.6883 56.6889 49.2458 59.068 47.98 62.0798C47.4536 61.7725 46.9049 61.5059 46.3385 61.2812C47.9207 59.6911 48.8991 57.5114 48.8991 55.1092C48.8991 50.2547 44.9071 46.3051 40.0002 46.3051C35.0933 46.3051 31.1011 50.2545 31.1011 55.1092C31.1011 57.5114 32.0796 59.6909 33.6618 61.2811C33.0954 61.5058 32.5464 61.7725 32.02 62.0798C30.7541 59.068 28.3118 56.6891 25.2968 55.4942C26.878 53.9042 27.8558 51.7251 27.8558 49.3237C27.8558 44.4692 23.8638 40.5197 18.9569 40.5197C14.05 40.5197 10.058 44.4691 10.058 49.3237C10.058 51.7259 11.0364 53.9055 12.6185 55.4956C10.786 56.2226 9.1366 57.3948 7.83738 58.9216C5.97816 61.1067 4.9541 63.8825 4.9541 66.7375V72.2245C4.9541 73.2356 5.77676 74.058 6.7877 74.058H25.9972V78.01C25.9972 79.0211 26.8199 79.8436 27.8308 79.8436H52.1691C53.1802 79.8436 54.0027 79.0209 54.0027 78.01V74.058H73.2122C74.2233 74.058 75.0458 73.2355 75.0458 72.2245V66.7375C75.0461 63.8823 74.0222 61.1067 72.1629 58.9214ZM61.0433 42.8634C64.6579 42.8634 67.5985 45.7616 67.5985 49.3237C67.5985 52.8861 64.6579 55.7842 61.0433 55.7842C57.4288 55.7842 54.4882 52.8861 54.4882 49.3237C54.4882 45.7616 57.4288 42.8634 61.0433 42.8634ZM40.0002 48.6489C43.6147 48.6489 46.5554 51.547 46.5554 55.1092C46.5554 58.6716 43.6147 61.5697 40.0002 61.5697C36.3855 61.5697 33.4449 58.6716 33.4449 55.1092C33.4449 51.547 36.3857 48.6489 40.0002 48.6489ZM18.9571 42.8634C22.5716 42.8634 25.5122 45.7616 25.5122 49.3237C25.5122 52.8861 22.5716 55.7842 18.9571 55.7842C15.3425 55.7842 12.4019 52.8861 12.4019 49.3237C12.4019 45.7616 15.3425 42.8634 18.9571 42.8634ZM26.0279 71.7142H7.29801V66.7375C7.29801 62.1158 10.5175 58.1683 15.0061 57.2095C16.1975 57.7961 17.5386 58.128 18.9572 58.128C20.3761 58.128 21.7175 57.7959 22.9091 57.2091C26.2149 57.9195 28.9338 60.3236 30.0607 63.5033C29.6425 63.8756 29.2474 64.2767 28.8811 64.7072C27.1977 66.6852 26.2019 69.1475 26.0279 71.7142ZM51.6593 77.5H28.3411V72.5231C28.3411 67.9012 31.5607 63.9536 36.0494 62.995C37.2407 63.5816 38.5818 63.9133 40.0004 63.9133C41.4189 63.9133 42.7599 63.5816 43.9511 62.995C48.4397 63.9537 51.6593 67.9012 51.6593 72.5231V77.5ZM72.7024 71.7142H53.9725C53.7983 69.1475 52.8027 66.6852 51.1196 64.707C50.7533 64.2766 50.358 63.8755 49.94 63.5031C51.0666 60.3234 53.7857 57.9194 57.0916 57.2089C58.283 57.7958 59.6244 58.1278 61.0435 58.1278C62.4621 58.1278 63.8032 57.7959 64.9946 57.2094C69.4832 58.1683 72.7027 62.1158 72.7027 66.7373V71.7142H72.7024ZM21.0886 14.2831C21.3002 14.4947 21.5849 14.6173 21.8839 14.6258L25.863 14.7391C23.5449 17.7492 22.1638 21.5167 22.1638 25.6011C22.1638 35.4361 30.1652 43.4375 40.0002 43.4375C49.8352 43.4375 57.8366 35.4361 57.8366 25.6011C57.8366 15.7661 49.8354 7.76468 40.0002 7.76468C35.9157 7.76468 32.1483 9.14562 29.1382 11.4639L29.0249 7.48483C29.0163 7.18577 28.8936 6.90124 28.6822 6.68952L22.4921 0.499366C22.1527 0.160148 21.6408 0.0620225 21.1996 0.251866C20.7588 0.441866 20.4785 0.881554 20.4921 1.36155L20.6308 6.23155L15.7608 6.0928C15.2749 6.08077 14.8411 6.35968 14.6511 6.8003C14.4611 7.24124 14.5593 7.75343 14.8986 8.0928L21.0886 14.2831ZM55.493 25.6011C55.493 34.1437 48.543 41.0937 40.0004 41.0937C31.4577 41.0937 24.5077 34.1437 24.5077 25.6011C24.5077 21.7506 25.92 18.2242 28.2533 15.5116L30.8338 18.092C29.1546 20.1381 28.145 22.7537 28.145 25.6012C28.145 32.1383 33.4633 37.4566 40.0005 37.4566C46.5375 37.4566 51.8558 32.1383 51.8558 25.6012C51.8558 19.0641 46.5375 13.7458 40.0005 13.7458C37.1532 13.7458 34.5375 14.7553 32.4913 16.4347L29.9108 13.8542C32.6235 11.5208 36.1499 10.1084 40.0002 10.1084C48.5429 10.1084 55.493 17.0586 55.493 25.6011ZM36.2918 23.55C35.9539 24.1583 35.7608 24.8575 35.7608 25.6011C35.7608 27.9387 37.6627 29.8406 40.0004 29.8406C42.338 29.8406 44.2399 27.9387 44.2399 25.6011C44.2399 23.2634 42.3379 21.3619 40.0002 21.3619C39.2566 21.3619 38.5574 21.555 37.9491 21.8926L34.1589 18.1025C35.7724 16.8428 37.7993 16.0894 40.0002 16.0894C45.2449 16.0894 49.5118 20.3564 49.5118 25.6011C49.5118 30.8458 45.245 35.1126 40.0002 35.1126C34.7554 35.1126 30.4885 30.8458 30.4885 25.6011C30.4885 23.4003 31.2419 21.3733 32.5016 19.7598L36.2918 23.55ZM40.0002 23.7056C41.0455 23.7056 41.896 24.5559 41.896 25.6012C41.896 26.6466 41.0457 27.497 40.0002 27.497C38.9547 27.497 38.1044 26.6467 38.1044 25.6012C38.1046 24.5559 38.9549 23.7056 40.0002 23.7056ZM21.8038 8.60952C22.128 8.61812 22.4379 8.49483 22.666 8.26687C22.8939 8.0389 23.0179 7.72702 23.0086 7.40468L22.9186 4.24062L26.6954 8.01733L26.8208 12.4217L22.4164 12.2962L18.6397 8.51952L21.8038 8.60952Z" fill="url(#paint0_linear_1419_1557)"/>
</g>
<defs>
<linearGradient id="paint0_linear_1419_1557" x1="75.0066" y1="79.8436" x2="4.87605" y2="79.8436" gradientUnits="userSpaceOnUse">
<stop stop-color="#9CC76F"/>
<stop offset="1" stop-color="#C5DA8B"/>
</linearGradient>
</defs>
</svg>
