<svg width="12" height="141" viewBox="0 0 12 141" fill="none" xmlns="http://www.w3.org/2000/svg">
<path d="M0.666667 6C0.666667 8.94552 3.05448 11.3333 6 11.3333C8.94552 11.3333 11.3333 8.94552 11.3333 6C11.3333 3.05448 8.94552 0.666667 6 0.666667C3.05448 0.666667 0.666667 3.05448 0.666667 6ZM6 141L11.7735 131H0.226497L6 141ZM5 6V7.98529H7V6H5ZM5 11.9559V15.9265H7V11.9559H5ZM5 19.8971V23.8676H7V19.8971H5ZM5 27.8382V31.8088H7V27.8382H5ZM5 35.7794V39.75H7V35.7794H5ZM5 43.7206V47.6912H7V43.7206H5ZM5 51.6618V55.6324H7V51.6618H5ZM5 59.6029V63.5735H7V59.6029H5ZM5 67.5441V71.5147H7V67.5441H5ZM5 75.4853V79.4559H7V75.4853H5ZM5 83.4265V87.3971H7V83.4265H5ZM5 91.3677V95.3382H7V91.3677H5ZM5 99.3088V103.279H7V99.3088H5ZM5 107.25V111.221H7V107.25H5ZM5 115.191V119.162H7V115.191H5ZM5 123.132V127.103H7V123.132H5ZM5 131.074V135.044H7V131.074H5Z" fill="#DDDDDD"/>
</svg>
