<svg width="332" height="143" viewBox="0 0 332 143" fill="none" xmlns="http://www.w3.org/2000/svg">
<path d="M331.333 6C331.333 8.94552 328.946 11.3333 326 11.3333C323.054 11.3333 320.667 8.94552 320.667 6C320.667 3.05448 323.054 0.666667 326 0.666667C328.946 0.666667 331.333 3.05448 331.333 6ZM6 143L0.226501 133H11.7735L6 143ZM327 6V7.95912H325V6H327ZM327 11.8774V15.7956H325V11.8774H327ZM327 19.7139V23.6321H325V19.7139H327ZM327 27.5503V31.4686H325V27.5503H327ZM327 35.3868V39.3051H325V35.3868H327ZM327 43.2233V47.1416H325V43.2233H327ZM327 51.0598V53.0189H325V51.0598H327ZM327 53.0189C327 53.713 326.966 54.3995 326.9 55.0769L324.91 54.8832C324.969 54.2701 325 53.6482 325 53.0189H327ZM326.101 59.1165C325.698 60.4452 325.168 61.7181 324.523 62.9207L322.76 61.9764C323.343 60.8886 323.823 59.7377 324.187 58.5366L326.101 59.1165ZM322.233 66.3418C321.361 67.4043 320.385 68.3795 319.323 69.2524L318.053 67.7071C319.015 66.9168 319.898 66.034 320.688 65.0722L322.233 66.3418ZM315.902 71.5424C314.699 72.1866 313.426 72.7171 312.098 73.1197L311.518 71.2056C312.719 70.8417 313.87 70.362 314.957 69.7794L315.902 71.5424ZM308.058 73.9193C307.381 73.9852 306.694 74.0189 306 74.0189V72.0189C306.629 72.0189 307.251 71.9884 307.864 71.9287L308.058 73.9193ZM306 74.0189H304V72.0189H306V74.0189ZM300 74.0189H296V72.0189H300V74.0189ZM292 74.0189H288V72.0189H292V74.0189ZM284 74.0189H280V72.0189H284V74.0189ZM276 74.0189H272V72.0189H276V74.0189ZM268 74.0189H264V72.0189H268V74.0189ZM260 74.0189H256V72.0189H260V74.0189ZM252 74.0189H248V72.0189H252V74.0189ZM244 74.0189H240V72.0189H244V74.0189ZM236 74.0189H232V72.0189H236V74.0189ZM228 74.0189H224V72.0189H228V74.0189ZM220 74.0189H216V72.0189H220V74.0189ZM212 74.0189H208V72.0189H212V74.0189ZM204 74.0189H200V72.0189H204V74.0189ZM196 74.0189H192V72.0189H196V74.0189ZM188 74.0189H184V72.0189H188V74.0189ZM180 74.0189H176V72.0189H180V74.0189ZM172 74.0189H168V72.0189H172V74.0189ZM164 74.0189H160V72.0189H164V74.0189ZM156 74.0189H152V72.0189H156V74.0189ZM148 74.0189H144V72.0189H148V74.0189ZM140 74.0189H136V72.0189H140V74.0189ZM132 74.0189H128V72.0189H132V74.0189ZM124 74.0189H120V72.0189H124V74.0189ZM116 74.0189H112V72.0189H116V74.0189ZM108 74.0189H104V72.0189H108V74.0189ZM100 74.0189H96V72.0189H100V74.0189ZM92 74.0189H88V72.0189H92V74.0189ZM84 74.0189H80V72.0189H84V74.0189ZM76 74.0189H72V72.0189H76V74.0189ZM68 74.0189H64V72.0189H68V74.0189ZM60 74.0189H56V72.0189H60V74.0189ZM52 74.0189H48V72.0189H52V74.0189ZM44 74.0189H40V72.0189H44V74.0189ZM36 74.0189H32V72.0189H36V74.0189ZM28 74.0189H26V72.0189H28V74.0189ZM26 74.0189C25.3707 74.0189 24.7488 74.0495 24.1358 74.1091L23.942 72.1186C24.6194 72.0526 25.3059 72.0189 26 72.0189V74.0189ZM20.4823 74.8322C19.2812 75.1961 18.1303 75.6758 17.0425 76.2585L16.0982 74.4954C17.3009 73.8513 18.5737 73.3207 19.9024 72.9181L20.4823 74.8322ZM13.9468 78.3308C12.985 79.121 12.1021 80.0039 11.3119 80.9657L9.76654 79.696C10.6395 78.6336 11.6147 77.6584 12.6771 76.7855L13.9468 78.3308ZM9.23953 84.0615C8.65689 85.1492 8.17719 86.3001 7.81329 87.5012L5.89923 86.9213C6.30176 85.5926 6.83237 84.3198 7.4765 83.1172L9.23953 84.0615ZM7.09021 91.1547C7.03055 91.7678 7 92.3896 7 93.0189H5C5 92.3248 5.03372 91.6383 5.09964 90.961L7.09021 91.1547ZM7 93.0189V95.1015H5V93.0189H7ZM7 99.2666V103.432H5V99.2666H7ZM7 107.597V111.762H5V107.597H7ZM7 115.927V120.092H5V115.927H7ZM7 124.257V128.422H5V124.257H7ZM7 132.587V136.752H5V132.587H7Z" fill="#DDDDDD"/>
</svg>
