<svg width="341" height="488" viewBox="0 0 341 488" fill="none" xmlns="http://www.w3.org/2000/svg">
<g clip-path="url(#clip0_110_6)">
<path fill-rule="evenodd" clip-rule="evenodd" d="M0 17.6751C0 7.72705 8.06445 -0.337402 18.0125 -0.337402H211.146C220.417 -0.337402 228.053 6.66742 229.049 15.6734H24.0166C19.5953 15.6734 16.0111 19.2576 16.0111 23.679V383.818C7.00495 382.823 0 375.187 0 365.916V17.6751ZM111.187 471.989C112.182 480.995 119.818 488 129.089 488H322.223C332.171 488 340.235 479.936 340.235 469.988V121.747C340.235 112.475 333.23 104.84 324.224 103.844V463.984C324.224 468.405 320.64 471.989 316.219 471.989H111.187Z" fill="url(#paint0_linear_110_6)"/>
<path fill-rule="evenodd" clip-rule="evenodd" d="M2.38699 383.928C3.70528 383.928 4.77396 384.997 4.77396 386.315V468.427C4.77396 476.6 11.3998 483.226 19.5732 483.226H101.685C103.003 483.226 104.072 484.295 104.072 485.613C104.072 486.931 103.003 488 101.685 488H19.5732C8.76322 488 1.52588e-05 479.237 1.52588e-05 468.427V386.315C1.52588e-05 384.997 1.0687 383.928 2.38699 383.928Z" fill="#44A093"/>
<path fill-rule="evenodd" clip-rule="evenodd" d="M337.848 103.734C336.53 103.734 335.461 102.666 335.461 101.347L335.461 19.2356C335.461 11.0622 328.836 4.43633 320.662 4.43633L238.55 4.43632C237.232 4.43632 236.163 3.36764 236.163 2.04935C236.163 0.731061 237.232 -0.33762 238.55 -0.33762L320.662 -0.337613C331.472 -0.337612 340.235 8.4256 340.235 19.2356L340.235 101.347C340.235 102.666 339.167 103.734 337.848 103.734Z" fill="#44A093"/>
<rect x="25.0173" y="24.6797" width="290.201" height="438.303" rx="10.0069" fill="white"/>
<rect x="32.0222" y="31.6846" width="276.191" height="424.293" rx="5.00346" fill="#1D1D1D"/>
<path fill-rule="evenodd" clip-rule="evenodd" d="M333.231 23.679L318.22 34.6866V37.6886L333.231 26.681V23.679ZM333.231 29.6831L318.22 40.6907V43.6928L333.231 32.6852V29.6831ZM318.22 46.6949L333.231 35.6873V38.6894L318.22 49.697V46.6949ZM333.231 41.6914L318.22 52.699V55.7011L333.231 44.6935V41.6914ZM318.22 58.7032L333.231 47.6956V50.6977L318.22 61.7053V58.7032ZM333.231 53.6997L318.22 64.7074V67.7094L333.231 56.7018V53.6997ZM318.22 70.7115L333.231 59.7039V62.706L318.22 73.7136V70.7115ZM333.231 65.708L318.22 76.7157V79.7177L333.231 68.7101V65.708ZM318.22 82.7198L333.231 71.7122V74.7143L318.22 85.7219V82.7198ZM333.231 77.7164L318.22 88.724V91.726L333.231 80.7184V77.7164Z" fill="#AFD0A5"/>
<path fill-rule="evenodd" clip-rule="evenodd" d="M22.0153 395.936L7.00488 406.944V409.946L22.0153 398.938V395.936ZM22.0152 401.94L7.00486 412.948V415.95L22.0152 404.943V401.94ZM7.00486 418.952L22.0152 407.945V410.947L7.00486 421.954V418.952ZM22.0152 413.949L7.00486 424.956V427.958L22.0152 416.951V413.949ZM7.00486 430.961L22.0152 419.953V422.955L7.00486 433.963V430.961ZM22.0152 425.957L7.00486 436.965V439.967L22.0152 428.959V425.957ZM7.00486 442.969L22.0152 431.961V434.963L7.00486 445.971V442.969ZM22.0152 437.965L7.00486 448.973V451.975L22.0152 440.967V437.965ZM7.00486 454.977L22.0152 443.97V446.972L7.00486 457.979V454.977ZM22.0152 449.974L7.00486 460.981V463.983L22.0152 452.976V449.974Z" fill="#AFD0A5"/>
</g>
<defs>
<linearGradient id="paint0_linear_110_6" x1="340.045" y1="488" x2="-0.378871" y2="488" gradientUnits="userSpaceOnUse">
<stop stop-color="#9CC76F"/>
<stop offset="1" stop-color="#C5DA8B"/>
</linearGradient>
<clipPath id="clip0_110_6">
<rect width="340.235" height="488" fill="white"/>
</clipPath>
</defs>
</svg>
