<svg width="80" height="80" viewBox="0 0 80 80" fill="none" xmlns="http://www.w3.org/2000/svg">
<g id="fi_8474693">
<g id="_x34_8_Conversation_Marketing">
<g id="Group">
<g id="Group_2">
<g id="Group_3">
<path id="Vector" d="M25.8301 39.0985C25.8301 46.9057 32.1827 53.2578 39.9916 53.2578C47.7993 53.2578 54.1513 46.9057 54.1513 39.0985C54.1513 31.2903 47.7993 24.9382 39.9916 24.9382C32.1827 24.9381 25.8301 31.2901 25.8301 39.0985ZM52.3327 39.0985C52.3327 45.9029 46.7965 51.4392 39.9916 51.4392C33.1855 51.4392 27.6487 45.9029 27.6487 39.0985C27.6487 32.2931 33.1855 26.7568 39.9916 26.7568C46.7965 26.7567 52.3327 32.2929 52.3327 39.0985Z" fill="url(#paint0_linear_1439_799)"/>
<path id="Vector_2" d="M32.9546 39.0984C32.9546 42.9772 36.111 46.1336 39.991 46.1336C43.8702 46.1336 47.0268 42.9772 47.0268 39.0984C47.0268 35.2186 43.8704 32.062 39.991 32.062C36.1112 32.062 32.9546 35.2184 32.9546 39.0984ZM45.2082 39.0984C45.2082 41.9744 42.868 44.315 39.991 44.315C37.114 44.315 34.7732 41.9742 34.7732 39.0984C34.7732 36.2214 37.114 33.8806 39.991 33.8806C42.868 33.8806 45.2082 36.2212 45.2082 39.0984Z" fill="url(#paint1_linear_1439_799)"/>
<path id="Vector_3" d="M45.1609 17.6186L44.7766 21.2025C44.6955 21.9539 45.516 22.47 46.1583 22.0727L58.4451 14.4846C58.924 14.1908 59.026 13.5258 58.641 13.1005L48.3937 1.80535C47.858 1.21723 46.8979 1.54957 46.816 2.31926L46.5058 5.21051C17.0416 -0.345272 -5.60681 31.2308 9.236 57.405C9.48179 57.838 10.0354 57.9963 10.4768 57.7472L19.694 52.5033C20.1304 52.255 20.2833 51.7 20.0344 51.2613C10.1962 34.0138 25.689 13.0957 45.1609 17.6186ZM10.3791 55.7096C-3.00931 30.5688 19.2248 1.1141 47.1098 7.1891C47.6319 7.3052 48.1501 6.93848 48.2073 6.39817L48.4079 4.52754L56.559 13.5127L46.7829 19.5497L47.0533 17.0255C47.1013 16.5804 46.8177 16.166 46.3851 16.0499C25.6705 10.4918 8.06194 32.3369 18.0182 51.3644L10.3791 55.7096Z" fill="url(#paint2_linear_1439_799)"/>
<path id="Vector_4" d="M70.7524 22.5512C70.5038 22.1156 69.9491 21.9604 69.514 22.209L60.2926 27.4268C59.8551 27.6731 59.7012 28.2284 59.9487 28.6653C69.8398 46.1526 54.0671 66.9092 34.7099 62.2854L35.2048 58.756C35.3151 57.9673 34.4287 57.4285 33.7804 57.8859L21.6049 66.4745C21.1515 66.796 21.0927 67.4335 21.4587 67.8324L30.9624 78.1993C31.4788 78.7629 32.4238 78.4739 32.5324 77.7138L32.9776 74.6224C62.3168 80.7049 85.8107 49.1101 70.7524 22.5512ZM32.4276 72.6381C31.9143 72.514 31.3937 72.8595 31.3176 73.3934L31.0062 75.5553L23.4974 67.3645L33.112 60.5826L32.7959 62.8368C32.7326 63.2892 33.0143 63.7189 33.4548 63.8396C54.1232 69.5379 71.9432 47.7851 61.9649 28.569L69.608 24.244C83.2526 49.8664 60.0813 79.1835 32.4276 72.6381Z" fill="url(#paint3_linear_1439_799)"/>
</g>
</g>
</g>
</g>
</g>
<defs>
<linearGradient id="paint0_linear_1439_799" x1="54.1355" y1="53.2578" x2="25.7985" y2="53.2578" gradientUnits="userSpaceOnUse">
<stop stop-color="#9CC76F"/>
<stop offset="1" stop-color="#C5DA8B"/>
</linearGradient>
<linearGradient id="paint1_linear_1439_799" x1="47.0189" y1="46.1336" x2="32.9389" y2="46.1336" gradientUnits="userSpaceOnUse">
<stop stop-color="#9CC76F"/>
<stop offset="1" stop-color="#C5DA8B"/>
</linearGradient>
<linearGradient id="paint2_linear_1439_799" x1="58.8462" y1="57.8656" x2="4.49566" y2="57.8656" gradientUnits="userSpaceOnUse">
<stop stop-color="#9CC76F"/>
<stop offset="1" stop-color="#C5DA8B"/>
</linearGradient>
<linearGradient id="paint3_linear_1439_799" x1="75.4135" y1="78.4943" x2="21.1593" y2="78.4943" gradientUnits="userSpaceOnUse">
<stop stop-color="#9CC76F"/>
<stop offset="1" stop-color="#C5DA8B"/>
</linearGradient>
</defs>
</svg>
