<svg width="81" height="80" viewBox="0 0 81 80" fill="none" xmlns="http://www.w3.org/2000/svg">
<g id="fi_11182644">
<path id="Vector" d="M78.032 29.7652C71.3069 28.4063 64.4936 29.1687 57.7825 32.0323C57.2164 32.2738 56.9336 32.9121 57.135 33.4937L57.8703 35.617C54.85 35.6179 52.3411 34.8268 49.7083 33.9934C48.9075 33.7398 48.0794 33.4777 47.2283 33.2352C43.2686 32.1081 39.278 33.079 36.2789 35.899L35.9094 36.2463C30.787 37.4023 27.2506 37.3287 23.0225 35.9241L23.8642 33.4937C24.0656 32.9121 23.7828 32.2738 23.2167 32.0323C16.5056 29.1688 9.6925 28.406 2.96719 29.7652C2.42047 29.8757 2.02734 30.3562 2.02734 30.914V59.9887C2.02734 60.636 2.55187 61.1606 3.19922 61.1606H13.4486C13.948 61.1606 14.3925 60.8442 14.5559 60.3721L15.0167 59.0415C18.9258 60.512 21.9394 63.6474 23.6208 65.3981C23.7897 65.574 23.9462 65.737 24.0902 65.8843L36.1614 78.2535C36.91 79.0204 37.9194 79.4465 39.0034 79.4531C39.0122 79.4532 39.0206 79.4532 39.0292 79.4532C40.1195 79.4532 41.1414 79.0315 41.9092 78.2637C42.3916 77.7813 42.7266 77.2068 42.9148 76.5962C44.7081 77.5982 47.0216 77.3382 48.5441 75.816C49.3355 75.0245 49.7858 74.019 49.8948 72.984C50.3103 73.1013 50.7448 73.162 51.1894 73.162C52.4498 73.162 53.6325 72.6737 54.5191 71.787C55.3694 70.9367 55.8258 69.839 55.8884 68.7235C57.3908 69.0348 59.0173 68.609 60.1814 67.4454C61.8994 65.7274 62.0073 63.0434 60.5014 61.151C60.9069 61.071 61.3108 60.9506 61.7084 60.7884C62.9131 60.2968 64.0248 59.7381 65.1002 59.1979C65.3714 59.0616 65.6358 58.9291 65.8986 58.7988L66.4434 60.3721C66.6069 60.8442 67.0514 61.1606 67.5508 61.1606H77.8002C78.4475 61.1606 78.972 60.636 78.972 59.9887V30.914C78.9719 30.3562 78.5788 29.8757 78.032 29.7652ZM12.6144 58.8168H4.37125V31.8877C9.98234 30.9327 15.6633 31.5665 21.2867 33.7742L12.6144 58.8168ZM58.5241 65.7879C57.6016 66.7099 56.1011 66.7099 55.1792 65.7879L47.8052 58.2481C47.3533 57.7848 46.6112 57.7757 46.1481 58.2279C45.6848 58.6799 45.6759 59.4218 46.128 59.8849L52.8519 66.7749C52.8533 66.7763 52.8547 66.7774 52.8561 66.7788C52.8581 66.7809 52.8598 66.7832 52.8619 66.7852C53.7839 67.7071 53.7839 69.2076 52.8619 70.1296C51.9397 71.0518 50.4389 71.0517 49.5173 70.1301L41.8302 62.277C41.378 61.8137 40.6359 61.8046 40.1731 62.2568C39.7098 62.7088 39.7009 63.4507 40.153 63.9138L46.877 70.8038C46.8786 70.8054 46.8803 70.8068 46.882 70.8084C46.8837 70.8101 46.8853 70.8121 46.887 70.8138V70.814C47.3311 71.2579 47.5755 71.8518 47.5755 72.4863C47.5755 73.1209 47.3311 73.7146 46.8873 74.1584C45.9648 75.0804 44.4644 75.0802 43.5425 74.1587L35.1958 65.6462C34.7436 65.1829 34.0016 65.1738 33.5387 65.626C33.0755 66.0781 33.0666 66.8199 33.5186 67.2831L40.2425 74.1729C40.2441 74.1745 40.2458 74.1759 40.2475 74.1776C40.2492 74.1793 40.2508 74.1813 40.2525 74.1831C40.9203 74.8512 40.9205 75.9382 40.2527 76.6063C39.9253 76.9337 39.4891 77.1102 39.0186 77.1095C38.5658 77.1067 38.1469 76.9315 37.8394 76.6167L25.7681 64.2474C25.6283 64.1042 25.4761 63.9456 25.3119 63.7746C23.4873 61.8749 20.2153 58.4707 15.7847 56.8259L22.2559 38.1393C24.7814 38.9798 27.1141 39.392 29.6078 39.392C30.6317 39.392 31.6848 39.3198 32.7875 39.182L30.0756 41.7318C28.7784 42.9516 28.0928 44.5376 28.0928 46.3184V58.0934C28.0928 58.7407 28.6173 59.2652 29.2647 59.2652C34.3152 59.2652 39.5392 56.0709 39.5392 50.7249C39.5392 48.8796 40.9937 47.5607 42.1087 46.6491L54.8794 59.412C55.4955 60.0277 56.2022 60.4951 56.9595 60.8073L58.5062 62.4241C59.4328 63.3937 59.4409 64.8712 58.5241 65.7879ZM64.0478 57.1035C63.0128 57.6234 61.9427 58.1612 60.8227 58.6181C59.3006 59.2395 57.6984 58.9163 56.5356 57.7545L43.0127 44.2399C42.5733 43.8009 41.868 43.7809 41.4045 44.194C41.2802 44.3048 41.1098 44.4423 40.9127 44.6013C39.6134 45.6502 37.1948 47.6024 37.1948 50.7251C37.1948 52.9285 35.8995 54.3577 34.813 55.1687C33.6083 56.0679 32.0584 56.6574 30.4359 56.8515V46.3185C30.4359 45.1687 30.843 44.2268 31.6806 43.4393L37.8844 37.6063C40.2678 35.3651 43.4397 34.5934 46.5864 35.4893C47.4047 35.7221 48.2161 35.9791 49.0008 36.2276C51.9134 37.1495 54.9195 38.0985 58.6761 37.9438L65.1253 56.5665C64.7616 56.7451 64.4012 56.9259 64.0478 57.1035ZM76.6281 58.8168H68.385L59.7127 33.7743C65.3359 31.5665 71.0166 30.9329 76.6281 31.8879V58.8168ZM13.2383 27.7495H29.103V31.0659C29.103 31.7132 29.6275 32.2377 30.2748 32.2377H50.7244C51.3717 32.2377 51.8962 31.7132 51.8962 31.0659V27.7495H67.7609C68.4083 27.7495 68.9328 27.2249 68.9328 26.5776V21.6777C68.9328 17.6696 66.5422 14.1632 63.0019 12.6273C64.1598 11.344 64.8656 9.6529 64.8656 7.80103C64.8656 3.80118 61.5777 0.547119 57.5362 0.547119C53.4947 0.547119 50.2067 3.80118 50.2067 7.80103C50.2067 9.65446 50.9136 11.347 52.0734 12.6307C49.8339 13.6099 48.0183 15.3974 47.0077 17.6413C46.6733 17.4462 46.3248 17.2715 45.9653 17.1156C47.1233 15.8323 47.8291 14.1412 47.8291 12.2895C47.8291 8.28946 44.5411 5.0354 40.4997 5.0354C36.4581 5.0354 33.1702 8.28946 33.1702 12.2895C33.1702 14.1413 33.8759 15.8324 35.0339 17.1157C34.6745 17.2717 34.3261 17.4463 33.9917 17.6415C32.9812 15.3974 31.1655 13.6101 28.9261 12.6309C30.0859 11.3473 30.7928 9.65478 30.7928 7.80134C30.7928 3.80149 27.5048 0.547432 23.4634 0.547432C19.4219 0.547432 16.1339 3.80149 16.1339 7.80134C16.1339 9.65321 16.8397 11.3445 17.9977 12.6276C14.4573 14.1635 12.0667 17.6699 12.0667 21.6781V26.5779C12.0664 27.2248 12.5911 27.7495 13.2383 27.7495ZM49.5525 29.8938H31.4469V26.166C31.4469 22.6241 33.8945 19.5945 37.3189 18.8237C38.2816 19.2845 39.3606 19.5431 40.4998 19.5431C41.6389 19.5431 42.7181 19.2845 43.6806 18.8237C47.105 19.5945 49.5527 22.6241 49.5527 26.166V29.8938H49.5525ZM57.5362 2.89071C60.2853 2.89071 62.5219 5.09337 62.5219 7.80087C62.5219 10.5084 60.2853 12.7112 57.5362 12.7112C54.787 12.7112 52.5505 10.5084 52.5505 7.80087C52.5505 5.09337 54.787 2.89071 57.5362 2.89071ZM54.3563 14.3359C55.3186 14.7965 56.3975 15.0549 57.5362 15.0549C58.6753 15.0549 59.7545 14.7962 60.7172 14.3354C64.1416 15.1065 66.5892 18.136 66.5892 21.6777V25.4057H51.8655C51.6794 22.9627 50.6052 20.7488 48.9367 19.1142C49.8111 16.7146 51.8564 14.9017 54.3563 14.3359ZM40.4997 7.37899C43.2487 7.37899 45.4853 9.58181 45.4853 12.2893C45.4853 14.9968 43.2487 17.1993 40.4997 17.1993C37.7505 17.1993 35.5139 14.9967 35.5139 12.2892C35.5139 9.58165 37.7505 7.37899 40.4997 7.37899ZM23.4633 2.89071C26.2123 2.89071 28.4489 5.09337 28.4489 7.80087C28.4489 10.5084 26.2123 12.7112 23.4633 12.7112C20.7141 12.7112 18.4775 10.5084 18.4775 7.80087C18.4775 5.09337 20.7141 2.89071 23.4633 2.89071ZM14.4102 21.6776C14.4102 18.1359 16.8578 15.1063 20.2822 14.3352C21.2448 14.796 22.3241 15.0548 23.4633 15.0548C24.602 15.0548 25.6808 14.7963 26.6433 14.3357C29.143 14.9015 31.1884 16.7143 32.0628 19.114C30.3944 20.7485 29.3202 22.9624 29.1341 25.4056H14.4102V21.6776Z" fill="url(#paint0_linear_1419_1555)"/>
</g>
<defs>
<linearGradient id="paint0_linear_1419_1555" x1="78.929" y1="79.4533" x2="1.94166" y2="79.4533" gradientUnits="userSpaceOnUse">
<stop stop-color="#9CC76F"/>
<stop offset="1" stop-color="#C5DA8B"/>
</linearGradient>
</defs>
</svg>
