<svg width="80" height="80" viewBox="0 0 80 80" fill="none" xmlns="http://www.w3.org/2000/svg">
<path d="M55 64H61V66H55V64ZM55 62H61V60H55V62ZM55 58H61V56H55V58ZM55 54H61V52H55V54ZM55 50H61V48H55V50ZM19 66H25V64H19V66ZM19 62H25V60H19V62ZM19 58H25V56H19V58ZM19 54H25V52H19V54ZM19 50H25V48H19V50ZM32 49C31.4473 49 31 48.5527 31 48V42C31 41.4473 31.4473 41 32 41H38C38.5527 41 39 41.4473 39 42V48C39 48.5527 38.5527 49 38 49H32ZM33 47H37V43H33V47ZM41 48V42C41 41.4473 41.4473 41 42 41H48C48.5527 41 49 41.4473 49 42V48C49 48.5527 48.5527 49 48 49H42C41.4473 49 41 48.5527 41 48ZM43 47H47V43H43V47ZM31 37V31C31 30.4473 31.4473 30 32 30H38C38.5527 30 39 30.4473 39 31V37C39 37.5527 38.5527 38 38 38H32C31.4473 38 31 37.5527 31 37ZM33 36H37V32H33V36ZM41 37V31C41 30.4473 41.4473 30 42 30H48C48.5527 30 49 30.4473 49 31V37C49 37.5527 48.5527 38 48 38H42C41.4473 38 41 37.5527 41 37ZM43 36H47V32H43V36ZM31 26V20C31 19.4473 31.4473 19 32 19H38C38.5527 19 39 19.4473 39 20V26C39 26.5527 38.5527 27 38 27H32C31.4473 27 31 26.5527 31 26ZM33 25H37V21H33V25ZM41 26V20C41 19.4473 41.4473 19 42 19H48C48.5527 19 49 19.4473 49 20V26C49 26.5527 48.5527 27 48 27H42C41.4473 27 41 26.5527 41 26ZM43 25H47V21H43V25ZM70 69C70 69.5527 69.5527 70 69 70H64H52H46H34H28H16H11C10.4473 70 10 69.5527 10 69C10 68.4473 10.4473 68 11 68H15V46H14C13.4473 46 13 45.5527 13 45V41C13 40.4473 13.4473 40 14 40H27V16H26C25.4473 16 25 15.5527 25 15V11C25 10.4473 25.4473 10 26 10H54C54.5527 10 55 10.4473 55 11V15C55 15.5527 54.5527 16 54 16H53V40H66C66.5527 40 67 40.4473 67 41V45C67 45.5527 66.5527 46 66 46H65V68H69C69.5527 68 70 68.4473 70 69ZM53 42V44H64H65V42H53ZM27 14H28H52H53V12H27V14ZM15 44H16H27V42H15V44ZM17 68H27V46H17V68ZM29 68H33V53C33 52.4473 33.4473 52 34 52H46C46.5527 52 47 52.4473 47 53V68H51V45V41V16H29V41V45V68ZM45 68V54H35V68H45ZM63 68V46H53V68H63Z" fill="url(#paint0_linear_1419_1569)"/>
<defs>
<linearGradient id="paint0_linear_1419_1569" x1="69.9665" y1="70" x2="9.93319" y2="70" gradientUnits="userSpaceOnUse">
<stop stop-color="#9CC76F"/>
<stop offset="1" stop-color="#C5DA8B"/>
</linearGradient>
</defs>
</svg>
