<svg width="1672" height="351" viewBox="0 0 1672 351" fill="none" xmlns="http://www.w3.org/2000/svg">
<g filter="url(#filter0_d_1711_34499)">
<mask id="path-1-outside-1_1711_34499" maskUnits="userSpaceOnUse" x="26" y="27" width="1620" height="297" fill="black">
<rect fill="white" x="26" y="27" width="1620" height="297"/>
<path d="M113.62 264.513C97.4234 264.513 81.7142 262.366 66.493 258.073C51.4668 253.585 39.3679 247.828 30.1961 240.803L46.2955 205.091C55.077 211.531 65.5172 216.702 77.6162 220.605C89.7152 224.508 101.814 226.459 113.913 226.459C127.378 226.459 137.33 224.508 143.77 220.605C150.21 216.507 153.43 211.141 153.43 204.506C153.43 199.627 151.478 195.627 147.576 192.504C143.868 189.187 138.989 186.552 132.94 184.601C127.085 182.649 119.084 180.503 108.937 178.161C93.3253 174.453 80.5434 170.746 70.591 167.038C60.6386 163.33 52.0523 157.378 44.8319 149.182C37.8067 140.986 34.2941 130.058 34.2941 116.398C34.2941 104.494 37.514 93.7611 43.9538 84.199C50.3935 74.4418 60.0532 66.7336 72.9327 61.0744C86.0074 55.4152 101.912 52.5856 120.646 52.5856C133.72 52.5856 146.502 54.1467 158.991 57.2691C171.481 60.3914 182.409 64.8797 191.776 70.734L177.14 106.738C158.211 96.0053 139.282 90.6388 120.353 90.6388C107.083 90.6388 97.2282 92.7854 90.7885 97.0786C84.5438 101.372 81.4215 107.031 81.4215 114.056C81.4215 121.081 85.0317 126.35 92.252 129.863C99.6675 133.18 110.888 136.498 125.914 139.815C141.526 143.523 154.308 147.231 164.26 150.938C174.213 154.646 182.702 160.501 189.727 168.501C196.947 176.502 200.557 187.333 200.557 200.993C200.557 212.702 197.24 223.435 190.605 233.192C184.165 242.754 174.408 250.365 161.333 256.024C148.259 261.683 132.354 264.513 113.62 264.513ZM431.422 101.177C451.131 101.177 466.743 107.031 478.256 118.74C489.965 130.253 495.819 147.621 495.819 170.843V261H450.156V177.868C450.156 165.379 447.521 156.11 442.252 150.06C437.178 143.816 429.861 140.693 420.298 140.693C409.566 140.693 401.077 144.206 394.832 151.231C388.587 158.061 385.465 168.306 385.465 181.966V261H339.801V177.868C339.801 153.085 329.849 140.693 309.944 140.693C299.406 140.693 291.015 144.206 284.771 151.231C278.526 158.061 275.404 168.306 275.404 181.966V261H229.74V103.518H273.355V121.667C279.209 115.032 286.332 109.958 294.723 106.445C303.309 102.933 312.676 101.177 322.824 101.177C333.947 101.177 343.997 103.421 352.974 107.909C361.95 112.202 369.171 118.544 374.635 126.936C381.074 118.74 389.173 112.397 398.93 107.909C408.883 103.421 419.713 101.177 431.422 101.177ZM600.269 101.177C624.662 101.177 643.396 107.031 656.471 118.74C669.545 130.253 676.083 147.719 676.083 171.136V261H633.346V241.388C624.76 256.024 608.758 263.342 585.34 263.342C573.241 263.342 562.704 261.293 553.727 257.195C544.946 253.097 538.213 247.437 533.53 240.217C528.846 232.997 526.504 224.801 526.504 215.629C526.504 200.993 531.968 189.48 542.896 181.088C554.02 172.697 571.095 168.501 594.122 168.501H630.419C630.419 158.549 627.394 150.938 621.345 145.67C615.295 140.206 606.221 137.473 594.122 137.473C585.731 137.473 577.437 138.839 569.241 141.572C561.24 144.108 554.41 147.621 548.751 152.109L532.359 120.203C540.945 114.154 551.19 109.47 563.094 106.153C575.193 102.835 587.585 101.177 600.269 101.177ZM596.756 232.606C604.562 232.606 611.49 230.85 617.539 227.338C623.589 223.63 627.882 218.263 630.419 211.238V195.139H599.098C580.364 195.139 570.997 201.286 570.997 213.58C570.997 219.434 573.241 224.118 577.73 227.63C582.413 230.948 588.755 232.606 596.756 232.606ZM761.025 124.301C766.489 116.691 773.807 110.934 782.979 107.031C792.346 103.128 803.079 101.177 815.178 101.177V143.328C810.104 142.938 806.689 142.742 804.933 142.742C791.858 142.742 781.613 146.45 774.198 153.866C766.782 161.086 763.074 172.014 763.074 186.65V261H717.411V103.518H761.025V124.301ZM949.334 253.389C944.846 256.707 939.284 259.244 932.649 261C926.209 262.561 919.379 263.342 912.159 263.342C893.425 263.342 878.887 258.561 868.544 248.999C858.396 239.437 853.323 225.386 853.323 206.847V142.157H829.027V107.031H853.323V68.685H898.987V107.031H938.211V142.157H898.987V206.262C898.987 212.897 900.645 218.068 903.963 221.776C907.475 225.289 912.354 227.045 918.599 227.045C925.819 227.045 931.966 225.093 937.04 221.191L949.334 253.389ZM1159.15 264.513C1138.27 264.513 1119.34 260.024 1102.36 251.048C1085.58 241.876 1072.31 229.289 1062.55 213.287C1052.99 197.09 1048.21 178.844 1048.21 158.549C1048.21 138.254 1052.99 120.106 1062.55 104.104C1072.31 87.9068 1085.58 75.3199 1102.36 66.3433C1119.34 57.1715 1138.36 52.5856 1159.44 52.5856C1177.2 52.5856 1193.2 55.7079 1207.44 61.9525C1221.88 68.1972 1233.98 77.1738 1243.74 88.8825L1213.3 116.983C1199.44 100.981 1182.27 92.9805 1161.78 92.9805C1149.1 92.9805 1137.78 95.8101 1127.82 101.469C1117.87 106.933 1110.07 114.642 1104.41 124.594C1098.94 134.546 1096.21 145.865 1096.21 158.549C1096.21 171.233 1098.94 182.552 1104.41 192.504C1110.07 202.457 1117.87 210.262 1127.82 215.922C1137.78 221.386 1149.1 224.118 1161.78 224.118C1182.27 224.118 1199.44 216.019 1213.3 199.822L1243.74 227.923C1233.98 239.827 1221.88 248.901 1207.44 255.146C1193 261.39 1176.9 264.513 1159.15 264.513ZM1272.54 103.518H1318.21V261H1272.54V103.518ZM1295.38 81.5646C1286.98 81.5646 1280.15 79.1253 1274.89 74.2466C1269.62 69.368 1266.98 63.3185 1266.98 56.0982C1266.98 48.8778 1269.62 42.8284 1274.89 37.9497C1280.15 33.0711 1286.98 30.6318 1295.38 30.6318C1303.77 30.6318 1310.6 32.9736 1315.87 37.657C1321.13 42.3405 1323.77 48.1948 1323.77 55.22C1323.77 62.8307 1321.13 69.1729 1315.87 74.2466C1310.6 79.1253 1303.77 81.5646 1295.38 81.5646ZM1462.16 253.389C1457.67 256.707 1452.11 259.244 1445.48 261C1439.04 262.561 1432.21 263.342 1424.99 263.342C1406.25 263.342 1391.71 258.561 1381.37 248.999C1371.22 239.437 1366.15 225.386 1366.15 206.847V142.157H1341.85V107.031H1366.15V68.685H1411.81V107.031H1451.04V142.157H1411.81V206.262C1411.81 212.897 1413.47 218.068 1416.79 221.776C1420.3 225.289 1425.18 227.045 1431.42 227.045C1438.65 227.045 1444.79 225.093 1449.87 221.191L1462.16 253.389ZM1641.25 103.518L1570.12 270.66C1562.9 288.808 1553.92 301.59 1543.19 309.006C1532.65 316.421 1519.87 320.129 1504.84 320.129C1496.64 320.129 1488.55 318.86 1480.54 316.323C1472.54 313.787 1466.01 310.274 1460.93 305.786L1477.62 273.294C1481.13 276.416 1485.13 278.856 1489.62 280.612C1494.3 282.368 1498.89 283.246 1503.38 283.246C1509.62 283.246 1514.69 281.685 1518.6 278.563C1522.5 275.636 1526.01 270.66 1529.14 263.634L1529.72 262.171L1461.52 103.518H1508.64L1552.85 210.36L1597.34 103.518H1641.25Z"/>
</mask>
<path d="M113.62 264.513C97.4234 264.513 81.7142 262.366 66.493 258.073C51.4668 253.585 39.3679 247.828 30.1961 240.803L46.2955 205.091C55.077 211.531 65.5172 216.702 77.6162 220.605C89.7152 224.508 101.814 226.459 113.913 226.459C127.378 226.459 137.33 224.508 143.77 220.605C150.21 216.507 153.43 211.141 153.43 204.506C153.43 199.627 151.478 195.627 147.576 192.504C143.868 189.187 138.989 186.552 132.94 184.601C127.085 182.649 119.084 180.503 108.937 178.161C93.3253 174.453 80.5434 170.746 70.591 167.038C60.6386 163.33 52.0523 157.378 44.8319 149.182C37.8067 140.986 34.2941 130.058 34.2941 116.398C34.2941 104.494 37.514 93.7611 43.9538 84.199C50.3935 74.4418 60.0532 66.7336 72.9327 61.0744C86.0074 55.4152 101.912 52.5856 120.646 52.5856C133.72 52.5856 146.502 54.1467 158.991 57.2691C171.481 60.3914 182.409 64.8797 191.776 70.734L177.14 106.738C158.211 96.0053 139.282 90.6388 120.353 90.6388C107.083 90.6388 97.2282 92.7854 90.7885 97.0786C84.5438 101.372 81.4215 107.031 81.4215 114.056C81.4215 121.081 85.0317 126.35 92.252 129.863C99.6675 133.18 110.888 136.498 125.914 139.815C141.526 143.523 154.308 147.231 164.26 150.938C174.213 154.646 182.702 160.501 189.727 168.501C196.947 176.502 200.557 187.333 200.557 200.993C200.557 212.702 197.24 223.435 190.605 233.192C184.165 242.754 174.408 250.365 161.333 256.024C148.259 261.683 132.354 264.513 113.62 264.513ZM431.422 101.177C451.131 101.177 466.743 107.031 478.256 118.74C489.965 130.253 495.819 147.621 495.819 170.843V261H450.156V177.868C450.156 165.379 447.521 156.11 442.252 150.06C437.178 143.816 429.861 140.693 420.298 140.693C409.566 140.693 401.077 144.206 394.832 151.231C388.587 158.061 385.465 168.306 385.465 181.966V261H339.801V177.868C339.801 153.085 329.849 140.693 309.944 140.693C299.406 140.693 291.015 144.206 284.771 151.231C278.526 158.061 275.404 168.306 275.404 181.966V261H229.74V103.518H273.355V121.667C279.209 115.032 286.332 109.958 294.723 106.445C303.309 102.933 312.676 101.177 322.824 101.177C333.947 101.177 343.997 103.421 352.974 107.909C361.95 112.202 369.171 118.544 374.635 126.936C381.074 118.74 389.173 112.397 398.93 107.909C408.883 103.421 419.713 101.177 431.422 101.177ZM600.269 101.177C624.662 101.177 643.396 107.031 656.471 118.74C669.545 130.253 676.083 147.719 676.083 171.136V261H633.346V241.388C624.76 256.024 608.758 263.342 585.34 263.342C573.241 263.342 562.704 261.293 553.727 257.195C544.946 253.097 538.213 247.437 533.53 240.217C528.846 232.997 526.504 224.801 526.504 215.629C526.504 200.993 531.968 189.48 542.896 181.088C554.02 172.697 571.095 168.501 594.122 168.501H630.419C630.419 158.549 627.394 150.938 621.345 145.67C615.295 140.206 606.221 137.473 594.122 137.473C585.731 137.473 577.437 138.839 569.241 141.572C561.24 144.108 554.41 147.621 548.751 152.109L532.359 120.203C540.945 114.154 551.19 109.47 563.094 106.153C575.193 102.835 587.585 101.177 600.269 101.177ZM596.756 232.606C604.562 232.606 611.49 230.85 617.539 227.338C623.589 223.63 627.882 218.263 630.419 211.238V195.139H599.098C580.364 195.139 570.997 201.286 570.997 213.58C570.997 219.434 573.241 224.118 577.73 227.63C582.413 230.948 588.755 232.606 596.756 232.606ZM761.025 124.301C766.489 116.691 773.807 110.934 782.979 107.031C792.346 103.128 803.079 101.177 815.178 101.177V143.328C810.104 142.938 806.689 142.742 804.933 142.742C791.858 142.742 781.613 146.45 774.198 153.866C766.782 161.086 763.074 172.014 763.074 186.65V261H717.411V103.518H761.025V124.301ZM949.334 253.389C944.846 256.707 939.284 259.244 932.649 261C926.209 262.561 919.379 263.342 912.159 263.342C893.425 263.342 878.887 258.561 868.544 248.999C858.396 239.437 853.323 225.386 853.323 206.847V142.157H829.027V107.031H853.323V68.685H898.987V107.031H938.211V142.157H898.987V206.262C898.987 212.897 900.645 218.068 903.963 221.776C907.475 225.289 912.354 227.045 918.599 227.045C925.819 227.045 931.966 225.093 937.04 221.191L949.334 253.389ZM1159.15 264.513C1138.27 264.513 1119.34 260.024 1102.36 251.048C1085.58 241.876 1072.31 229.289 1062.55 213.287C1052.99 197.09 1048.21 178.844 1048.21 158.549C1048.21 138.254 1052.99 120.106 1062.55 104.104C1072.31 87.9068 1085.58 75.3199 1102.36 66.3433C1119.34 57.1715 1138.36 52.5856 1159.44 52.5856C1177.2 52.5856 1193.2 55.7079 1207.44 61.9525C1221.88 68.1972 1233.98 77.1738 1243.74 88.8825L1213.3 116.983C1199.44 100.981 1182.27 92.9805 1161.78 92.9805C1149.1 92.9805 1137.78 95.8101 1127.82 101.469C1117.87 106.933 1110.07 114.642 1104.41 124.594C1098.94 134.546 1096.21 145.865 1096.21 158.549C1096.21 171.233 1098.94 182.552 1104.41 192.504C1110.07 202.457 1117.87 210.262 1127.82 215.922C1137.78 221.386 1149.1 224.118 1161.78 224.118C1182.27 224.118 1199.44 216.019 1213.3 199.822L1243.74 227.923C1233.98 239.827 1221.88 248.901 1207.44 255.146C1193 261.39 1176.9 264.513 1159.15 264.513ZM1272.54 103.518H1318.21V261H1272.54V103.518ZM1295.38 81.5646C1286.98 81.5646 1280.15 79.1253 1274.89 74.2466C1269.62 69.368 1266.98 63.3185 1266.98 56.0982C1266.98 48.8778 1269.62 42.8284 1274.89 37.9497C1280.15 33.0711 1286.98 30.6318 1295.38 30.6318C1303.77 30.6318 1310.6 32.9736 1315.87 37.657C1321.13 42.3405 1323.77 48.1948 1323.77 55.22C1323.77 62.8307 1321.13 69.1729 1315.87 74.2466C1310.6 79.1253 1303.77 81.5646 1295.38 81.5646ZM1462.16 253.389C1457.67 256.707 1452.11 259.244 1445.48 261C1439.04 262.561 1432.21 263.342 1424.99 263.342C1406.25 263.342 1391.71 258.561 1381.37 248.999C1371.22 239.437 1366.15 225.386 1366.15 206.847V142.157H1341.85V107.031H1366.15V68.685H1411.81V107.031H1451.04V142.157H1411.81V206.262C1411.81 212.897 1413.47 218.068 1416.79 221.776C1420.3 225.289 1425.18 227.045 1431.42 227.045C1438.65 227.045 1444.79 225.093 1449.87 221.191L1462.16 253.389ZM1641.25 103.518L1570.12 270.66C1562.9 288.808 1553.92 301.59 1543.19 309.006C1532.65 316.421 1519.87 320.129 1504.84 320.129C1496.64 320.129 1488.55 318.86 1480.54 316.323C1472.54 313.787 1466.01 310.274 1460.93 305.786L1477.62 273.294C1481.13 276.416 1485.13 278.856 1489.62 280.612C1494.3 282.368 1498.89 283.246 1503.38 283.246C1509.62 283.246 1514.69 281.685 1518.6 278.563C1522.5 275.636 1526.01 270.66 1529.14 263.634L1529.72 262.171L1461.52 103.518H1508.64L1552.85 210.36L1597.34 103.518H1641.25Z" fill="#381B0E" fill-opacity="0.4" shape-rendering="crispEdges"/>
<path d="M66.493 258.073L65.6343 260.947L65.6564 260.954L65.6786 260.96L66.493 258.073ZM30.1961 240.803L27.4611 239.57L26.4836 241.738L28.3718 243.184L30.1961 240.803ZM46.2955 205.091L48.0696 202.672L45.0828 200.482L43.5606 203.858L46.2955 205.091ZM77.6162 220.605L78.5372 217.75L77.6162 220.605ZM143.77 220.605L145.325 223.171L145.353 223.154L145.381 223.136L143.77 220.605ZM147.576 192.504L145.575 194.74L145.637 194.795L145.701 194.847L147.576 192.504ZM132.94 184.601L131.991 187.447L132.005 187.452L132.019 187.456L132.94 184.601ZM108.937 178.161L108.244 181.08L108.253 181.082L108.262 181.084L108.937 178.161ZM70.591 167.038L71.6383 164.227L70.591 167.038ZM44.8319 149.182L42.5541 151.135L42.5674 151.15L42.5808 151.165L44.8319 149.182ZM43.9538 84.199L46.4421 85.8748L46.4499 85.8632L46.4576 85.8515L43.9538 84.199ZM72.9327 61.0744L71.7411 58.3212L71.7335 58.3245L71.7259 58.3278L72.9327 61.0744ZM158.992 57.2691L159.719 54.3586L158.992 57.2691ZM191.776 70.734L194.555 71.8638L195.505 69.527L193.366 68.19L191.776 70.734ZM177.14 106.738L175.66 109.348L178.632 111.033L179.919 107.868L177.14 106.738ZM90.7885 97.0786L89.1244 94.5824L89.1065 94.5943L89.0889 94.6064L90.7885 97.0786ZM92.2521 129.863L90.9397 132.561L90.983 132.582L91.027 132.601L92.2521 129.863ZM125.914 139.815L126.608 136.896L126.585 136.891L126.561 136.886L125.914 139.815ZM164.26 150.938L165.308 148.127L164.26 150.938ZM189.727 168.501L187.472 170.481L187.486 170.496L187.5 170.511L189.727 168.501ZM190.605 233.192L188.124 231.505L188.117 231.516L190.605 233.192ZM161.333 256.024L160.142 253.271L161.333 256.024ZM113.62 261.513C97.692 261.513 82.2572 259.402 67.3073 255.185L65.6786 260.96C81.1712 265.33 97.1547 267.513 113.62 267.513V261.513ZM67.3516 255.198C52.5579 250.779 40.8198 245.161 32.0203 238.421L28.3718 243.184C37.916 250.495 50.3758 256.39 65.6343 260.947L67.3516 255.198ZM32.931 242.035L49.0304 206.324L43.5606 203.858L27.4611 239.57L32.931 242.035ZM44.5214 207.51C53.6013 214.169 64.3404 219.475 76.6952 223.46L78.5372 217.75C66.6941 213.93 56.5527 208.893 48.0696 202.672L44.5214 207.51ZM76.6952 223.46C89.0766 227.454 101.486 229.459 113.913 229.459V223.459C102.142 223.459 90.3538 221.562 78.5372 217.75L76.6952 223.46ZM113.913 229.459C127.553 229.459 138.176 227.503 145.325 223.171L142.215 218.039C136.485 221.513 127.203 223.459 113.913 223.459V229.459ZM145.381 223.136C152.533 218.585 156.43 212.335 156.43 204.506H150.43C150.43 209.946 147.887 214.429 142.16 218.074L145.381 223.136ZM156.43 204.506C156.43 198.69 154.044 193.837 149.45 190.162L145.701 194.847C148.913 197.416 150.43 200.564 150.43 204.506H156.43ZM149.576 190.269C145.482 186.605 140.203 183.792 133.861 181.746L132.019 187.456C137.776 189.313 142.254 191.768 145.575 194.74L149.576 190.269ZM133.888 181.755C127.904 179.76 119.798 177.589 109.611 175.238L108.262 181.084C118.371 183.417 126.267 185.539 131.991 187.447L133.888 181.755ZM109.63 175.242C94.0847 171.55 81.4326 167.875 71.6383 164.227L69.5437 169.849C79.6542 173.616 92.566 177.356 108.244 181.08L109.63 175.242ZM71.6383 164.227C62.1628 160.697 53.9861 155.035 47.083 147.199L42.5808 151.165C50.1184 159.721 59.1144 165.964 69.5437 169.849L71.6383 164.227ZM47.1097 147.23C40.6637 139.709 37.2941 129.537 37.2941 116.398H31.2941C31.2941 130.579 34.9497 142.263 42.5541 151.135L47.1097 147.23ZM37.2941 116.398C37.2941 105.071 40.3472 94.9248 46.4421 85.8748L41.4655 82.5232C34.6808 92.5974 31.2941 103.918 31.2941 116.398H37.2941ZM46.4576 85.8515C52.5197 76.6665 61.68 69.2956 74.1396 63.8209L71.7259 58.3278C58.4264 64.1715 48.2674 72.2171 41.4499 82.5465L46.4576 85.8515ZM74.1244 63.8275C86.7245 58.3738 102.199 55.5856 120.646 55.5856V49.5856C101.625 49.5856 85.2904 52.4566 71.7411 58.3212L74.1244 63.8275ZM120.646 55.5856C133.479 55.5856 146.016 57.1176 158.264 60.1795L159.719 54.3586C146.988 51.1759 133.962 49.5856 120.646 49.5856V55.5856ZM158.264 60.1795C170.498 63.2379 181.125 67.6152 190.186 73.278L193.366 68.19C183.692 62.1442 172.464 57.5448 159.719 54.3586L158.264 60.1795ZM188.997 69.6043L174.361 105.608L179.919 107.868L194.555 71.8638L188.997 69.6043ZM178.62 104.129C159.308 93.1785 139.874 87.6388 120.353 87.6388V93.6388C138.69 93.6388 157.114 98.832 175.66 109.348L178.62 104.129ZM120.353 87.6388C106.866 87.6388 96.2969 89.8007 89.1244 94.5824L92.4526 99.5747C98.1596 95.77 107.3 93.6388 120.353 93.6388V87.6388ZM89.0889 94.6064C82.1057 99.4073 78.4215 105.955 78.4215 114.056H84.4215C84.4215 108.107 86.9819 103.336 92.4881 99.5507L89.0889 94.6064ZM78.4215 114.056C78.4215 118.111 79.4731 121.789 81.6544 124.972C83.8199 128.133 86.9802 130.634 90.9397 132.561L93.5644 127.165C90.3036 125.579 88.0486 123.689 86.604 121.581C85.175 119.496 84.4215 117.027 84.4215 114.056H78.4215ZM91.027 132.601C98.726 136.046 110.186 139.415 125.268 142.745L126.561 136.886C111.591 133.581 100.609 130.315 93.4771 127.124L91.027 132.601ZM125.221 142.734C140.767 146.426 153.419 150.101 163.213 153.75L165.308 148.127C155.197 144.361 142.285 140.62 126.608 136.896L125.221 142.734ZM163.213 153.75C172.699 157.284 180.774 162.852 187.472 170.481L191.981 166.522C184.629 158.149 175.726 152.009 165.308 148.127L163.213 153.75ZM187.5 170.511C194.1 177.825 197.557 187.87 197.557 200.993H203.557C203.557 186.796 199.794 175.179 191.954 166.492L187.5 170.511ZM197.557 200.993C197.557 212.095 194.424 222.241 188.124 231.505L193.086 234.879C200.056 224.628 203.557 213.308 203.557 200.993H197.557ZM188.117 231.516C182.065 240.501 172.814 247.785 160.142 253.271L162.525 258.777C176.002 252.944 186.265 245.007 193.093 234.868L188.117 231.516ZM160.142 253.271C147.541 258.724 132.067 261.513 113.62 261.513V267.513C132.641 267.513 148.976 264.642 162.525 258.777L160.142 253.271ZM478.256 118.74L476.117 120.843L476.135 120.861L476.153 120.879L478.256 118.74ZM495.819 261V264H498.819V261H495.819ZM450.156 261H447.156V264H450.156V261ZM442.252 150.06L439.924 151.952L439.956 151.992L439.99 152.031L442.252 150.06ZM394.832 151.231L397.046 153.255L397.06 153.24L397.074 153.224L394.832 151.231ZM385.465 261V264H388.465V261H385.465ZM339.801 261H336.801V264H339.801V261ZM284.771 151.231L286.985 153.255L286.999 153.24L287.013 153.224L284.771 151.231ZM275.404 261V264H278.404V261H275.404ZM229.74 261H226.74V264H229.74V261ZM229.74 103.518V100.518H226.74V103.518H229.74ZM273.355 103.518H276.355V100.518H273.355V103.518ZM273.355 121.667H270.355V129.601L275.604 123.652L273.355 121.667ZM294.723 106.446L293.587 103.669L293.576 103.673L293.565 103.678L294.723 106.446ZM352.974 107.909L351.632 110.592L351.655 110.604L351.679 110.615L352.974 107.909ZM374.635 126.936L372.121 128.573L374.406 132.082L376.994 128.789L374.635 126.936ZM398.93 107.909L397.697 105.174L397.687 105.179L397.676 105.184L398.93 107.909ZM431.422 104.177C450.5 104.177 465.278 109.82 476.117 120.843L480.395 116.636C468.207 104.241 451.763 98.1766 431.422 98.1766V104.177ZM476.153 120.879C487.085 131.629 492.819 148.088 492.819 170.843H498.819C498.819 147.154 492.845 128.877 480.36 116.601L476.153 120.879ZM492.819 170.843V261H498.819V170.843H492.819ZM495.819 258H450.156V264H495.819V258ZM453.156 261V177.868H447.156V261H453.156ZM453.156 177.868C453.156 165.04 450.462 154.919 444.514 148.09L439.99 152.031C444.58 157.301 447.156 165.719 447.156 177.868H453.156ZM444.581 148.169C438.828 141.088 430.575 137.693 420.298 137.693V143.693C429.146 143.693 435.529 146.543 439.924 151.952L444.581 148.169ZM420.298 137.693C408.843 137.693 399.488 141.478 392.59 149.238L397.074 153.224C402.666 146.934 410.288 143.693 420.298 143.693V137.693ZM392.618 149.207C385.673 156.803 382.465 167.907 382.465 181.966H388.465C388.465 168.705 391.502 159.319 397.046 153.255L392.618 149.207ZM382.465 181.966V261H388.465V181.966H382.465ZM385.465 258H339.801V264H385.465V258ZM342.801 261V177.868H336.801V261H342.801ZM342.801 177.868C342.801 165.154 340.261 155.063 334.676 148.109C328.99 141.029 320.555 137.693 309.944 137.693V143.693C319.239 143.693 325.732 146.554 329.998 151.866C334.365 157.303 336.801 165.799 336.801 177.868H342.801ZM309.944 137.693C298.665 137.693 289.415 141.491 282.528 149.238L287.013 153.224C292.616 146.921 300.148 143.693 309.944 143.693V137.693ZM282.556 149.207C275.611 156.803 272.404 167.907 272.404 181.966H278.404C278.404 168.705 281.44 159.319 286.985 153.255L282.556 149.207ZM272.404 181.966V261H278.404V181.966H272.404ZM275.404 258H229.74V264H275.404V258ZM232.74 261V103.518H226.74V261H232.74ZM229.74 106.518H273.355V100.518H229.74V106.518ZM270.355 103.518V121.667H276.355V103.518H270.355ZM275.604 123.652C281.15 117.366 287.896 112.555 295.881 109.213L293.565 103.678C284.767 107.361 277.268 112.697 271.105 119.682L275.604 123.652ZM295.859 109.222C304.052 105.87 313.029 104.177 322.824 104.177V98.1766C312.323 98.1766 302.566 99.9955 293.587 103.669L295.859 109.222ZM322.824 104.177C333.532 104.177 343.115 106.334 351.632 110.592L354.315 105.226C344.879 100.507 334.362 98.1766 322.824 98.1766V104.177ZM351.679 110.615C360.156 114.669 366.955 120.64 372.121 128.573L377.149 125.299C371.386 116.449 363.745 109.735 354.268 105.203L351.679 110.615ZM376.994 128.789C383.13 120.979 390.845 114.93 400.184 110.635L397.676 105.184C387.5 109.865 379.019 116.5 372.276 125.082L376.994 128.789ZM400.163 110.644C409.701 106.343 420.107 104.177 431.422 104.177V98.1766C419.319 98.1766 408.064 100.499 397.697 105.174L400.163 110.644ZM656.471 118.74L654.469 120.974L654.479 120.983L654.488 120.991L656.471 118.74ZM676.083 261V264H679.083V261H676.083ZM633.346 261H630.346V264H633.346V261ZM633.346 241.388H636.346V230.346L630.758 239.87L633.346 241.388ZM553.727 257.195L552.458 259.913L552.47 259.919L552.481 259.924L553.727 257.195ZM533.53 240.217L536.046 238.585L533.53 240.217ZM542.896 181.088L541.09 178.693L541.08 178.701L541.069 178.709L542.896 181.088ZM630.419 168.501V171.501H633.419V168.501H630.419ZM621.345 145.67L619.334 147.896L619.354 147.914L619.374 147.932L621.345 145.67ZM569.241 141.572L570.148 144.431L570.169 144.425L570.19 144.418L569.241 141.572ZM548.751 152.109L546.082 153.48L547.752 156.73L550.615 154.46L548.751 152.109ZM532.359 120.203L530.631 117.751L528.498 119.253L529.69 121.574L532.359 120.203ZM563.094 106.153L562.301 103.26L562.289 103.263L563.094 106.153ZM617.539 227.338L619.046 229.932L619.077 229.914L619.107 229.895L617.539 227.338ZM630.419 211.238L633.24 212.257L633.419 211.763V211.238H630.419ZM630.419 195.139H633.419V192.139H630.419V195.139ZM577.73 227.63L575.881 229.993L575.937 230.037L575.996 230.078L577.73 227.63ZM600.269 104.177C624.212 104.177 642.127 109.922 654.469 120.974L658.472 116.505C644.665 104.14 625.112 98.1766 600.269 98.1766V104.177ZM654.488 120.991C666.714 131.757 673.083 148.268 673.083 171.136H679.083C679.083 147.169 672.377 128.749 658.453 116.488L654.488 120.991ZM673.083 171.136V261H679.083V171.136H673.083ZM676.083 258H633.346V264H676.083V258ZM636.346 261V241.388H630.346V261H636.346ZM630.758 239.87C622.906 253.255 608.147 260.342 585.34 260.342V266.342C609.369 266.342 626.613 258.793 635.934 242.906L630.758 239.87ZM585.34 260.342C573.576 260.342 563.48 258.349 554.973 254.466L552.481 259.924C561.927 264.236 572.907 266.342 585.34 266.342V260.342ZM554.996 254.476C546.658 250.585 540.386 245.275 536.046 238.585L531.013 241.85C536.04 249.599 543.233 255.608 552.458 259.913L554.996 254.476ZM536.046 238.585C531.699 231.883 529.504 224.261 529.504 215.629H523.504C523.504 225.34 525.993 234.111 531.013 241.85L536.046 238.585ZM529.504 215.629C529.504 201.858 534.587 191.251 544.724 183.468L541.069 178.709C529.35 187.708 523.504 200.128 523.504 215.629H529.504ZM544.703 183.483C555.063 175.668 571.358 171.501 594.122 171.501V165.501C570.832 165.501 552.976 169.726 541.09 178.693L544.703 183.483ZM594.122 171.501H630.419V165.501H594.122V171.501ZM633.419 168.501C633.419 157.908 630.172 149.379 623.315 143.407L619.374 147.932C624.617 152.498 627.419 159.191 627.419 168.501H633.419ZM623.355 143.443C616.54 137.287 606.612 134.473 594.122 134.473V140.473C605.83 140.473 614.05 143.124 619.334 147.896L623.355 143.443ZM594.122 134.473C585.399 134.473 576.785 135.895 568.292 138.725L570.19 144.418C578.089 141.784 586.063 140.473 594.122 140.473V134.473ZM568.334 138.712C560.041 141.341 552.874 145.011 546.887 149.759L550.615 154.46C555.946 150.231 562.439 146.875 570.148 144.431L568.334 138.712ZM551.419 150.738L535.027 118.832L529.69 121.574L546.082 153.48L551.419 150.738ZM534.087 122.656C542.348 116.835 552.269 112.284 563.899 109.043L562.289 103.263C550.112 106.657 539.542 111.472 530.631 117.751L534.087 122.656ZM563.887 109.046C575.725 105.8 587.85 104.177 600.269 104.177V98.1766C587.32 98.1766 574.661 99.8704 562.301 103.26L563.887 109.046ZM596.756 235.606C605.029 235.606 612.487 233.74 619.046 229.932L616.033 224.743C610.492 227.96 604.096 229.606 596.756 229.606V235.606ZM619.107 229.895C625.769 225.812 630.485 219.886 633.24 212.257L627.597 210.219C625.278 216.64 621.408 221.447 615.972 224.78L619.107 229.895ZM633.419 211.238V195.139H627.419V211.238H633.419ZM630.419 192.139H599.098V198.139H630.419V192.139ZM599.098 192.139C589.499 192.139 581.778 193.696 576.377 197.241C570.755 200.93 567.997 206.539 567.997 213.58H573.997C573.997 208.327 575.923 204.715 579.669 202.257C583.634 199.655 589.964 198.139 599.098 198.139V192.139ZM567.997 213.58C567.997 220.328 570.643 225.894 575.881 229.993L579.579 225.268C575.84 222.342 573.997 218.541 573.997 213.58H567.997ZM575.996 230.078C581.351 233.871 588.372 235.606 596.756 235.606V229.606C589.139 229.606 583.476 228.024 579.464 225.182L575.996 230.078ZM761.025 124.301H758.025V133.624L763.462 126.051L761.025 124.301ZM782.979 107.031L781.825 104.262L781.815 104.266L781.805 104.27L782.979 107.031ZM815.178 101.177H818.178V98.1766H815.178V101.177ZM815.178 143.328L814.948 146.319L818.178 146.567V143.328H815.178ZM774.198 153.866L776.291 156.015L776.305 156.001L776.319 155.987L774.198 153.866ZM763.074 261V264H766.074V261H763.074ZM717.411 261H714.411V264H717.411V261ZM717.411 103.518V100.518H714.411V103.518H717.411ZM761.025 103.518H764.025V100.518H761.025V103.518ZM763.462 126.051C768.586 118.915 775.454 113.494 784.154 109.791L781.805 104.27C772.161 108.374 764.393 114.466 758.589 122.552L763.462 126.051ZM784.133 109.8C793.071 106.076 803.401 104.177 815.178 104.177V98.1766C802.758 98.1766 791.621 100.18 781.825 104.262L784.133 109.8ZM812.178 101.177V143.328H818.178V101.177H812.178ZM815.408 140.337C810.351 139.948 806.823 139.742 804.933 139.742V145.742C806.556 145.742 809.858 145.927 814.948 146.319L815.408 140.337ZM804.933 139.742C791.27 139.742 780.186 143.635 772.076 151.744L776.319 155.987C783.04 149.266 792.446 145.742 804.933 145.742V139.742ZM772.105 151.716C763.904 159.701 760.074 171.545 760.074 186.65H766.074C766.074 172.483 769.66 162.471 776.291 156.015L772.105 151.716ZM760.074 186.65V261H766.074V186.65H760.074ZM763.074 258H717.411V264H763.074V258ZM720.411 261V103.518H714.411V261H720.411ZM717.411 106.518H761.025V100.518H717.411V106.518ZM758.025 103.518V124.301H764.025V103.518H758.025ZM949.334 253.389L951.117 255.802L952.949 254.448L952.137 252.319L949.334 253.389ZM932.649 261L933.356 263.916L933.386 263.908L933.417 263.9L932.649 261ZM868.544 248.999L866.487 251.182L866.497 251.192L866.507 251.201L868.544 248.999ZM853.323 142.157H856.323V139.157H853.323V142.157ZM829.027 142.157H826.027V145.157H829.027V142.157ZM829.027 107.031V104.031H826.027V107.031H829.027ZM853.323 107.031V110.031H856.323V107.031H853.323ZM853.323 68.685V65.685H850.323V68.685H853.323ZM898.987 68.685H901.987V65.685H898.987V68.685ZM898.987 107.031H895.987V110.031H898.987V107.031ZM938.211 107.031H941.211V104.031H938.211V107.031ZM938.211 142.157V145.157H941.211V142.157H938.211ZM898.987 142.157V139.157H895.987V142.157H898.987ZM903.963 221.776L901.727 223.776L901.783 223.838L901.841 223.897L903.963 221.776ZM937.04 221.191L939.842 220.12L938.405 216.355L935.211 218.813L937.04 221.191ZM947.551 250.977C943.428 254.024 938.232 256.419 931.881 258.1L933.417 263.9C940.336 262.068 946.263 259.39 951.117 255.802L947.551 250.977ZM931.942 258.084C925.753 259.585 919.162 260.342 912.159 260.342V266.342C919.596 266.342 926.665 265.538 933.356 263.916L931.942 258.084ZM912.159 260.342C893.925 260.342 880.207 255.695 870.581 246.796L866.507 251.201C877.567 261.426 892.925 266.342 912.159 266.342V260.342ZM870.601 246.815C861.235 237.989 856.323 224.844 856.323 206.847H850.323C850.323 225.928 855.558 240.884 866.487 251.182L870.601 246.815ZM856.323 206.847V142.157H850.323V206.847H856.323ZM853.323 139.157H829.027V145.157H853.323V139.157ZM832.027 142.157V107.031H826.027V142.157H832.027ZM829.027 110.031H853.323V104.031H829.027V110.031ZM856.323 107.031V68.685H850.323V107.031H856.323ZM853.323 71.685H898.987V65.685H853.323V71.685ZM895.987 68.685V107.031H901.987V68.685H895.987ZM898.987 110.031H938.211V104.031H898.987V110.031ZM935.211 107.031V142.157H941.211V107.031H935.211ZM938.211 139.157H898.987V145.157H938.211V139.157ZM895.987 142.157V206.262H901.987V142.157H895.987ZM895.987 206.262C895.987 213.385 897.773 219.357 901.727 223.776L906.198 219.776C903.518 216.779 901.987 212.409 901.987 206.262H895.987ZM901.841 223.897C906.053 228.109 911.774 230.045 918.599 230.045V224.045C912.934 224.045 908.898 222.469 906.084 219.655L901.841 223.897ZM918.599 230.045C926.392 230.045 933.204 227.926 938.869 223.568L935.211 218.813C930.728 222.261 925.246 224.045 918.599 224.045V230.045ZM934.237 222.261L946.531 254.459L952.137 252.319L939.842 220.12L934.237 222.261ZM1102.36 251.048L1100.92 253.68L1100.94 253.69L1100.96 253.7L1102.36 251.048ZM1062.55 213.287L1059.97 214.812L1059.98 214.831L1059.99 214.849L1062.55 213.287ZM1062.55 104.104L1059.98 102.556L1059.97 102.565L1062.55 104.104ZM1102.36 66.3433L1103.77 68.9887L1103.78 68.9827L1102.36 66.3433ZM1207.44 61.9525L1206.24 64.7001L1206.25 64.7031L1206.25 64.7061L1207.44 61.9525ZM1243.74 88.8825L1245.78 91.0869L1247.87 89.1527L1246.05 86.9619L1243.74 88.8825ZM1213.3 116.983L1211.03 118.947L1213.06 121.288L1215.33 119.188L1213.3 116.983ZM1127.82 101.469L1129.27 104.099L1129.29 104.088L1129.31 104.077L1127.82 101.469ZM1104.41 124.594L1101.8 123.111L1101.79 123.131L1101.78 123.15L1104.41 124.594ZM1104.41 192.504L1101.78 193.948L1101.79 193.968L1101.8 193.987L1104.41 192.504ZM1127.82 215.922L1126.34 218.529L1126.36 218.541L1126.38 218.551L1127.82 215.922ZM1213.3 199.822L1215.33 197.618L1213.04 195.505L1211.02 197.872L1213.3 199.822ZM1243.74 227.923L1246.06 229.825L1247.85 227.637L1245.78 225.719L1243.74 227.923ZM1207.44 255.146L1206.25 252.392L1207.44 255.146ZM1159.15 261.513C1138.71 261.513 1120.27 257.124 1103.76 248.396L1100.96 253.7C1118.4 262.924 1137.82 267.513 1159.15 267.513V261.513ZM1103.8 248.415C1087.47 239.49 1074.59 227.268 1065.11 211.725L1059.99 214.849C1070.02 231.31 1083.69 244.261 1100.92 253.68L1103.8 248.415ZM1065.13 211.762C1055.86 196.063 1051.21 178.352 1051.21 158.549H1045.21C1045.21 179.337 1050.11 198.117 1059.97 214.812L1065.13 211.762ZM1051.21 158.549C1051.21 138.746 1055.86 121.138 1065.12 105.643L1059.97 102.565C1050.11 119.073 1045.21 137.762 1045.21 158.549H1051.21ZM1065.12 105.652C1074.6 89.9211 1087.46 77.712 1103.77 68.9886L1100.94 63.6979C1083.69 72.9278 1070.02 85.8924 1059.98 102.556L1065.12 105.652ZM1103.78 68.9827C1120.28 60.069 1138.81 55.5856 1159.44 55.5856V49.5856C1137.91 49.5856 1118.39 54.274 1100.93 63.7038L1103.78 68.9827ZM1159.44 55.5856C1176.84 55.5856 1192.42 58.644 1206.24 64.7001L1208.65 59.2049C1193.97 52.7719 1177.55 49.5856 1159.44 49.5856V55.5856ZM1206.25 64.7061C1220.28 70.7704 1231.99 79.4673 1241.44 90.803L1246.05 86.9619C1235.98 74.8803 1223.49 65.6239 1208.63 59.199L1206.25 64.7061ZM1241.71 86.6781L1211.26 114.779L1215.33 119.188L1245.78 91.0869L1241.71 86.6781ZM1215.57 115.02C1201.16 98.3845 1183.17 89.9805 1161.78 89.9805V95.9805C1181.37 95.9805 1197.72 103.578 1211.03 118.947L1215.57 115.02ZM1161.78 89.9805C1148.63 89.9805 1136.79 92.9183 1126.34 98.8614L1129.31 104.077C1138.76 98.702 1149.56 95.9805 1161.78 95.9805V89.9805ZM1126.38 98.8396C1115.94 104.573 1107.73 112.68 1101.8 123.111L1107.02 126.077C1112.4 116.603 1119.81 109.294 1129.27 104.099L1126.38 98.8396ZM1101.78 123.15C1096.04 133.595 1093.21 145.42 1093.21 158.549H1099.21C1099.21 146.309 1101.84 135.498 1107.04 126.038L1101.78 123.15ZM1093.21 158.549C1093.21 171.678 1096.04 183.503 1101.78 193.948L1107.04 191.06C1101.84 181.601 1099.21 170.789 1099.21 158.549H1093.21ZM1101.8 193.987C1107.73 204.409 1115.92 212.603 1126.34 218.529L1129.31 213.314C1119.82 207.921 1112.41 200.504 1107.02 191.021L1101.8 193.987ZM1126.38 218.551C1136.83 224.286 1148.65 227.118 1161.78 227.118V221.118C1149.54 221.118 1138.73 218.486 1129.27 213.292L1126.38 218.551ZM1161.78 227.118C1183.19 227.118 1201.18 218.605 1215.58 201.772L1211.02 197.872C1197.71 213.433 1181.35 221.118 1161.78 221.118V227.118ZM1211.26 202.027L1241.71 230.127L1245.78 225.719L1215.33 197.618L1211.26 202.027ZM1241.42 226.021C1231.97 237.547 1220.26 246.333 1206.25 252.392L1208.63 257.899C1223.5 251.469 1235.99 242.107 1246.06 229.825L1241.42 226.021ZM1206.25 252.392C1192.23 258.454 1176.55 261.513 1159.15 261.513V267.513C1177.26 267.513 1193.77 264.326 1208.63 257.899L1206.25 252.392ZM1272.54 103.518V100.518H1269.54V103.518H1272.54ZM1318.21 103.518H1321.21V100.518H1318.21V103.518ZM1318.21 261V264H1321.21V261H1318.21ZM1272.54 261H1269.54V264H1272.54V261ZM1274.89 74.2466L1272.85 76.4479L1274.89 74.2466ZM1274.89 37.9497L1276.92 40.151V40.151L1274.89 37.9497ZM1315.87 37.657L1313.87 39.8993V39.8993L1315.87 37.657ZM1315.87 74.2466L1317.9 76.4479L1317.93 76.428L1317.95 76.4076L1315.87 74.2466ZM1272.54 106.518H1318.21V100.518H1272.54V106.518ZM1315.21 103.518V261H1321.21V103.518H1315.21ZM1318.21 258H1272.54V264H1318.21V258ZM1275.54 261V103.518H1269.54V261H1275.54ZM1295.38 78.5646C1287.6 78.5646 1281.55 76.3251 1276.92 72.0454L1272.85 76.4479C1278.76 81.9254 1286.36 84.5646 1295.38 84.5646V78.5646ZM1276.92 72.0454C1272.27 67.7381 1269.98 62.4881 1269.98 56.0982H1263.98C1263.98 64.149 1266.96 70.998 1272.85 76.4479L1276.92 72.0454ZM1269.98 56.0982C1269.98 49.7083 1272.27 44.4583 1276.92 40.151L1272.85 35.7485C1266.96 41.1984 1263.98 48.0474 1263.98 56.0982H1269.98ZM1276.92 40.151C1281.55 35.8713 1287.6 33.6318 1295.38 33.6318V27.6318C1286.36 27.6318 1278.76 30.271 1272.85 35.7485L1276.92 40.151ZM1295.38 33.6318C1303.18 33.6318 1309.25 35.7937 1313.87 39.8993L1317.86 35.4148C1311.94 30.1534 1304.35 27.6318 1295.38 27.6318V33.6318ZM1313.87 39.8993C1318.5 44.0157 1320.77 49.0552 1320.77 55.22H1326.77C1326.77 47.3345 1323.77 40.6653 1317.86 35.4148L1313.87 39.8993ZM1320.77 55.22C1320.77 62.0524 1318.44 67.6026 1313.78 72.0857L1317.95 76.4076C1323.83 70.7431 1326.77 63.6089 1326.77 55.22H1320.77ZM1313.83 72.0454C1309.21 76.3251 1303.15 78.5646 1295.38 78.5646V84.5646C1304.39 84.5646 1311.99 81.9254 1317.9 76.4479L1313.83 72.0454ZM1462.16 253.389L1463.94 255.802L1465.78 254.448L1464.96 252.319L1462.16 253.389ZM1445.48 261L1446.18 263.916L1446.21 263.908L1446.24 263.9L1445.48 261ZM1381.37 248.999L1379.31 251.182L1379.32 251.192L1379.33 251.201L1381.37 248.999ZM1366.15 142.157H1369.15V139.157H1366.15V142.157ZM1341.85 142.157H1338.85V145.157H1341.85V142.157ZM1341.85 107.031V104.031H1338.85V107.031H1341.85ZM1366.15 107.031V110.031H1369.15V107.031H1366.15ZM1366.15 68.685V65.685H1363.15V68.685H1366.15ZM1411.81 68.685H1414.81V65.685H1411.81V68.685ZM1411.81 107.031H1408.81V110.031H1411.81V107.031ZM1451.04 107.031H1454.04V104.031H1451.04V107.031ZM1451.04 142.157V145.157H1454.04V142.157H1451.04ZM1411.81 142.157V139.157H1408.81V142.157H1411.81ZM1416.79 221.776L1414.55 223.776L1414.61 223.838L1414.67 223.897L1416.79 221.776ZM1449.87 221.191L1452.67 220.12L1451.23 216.355L1448.04 218.813L1449.87 221.191ZM1460.38 250.977C1456.25 254.024 1451.06 256.419 1444.71 258.1L1446.24 263.9C1453.16 262.068 1459.09 259.39 1463.94 255.802L1460.38 250.977ZM1444.77 258.084C1438.58 259.585 1431.99 260.342 1424.99 260.342V266.342C1432.42 266.342 1439.49 265.538 1446.18 263.916L1444.77 258.084ZM1424.99 260.342C1406.75 260.342 1393.03 255.695 1383.41 246.796L1379.33 251.201C1390.39 261.426 1405.75 266.342 1424.99 266.342V260.342ZM1383.43 246.815C1374.06 237.989 1369.15 224.844 1369.15 206.847H1363.15C1363.15 225.928 1368.38 240.884 1379.31 251.182L1383.43 246.815ZM1369.15 206.847V142.157H1363.15V206.847H1369.15ZM1366.15 139.157H1341.85V145.157H1366.15V139.157ZM1344.85 142.157V107.031H1338.85V142.157H1344.85ZM1341.85 110.031H1366.15V104.031H1341.85V110.031ZM1369.15 107.031V68.685H1363.15V107.031H1369.15ZM1366.15 71.685H1411.81V65.685H1366.15V71.685ZM1408.81 68.685V107.031H1414.81V68.685H1408.81ZM1411.81 110.031H1451.04V104.031H1411.81V110.031ZM1448.04 107.031V142.157H1454.04V107.031H1448.04ZM1451.04 139.157H1411.81V145.157H1451.04V139.157ZM1408.81 142.157V206.262H1414.81V142.157H1408.81ZM1408.81 206.262C1408.81 213.385 1410.6 219.357 1414.55 223.776L1419.02 219.776C1416.34 216.779 1414.81 212.409 1414.81 206.262H1408.81ZM1414.67 223.897C1418.88 228.109 1424.6 230.045 1431.42 230.045V224.045C1425.76 224.045 1421.72 222.469 1418.91 219.655L1414.67 223.897ZM1431.42 230.045C1439.22 230.045 1446.03 227.926 1451.7 223.568L1448.04 218.813C1443.55 222.261 1438.07 224.045 1431.42 224.045V230.045ZM1447.06 222.261L1459.36 254.459L1464.96 252.319L1452.67 220.12L1447.06 222.261ZM1641.25 103.518L1644.01 104.693L1645.78 100.518H1641.25V103.518ZM1570.12 270.66L1567.36 269.485L1567.34 269.518L1567.33 269.551L1570.12 270.66ZM1543.19 309.006L1541.48 306.537L1541.47 306.545L1541.46 306.552L1543.19 309.006ZM1480.54 316.323L1481.45 313.464L1480.54 316.323ZM1460.93 305.786L1458.26 304.415L1457.2 306.488L1458.94 308.033L1460.93 305.786ZM1477.62 273.294L1479.61 271.052L1476.72 268.48L1474.95 271.924L1477.62 273.294ZM1489.62 280.612L1488.53 283.406L1488.55 283.414L1488.56 283.421L1489.62 280.612ZM1518.6 278.563L1516.8 276.163L1516.76 276.191L1516.72 276.22L1518.6 278.563ZM1529.14 263.634L1531.88 264.853L1531.9 264.801L1531.92 264.749L1529.14 263.634ZM1529.72 262.171L1532.51 263.285L1532.97 262.129L1532.48 260.986L1529.72 262.171ZM1461.52 103.518V100.518H1456.96L1458.76 104.703L1461.52 103.518ZM1508.64 103.518L1511.42 102.371L1510.65 100.518H1508.64V103.518ZM1552.85 210.36L1550.07 211.507L1552.84 218.186L1555.61 211.513L1552.85 210.36ZM1597.34 103.518V100.518H1595.34L1594.57 102.365L1597.34 103.518ZM1638.49 102.344L1567.36 269.485L1572.88 271.834L1644.01 104.693L1638.49 102.344ZM1567.33 269.551C1560.22 287.406 1551.54 299.587 1541.48 306.537L1544.89 311.474C1556.3 303.593 1565.57 290.21 1572.9 271.769L1567.33 269.551ZM1541.46 306.552C1531.51 313.556 1519.35 317.129 1504.84 317.129V323.129C1520.38 323.129 1533.79 319.287 1544.91 311.459L1541.46 306.552ZM1504.84 317.129C1496.96 317.129 1489.17 315.91 1481.45 313.464L1479.64 319.183C1487.92 321.811 1496.33 323.129 1504.84 323.129V317.129ZM1481.45 313.464C1473.76 311.024 1467.61 307.692 1462.92 303.539L1458.94 308.033C1464.4 312.856 1471.33 316.549 1479.64 319.183L1481.45 313.464ZM1463.6 307.156L1480.29 274.665L1474.95 271.924L1458.26 304.415L1463.6 307.156ZM1475.62 275.536C1479.41 278.9 1483.72 281.524 1488.53 283.406L1490.71 277.818C1486.54 276.188 1482.85 273.933 1479.61 271.052L1475.62 275.536ZM1488.56 283.421C1493.55 285.289 1498.49 286.246 1503.38 286.246V280.246C1499.29 280.246 1495.06 279.447 1490.67 277.803L1488.56 283.421ZM1503.38 286.246C1510.13 286.246 1515.92 284.551 1520.47 280.906L1516.72 276.22C1513.47 278.82 1509.11 280.246 1503.38 280.246V286.246ZM1520.4 280.963C1524.88 277.601 1528.65 272.102 1531.88 264.853L1526.39 262.416C1523.37 269.217 1520.12 273.671 1516.8 276.163L1520.4 280.963ZM1531.92 264.749L1532.51 263.285L1526.94 261.057L1526.35 262.52L1531.92 264.749ZM1532.48 260.986L1464.27 102.333L1458.76 104.703L1526.96 263.356L1532.48 260.986ZM1461.52 106.518H1508.64V100.518H1461.52V106.518ZM1505.87 104.665L1550.07 211.507L1555.62 209.213L1511.42 102.371L1505.87 104.665ZM1555.61 211.513L1600.11 104.672L1594.57 102.365L1550.08 209.207L1555.61 211.513ZM1597.34 106.518H1641.25V100.518H1597.34V106.518Z" fill="#EEEEEE" mask="url(#path-1-outside-1_1711_34499)"/>
</g>
<defs>
<filter id="filter0_d_1711_34499" x="0.196289" y="0.631805" width="1671.05" height="349.497" filterUnits="userSpaceOnUse" color-interpolation-filters="sRGB">
<feFlood flood-opacity="0" result="BackgroundImageFix"/>
<feColorMatrix in="SourceAlpha" type="matrix" values="0 0 0 0 0 0 0 0 0 0 0 0 0 0 0 0 0 0 127 0" result="hardAlpha"/>
<feOffset/>
<feGaussianBlur stdDeviation="15"/>
<feComposite in2="hardAlpha" operator="out"/>
<feColorMatrix type="matrix" values="0 0 0 0 1 0 0 0 0 0.44724 0 0 0 0 0.0541667 0 0 0 1 0"/>
<feBlend mode="normal" in2="BackgroundImageFix" result="effect1_dropShadow_1711_34499"/>
<feBlend mode="normal" in="SourceGraphic" in2="effect1_dropShadow_1711_34499" result="shape"/>
</filter>
</defs>
</svg>
