<svg width="62" height="62" viewBox="0 0 62 62" fill="none" xmlns="http://www.w3.org/2000/svg">
<path d="M22.604 43.9158V40.6866" stroke="#339FD9" stroke-width="2.59996" stroke-linecap="round" stroke-linejoin="round"/>
<path d="M29.7083 20.6665V20.0207C29.7083 16.0971 26.5277 12.9165 22.6042 12.9165V12.9165C18.6806 12.9165 15.5 16.0971 15.5 20.0207V41.979C15.5 45.9025 18.6806 49.0832 22.6042 49.0832V49.0832C26.5277 49.0832 29.7083 45.9025 29.7083 41.979V30.9998" stroke="#2B5783" stroke-width="2.59996" stroke-linecap="round" stroke-linejoin="round"/>
<path d="M22.6045 40.6875C23.6745 40.6875 24.542 39.8201 24.542 38.75C24.542 37.6799 23.6745 36.8125 22.6045 36.8125C21.5344 36.8125 20.667 37.6799 20.667 38.75C20.667 39.8201 21.5344 40.6875 22.6045 40.6875Z" stroke="#339FD9" stroke-width="2.59996" stroke-linecap="round" stroke-linejoin="round"/>
<path d="M49.7291 20.666H24.1955C22.4121 20.666 20.9663 22.1118 20.9663 23.8952C20.9663 25.6786 22.4121 27.1243 24.1955 27.1243H49.7291C51.5126 27.1243 52.9583 25.6786 52.9583 23.8952C52.9583 22.1118 51.5126 20.666 49.7291 20.666Z" stroke="#339FD9" stroke-width="2.59996" stroke-linecap="round" stroke-linejoin="round"/>
</svg>
