<svg width="62" height="62" viewBox="0 0 62 62" fill="none" xmlns="http://www.w3.org/2000/svg">
<path d="M25.8339 25.8328H23.2495" stroke="#339FD9" stroke-width="2.63859" stroke-linecap="round" stroke-linejoin="round"/>
<path d="M38.7511 25.8328H36.1667" stroke="#339FD9" stroke-width="2.63859" stroke-linecap="round" stroke-linejoin="round"/>
<path d="M25.8339 29.7084H23.2495" stroke="#339FD9" stroke-width="2.63859" stroke-linecap="round" stroke-linejoin="round"/>
<path d="M38.7511 29.7084H36.1667" stroke="#339FD9" stroke-width="2.63859" stroke-linecap="round" stroke-linejoin="round"/>
<path d="M25.8339 33.5839H23.2495" stroke="#339FD9" stroke-width="2.63859" stroke-linecap="round" stroke-linejoin="round"/>
<path d="M38.7511 33.5839H36.1667" stroke="#339FD9" stroke-width="2.63859" stroke-linecap="round" stroke-linejoin="round"/>
<path d="M19.6848 7.74963V13.8463" stroke="#339FD9" stroke-width="2.63859" stroke-linecap="round" stroke-linejoin="round"/>
<path d="M42.2634 7.74963V13.8463" stroke="#339FD9" stroke-width="2.63859" stroke-linecap="round" stroke-linejoin="round"/>
<path d="M23.9475 8.58972V12.9297" stroke="#339FD9" stroke-width="2.63859" stroke-linecap="round" stroke-linejoin="round"/>
<path d="M38.3108 8.58972V12.9297" stroke="#339FD9" stroke-width="2.63859" stroke-linecap="round" stroke-linejoin="round"/>
<path d="M27.5903 9.27454V12.3229" stroke="#339FD9" stroke-width="2.63859" stroke-linecap="round" stroke-linejoin="round"/>
<path d="M34.5649 9.27454V12.3229" stroke="#339FD9" stroke-width="2.63859" stroke-linecap="round" stroke-linejoin="round"/>
<path d="M31.0259 8.58972V12.9297" stroke="#339FD9" stroke-width="2.63859" stroke-linecap="round" stroke-linejoin="round"/>
<path d="M30.8321 16.5981H30.8192C26.111 16.5981 22.2942 20.4149 22.2942 25.1231V33.9711C22.2942 38.6793 26.111 42.4961 30.8192 42.4961H30.8321C35.5403 42.4961 39.3571 38.6793 39.3571 33.9711V25.1231C39.3571 20.4149 35.5403 16.5981 30.8321 16.5981Z" stroke="#2B5783" stroke-width="2.63859" stroke-linecap="round" stroke-linejoin="round"/>
<path d="M24.5803 53.9397H37.7941" stroke="#2B5783" stroke-width="2.63859" stroke-linecap="round" stroke-linejoin="round"/>
<path d="M31.0129 46.4479L31.1814 53.9395" stroke="#2B5783" stroke-width="2.63859" stroke-linecap="round" stroke-linejoin="round"/>
<path d="M43.5551 34.9645V34.8741C43.5551 41.7975 37.9364 46.1245 31.0002 46.1245H30.6255C23.6893 46.1245 18.0835 41.7975 18.0835 34.8741V34.9645" stroke="#2B5783" stroke-width="2.63859" stroke-linecap="round" stroke-linejoin="round"/>
</svg>
