<svg width="63" height="62" viewBox="0 0 63 62" fill="none" xmlns="http://www.w3.org/2000/svg">
<path d="M11.6648 28.4165L31.1063 12.9165L50.5478 28.4165" stroke="#2B5783" stroke-width="2.63095" stroke-linecap="round" stroke-linejoin="round"/>
<path d="M16.8494 31.0001V43.8216C16.8494 46.7276 19.2052 49.0835 22.1113 49.0835H40.1016C43.0077 49.0835 45.3635 46.7276 45.3635 43.8216V31.0001" stroke="#2B5783" stroke-width="2.63095" stroke-linecap="round" stroke-linejoin="round"/>
<path d="M26.5234 38.0572C27.1252 37.4574 27.8397 36.9815 28.6261 36.6568C29.4124 36.3321 30.2553 36.165 31.1064 36.165C31.9576 36.165 32.8005 36.3321 33.5868 36.6568C34.3732 36.9815 35.0877 37.4574 35.6894 38.0572" stroke="#339FD9" stroke-width="2.63095" stroke-linecap="round" stroke-linejoin="round"/>
<path d="M22.8579 34.404C23.9411 33.3245 25.227 32.4682 26.6423 31.8839C28.0575 31.2997 29.5744 30.999 31.1063 30.999C32.6382 30.999 34.155 31.2997 35.5703 31.8839C36.9855 32.4682 38.2715 33.3245 39.3547 34.404" stroke="#339FD9" stroke-width="2.63095" stroke-linecap="round" stroke-linejoin="round"/>
<path d="M32.0236 41.7115L31.1069 42.625L30.1902 41.7115C30.4333 41.4692 30.7631 41.3331 31.1069 41.3331C31.4507 41.3331 31.7804 41.4692 32.0236 41.7115Z" stroke="#339FD9" stroke-width="2.63095" stroke-linecap="round" stroke-linejoin="round"/>
</svg>
