<svg width="62" height="62" viewBox="0 0 62 62" fill="none" xmlns="http://www.w3.org/2000/svg">
<path d="M29.1917 17.4376C29.9667 15.3709 31.9042 13.9501 34.2292 13.9501C37.2 13.9501 39.525 16.2751 39.525 19.2459C39.525 22.2167 37.2 24.5417 34.2292 24.5417H11.625" stroke="#2B5783" stroke-width="2.63017" stroke-linecap="round" stroke-linejoin="round"/>
<path d="M18.7292 44.5619C19.5042 46.6286 21.4417 48.0494 23.7667 48.0494C26.7375 48.0494 29.0625 45.7244 29.0625 42.7536C29.0625 39.7828 26.6083 37.4578 23.6375 37.4578H11.625" stroke="#2B5783" stroke-width="2.63017" stroke-linecap="round" stroke-linejoin="round"/>
<path d="M40.1708 38.1043C40.9458 40.171 42.8833 41.5918 45.2083 41.5918C48.1792 41.5918 50.5042 39.2668 50.5042 36.296C50.5042 33.3251 48.05 31.0001 45.0792 31.0001H11.625" stroke="#339FD9" stroke-width="2.63017" stroke-linecap="round" stroke-linejoin="round"/>
</svg>
