<svg width="63" height="62" viewBox="0 0 63 62" fill="none" xmlns="http://www.w3.org/2000/svg">
<path d="M47.1131 14.2083H16.3048C13.7422 14.2083 11.6648 16.2786 11.6648 18.8324V32.6791C11.6648 35.2329 13.7422 37.3032 16.3048 37.3032H47.1131C49.6757 37.3032 51.7531 35.2329 51.7531 32.6791V18.8324C51.7531 16.2786 49.6757 14.2083 47.1131 14.2083Z" stroke="#2B5783" stroke-width="2.61842" stroke-linecap="round" stroke-linejoin="round"/>
<path d="M33.4265 23.8824H43.6009" stroke="#339FD9" stroke-width="2.61842" stroke-linecap="round" stroke-linejoin="round"/>
<path d="M18.7156 44.3298V51.6536" stroke="#339FD9" stroke-width="2.61842" stroke-linecap="round" stroke-linejoin="round"/>
<path d="M27.3218 44.3298V51.6536" stroke="#339FD9" stroke-width="2.61842" stroke-linecap="round" stroke-linejoin="round"/>
<path d="M36.4075 44.3298V51.6536" stroke="#339FD9" stroke-width="2.61842" stroke-linecap="round" stroke-linejoin="round"/>
<path d="M45.0134 44.3298V51.6536" stroke="#339FD9" stroke-width="2.61842" stroke-linecap="round" stroke-linejoin="round"/>
<path d="M20.1284 36.7601V33.5051C20.1284 33.0221 20.321 32.5589 20.6637 32.2174C21.0065 31.8758 21.4713 31.684 21.956 31.684H41.7733C42.2592 31.6839 42.7254 31.8754 43.0702 32.2166C43.415 32.5578 43.6103 33.0209 43.6137 33.5051V36.7601" stroke="#2B5783" stroke-width="2.61842" stroke-linecap="round" stroke-linejoin="round"/>
</svg>
