<svg width="62" height="62" viewBox="0 0 62 62" fill="none" xmlns="http://www.w3.org/2000/svg">
<path d="M45.2339 14.2085H16.7666C13.9271 14.2085 11.6252 16.5103 11.6252 19.3498V42.6505C11.6252 45.49 13.9271 47.7918 16.7666 47.7918H45.2339C48.0734 47.7918 50.3752 45.49 50.3752 42.6505V19.3498C50.3752 16.5103 48.0734 14.2085 45.2339 14.2085Z" stroke="#2B5783" stroke-width="2.57066" stroke-linecap="round" stroke-linejoin="round"/>
<path d="M27.125 25.8336L36.1667 31.0003L27.125 36.167V25.8336Z" stroke="#339FD9" stroke-width="2.57066" stroke-linecap="round" stroke-linejoin="round"/>
<path d="M11.6252 20.6663H50.3752" stroke="#2B5783" stroke-width="2.57066" stroke-linecap="round" stroke-linejoin="round"/>
<path d="M18.0835 14.2085V20.6668" stroke="#2B5783" stroke-width="2.57066" stroke-linecap="round" stroke-linejoin="round"/>
<path d="M24.542 14.2085V20.6668" stroke="#2B5783" stroke-width="2.57066" stroke-linecap="round" stroke-linejoin="round"/>
<path d="M31.0005 14.2085V20.6668" stroke="#2B5783" stroke-width="2.57066" stroke-linecap="round" stroke-linejoin="round"/>
<path d="M37.4585 14.2085V20.6668" stroke="#2B5783" stroke-width="2.57066" stroke-linecap="round" stroke-linejoin="round"/>
<path d="M43.917 14.2085V20.6668" stroke="#2B5783" stroke-width="2.57066" stroke-linecap="round" stroke-linejoin="round"/>
<path d="M50.3752 41.3333H11.6252" stroke="#2B5783" stroke-width="2.57066" stroke-linecap="round" stroke-linejoin="round"/>
<path d="M18.0835 41.3333V47.7916" stroke="#2B5783" stroke-width="2.57066" stroke-linecap="round" stroke-linejoin="round"/>
<path d="M24.542 41.3333V47.7916" stroke="#2B5783" stroke-width="2.57066" stroke-linecap="round" stroke-linejoin="round"/>
<path d="M31.0005 41.3333V47.7916" stroke="#2B5783" stroke-width="2.57066" stroke-linecap="round" stroke-linejoin="round"/>
<path d="M37.4585 41.3333V47.7916" stroke="#2B5783" stroke-width="2.57066" stroke-linecap="round" stroke-linejoin="round"/>
<path d="M43.917 41.3333V47.7916" stroke="#2B5783" stroke-width="2.57066" stroke-linecap="round" stroke-linejoin="round"/>
</svg>
