<svg width="62" height="62" viewBox="0 0 62 62" fill="none" xmlns="http://www.w3.org/2000/svg">
<path d="M31.0002 51.6662C25.519 51.6662 20.2624 49.4888 16.3866 45.6131C12.5109 41.7373 10.3335 36.4807 10.3335 30.9996C10.3335 25.5184 12.5109 20.2618 16.3866 16.386C19.957 12.8157 24.6992 10.6866 29.7092 10.3732C30.4211 10.3287 31.0002 10.9112 31.0002 11.6246C31.0002 12.3379 30.4211 12.9114 29.7096 12.9623C26.5874 13.1857 23.5685 14.2166 20.9536 15.9638C17.9798 17.9508 15.662 20.7751 14.2933 24.0794C12.9247 27.3837 12.5665 31.0196 13.2643 34.5274C13.962 38.0353 15.6843 41.2574 18.2133 43.7864C20.7423 46.3154 23.9645 48.0377 27.4723 48.7354C30.9801 49.4332 34.6161 49.0751 37.9204 47.7064C41.2247 46.3377 44.0489 44.0199 46.0359 41.0461C47.7833 38.431 48.8142 35.4119 49.0374 32.2894C49.0883 31.5783 49.6615 30.9996 50.3744 30.9996C51.088 30.9996 51.6704 31.5791 51.6251 32.2912C51.3064 37.2989 49.1758 42.0375 45.6069 45.6063C41.7325 49.4807 36.4794 51.6601 31.0002 51.6662Z" fill="#2B5783"/>
<path d="M31 34.8748C33.1401 34.8748 34.875 33.1399 34.875 30.9998C34.875 28.8597 33.1401 27.1248 31 27.1248C28.8599 27.1248 27.125 28.8597 27.125 30.9998C27.125 33.1399 28.8599 34.8748 31 34.8748Z" fill="#2B5783"/>
<path d="M31.0002 43.9157V41.3324C33.0439 41.3324 35.0417 40.7264 36.7411 39.5909C38.4404 38.4555 39.7648 36.8416 40.5469 34.9535C41.329 33.0653 41.5337 30.9876 41.1349 28.9831C40.7362 26.9787 39.7521 25.1374 38.3069 23.6923C36.8618 22.2472 35.0206 21.263 33.0161 20.8643C31.0116 20.4656 28.9339 20.6702 27.0458 21.4523C25.1576 22.2344 23.5437 23.5589 22.4083 25.2582C21.2729 26.9575 20.6668 28.9553 20.6668 30.9991H18.0835C18.0835 28.4444 18.841 25.9471 20.2603 23.823C21.6796 21.6988 23.697 20.0433 26.0572 19.0656C28.4174 18.088 31.0145 17.8322 33.5201 18.3306C36.0257 18.829 38.3272 20.0592 40.1336 21.8656C41.94 23.672 43.1702 25.9736 43.6686 28.4792C44.167 30.9847 43.9112 33.5819 42.9336 35.9421C41.956 38.3023 40.3004 40.3196 38.1763 41.7389C36.0521 43.1582 33.5548 43.9157 31.0002 43.9157Z" fill="#339FD9"/>
<path d="M27.1233 41.9568C26.886 42.6332 26.1416 42.995 25.4926 42.6907C24.1448 42.0589 22.9139 41.1965 21.8567 40.1393C20.7985 39.0811 19.9354 37.8488 19.3034 36.4995C19.0002 35.8521 19.3602 35.1097 20.0343 34.8716C20.7069 34.6341 21.438 34.9897 21.7598 35.6264C22.2576 36.6113 22.9098 37.5134 23.6941 38.2975C24.4785 39.0818 25.3811 39.734 26.3664 40.2316C27.0031 40.5532 27.3594 41.2836 27.1233 41.9568Z" fill="#2B5783"/>
<path d="M49.9904 27.1242C49.2902 27.2671 48.6116 26.8126 48.4204 26.1241C47.5907 23.1359 46.0016 20.4047 43.7983 18.2014C41.5952 15.9983 38.8642 14.4093 35.8761 13.5795C35.1873 13.3882 34.7327 12.7094 34.8756 12.0089C35.018 11.3106 35.7005 10.8553 36.389 11.0398C39.8754 11.9742 43.0632 13.8104 45.626 16.3734C48.189 18.9366 50.025 22.1248 50.959 25.6116C51.1433 26.2997 50.6883 26.9817 49.9904 27.1242Z" fill="#2B5783"/>
</svg>
