<svg width="62" height="62" viewBox="0 0 62 62" fill="none" xmlns="http://www.w3.org/2000/svg">
<path d="M42.0378 26.6998H46.8878C47.3146 26.6998 47.7372 26.6158 48.1316 26.4525C48.5259 26.2892 48.8842 26.0498 49.1859 25.748C49.4877 25.4462 49.7271 25.0879 49.8904 24.6936C50.0538 24.2993 50.1378 23.8767 50.1378 23.4499V21.2499C50.1378 20.8231 50.0538 20.4004 49.8904 20.0061C49.7271 19.6118 49.4877 19.2535 49.1859 18.9517C48.8842 18.6499 48.5259 18.4106 48.1316 18.2472C47.7372 18.0839 47.3146 17.9999 46.8878 17.9999H43.2878" stroke="#339FD9" stroke-width="2.54136" stroke-linecap="round" stroke-linejoin="round"/>
<path d="M21.7125 44.6001L28.5625 33.2377L11.0625 45.7377H19.6375C20.0524 45.7447 20.462 45.6434 20.8258 45.4439C21.1897 45.2445 21.4953 44.9537 21.7125 44.6001V44.6001Z" stroke="#2B5783" stroke-width="2.54136" stroke-linecap="round" stroke-linejoin="round"/>
<path d="M11.05 40.4872V45.7747V51.0497" stroke="#339FD9" stroke-width="2.54136" stroke-linecap="round" stroke-linejoin="round"/>
<path d="M41.25 24.0248H13.5C12.837 24.0248 12.2011 23.7615 11.7322 23.2927C11.2634 22.8238 11 22.1878 11 21.5248V14.1624C11 13.3237 11.3332 12.5192 11.9263 11.9261C12.5194 11.333 13.3238 10.9999 14.1625 10.9999H45.4125L41.25 24.0248Z" stroke="#2B5783" stroke-width="2.54136" stroke-linecap="round" stroke-linejoin="round"/>
<path d="M38.8751 33.2379H18.0876C17.4599 33.2346 16.859 32.9829 16.4163 32.5378C15.9736 32.0928 15.7251 31.4906 15.7251 30.8629V24.8503C15.7251 24.0253 16.7876 24.0253 18.0876 24.0253H38.8751C40.1876 24.0253 41.2501 24.0254 41.2501 25.0754V30.8629C41.2501 31.4928 40.9999 32.0969 40.5545 32.5423C40.1091 32.9877 39.505 33.2379 38.8751 33.2379Z" stroke="#2B5783" stroke-width="2.54136" stroke-linecap="round" stroke-linejoin="round"/>
</svg>
