<svg width="62" height="62" viewBox="0 0 62 62" fill="none" xmlns="http://www.w3.org/2000/svg">
<path d="M29.8993 50.6991V45.4992C29.8993 42.6274 27.5713 40.2993 24.6994 40.2993V40.2993C21.8276 40.2993 19.4995 42.6274 19.4995 45.4992V50.6991" stroke="#339FD9" stroke-width="2.59996"/>
<path d="M45.499 33.7999L45.499 51.9996" stroke="#2B5783" stroke-width="2.59996" stroke-linecap="round"/>
<path d="M35.0991 29.8991H36.3991V24.6995C36.3991 19.6737 40.4733 15.5993 45.499 15.5993C50.5247 15.5993 54.5988 19.6734 54.5988 24.6991V33.799C54.5988 38.8247 50.5247 42.8988 45.499 42.8988C40.4736 42.8988 36.3991 38.823 36.3991 33.797V30.9919V30.9758V30.9678V30.9598V30.9281V30.8969V30.8891V30.8814V30.866V30.8357V30.8057V30.7909V30.7835V30.7762V30.7471V30.5304V30.3433V30.3379V30.3326V30.322V30.3168V30.3116V30.3013V30.2962V30.2911V30.281V30.276V30.271V30.2661V30.2612V30.2563V30.2515V30.2467V30.2419V30.2372V30.2325V30.2278V30.2231V30.2185V30.2139V30.2048V30.2003V30.1959V30.1915V30.1871V30.1783V30.174V30.1698V30.1655V30.1613V30.1571V30.153V30.1448V30.1407V30.1367V30.1327V30.1288V30.1249V30.121V30.1171V30.1133V30.1095V30.1057V30.102V30.0983V30.091V30.0874V30.0838V30.0803V30.0768V30.0733V30.0699V30.0665V30.0631V30.0598V30.0565V30.0532V30.05V30.0468V30.0436V30.0374V30.0343V30.0313V30.0283V30.0253V30.0223V30.0194V30.0166V30.0137V30.0109V30.0081V30.0054V30.0027V29.9974V29.9948V29.9922V29.9897V29.9872V29.9847V29.9823V29.9775V29.9752V29.9729V29.9706V29.9684V29.9641V29.9619V29.9599V29.9578V29.9558V29.9518V29.9499V29.948V29.9444V29.9426V29.9409V29.9375V29.9358V29.9342V29.9311V29.9296V29.9282V29.9254V29.924V29.9227V29.9201V29.9178V29.9166V29.9155V29.9134V29.9114V29.9105V29.9096V29.9079V29.9064V29.905V29.9038V29.9032V29.9027V29.9017V29.9009V29.9002V29.8997V29.8994V29.8991V29.8991L35.0991 29.8991Z" stroke="#2B5783" stroke-width="2.59996"/>
<path d="M9.09961 51.9989H31.1992H53.2989" stroke="#2B5783" stroke-width="2.59996" stroke-linecap="round"/>
<path d="M12.9165 51.6658V36.3572L19.3748 30.9991" stroke="#2B5783" stroke-width="2.59996" stroke-linecap="round" stroke-linejoin="round"/>
<path d="M24.5415 25.833L36.9415 36.4703V51.6663H29.1915" stroke="#2B5783" stroke-width="2.59996" stroke-linecap="round" stroke-linejoin="round"/>
</svg>
