<svg width="382" height="168" viewBox="0 0 382 168" fill="none" xmlns="http://www.w3.org/2000/svg">
<g filter="url(#filter0_d_120_515)">
<path d="M292.538 4.99072C277.741 23.7771 257.588 38.6963 233.351 47.1337C219.937 51.7919 206.303 54.1649 192.824 54.3626C192.516 54.3626 192.209 54.3626 191.902 54.3626C152.319 54.7581 114.47 36.8507 89.6404 6.08934L4.83252 73.5665C50.1234 130.079 119.256 163.148 191.726 162.818C192.099 162.818 192.451 162.818 192.824 162.818C218.093 162.577 243.779 158.292 268.938 149.503C313.175 134.078 349.992 106.943 377.105 72.7315L292.516 4.99072H292.538Z" fill="#F5F5F5"/>
</g>
<path d="M61.6708 83.8053C60.2219 81.9157 59.2559 80.114 58.751 78.4001L65.0078 74.6868C65.5128 76.2469 66.3031 77.8069 67.3569 79.3449C68.4326 80.883 69.6401 82.1574 71.0232 83.1901C73.6357 85.1457 75.4579 85.4313 76.5117 84.0251C77.0605 83.278 77.1044 82.465 76.6214 81.5422C76.1385 80.6193 75.2384 79.345 73.8772 77.719C72.3843 75.9392 71.2208 74.3572 70.3646 72.973C69.5084 71.5887 69.0473 70.0287 68.9815 68.3148C68.8937 66.601 69.5303 64.8432 70.8915 63.0634C72.077 61.4814 73.5259 60.3608 75.2823 59.7016C77.0386 59.0425 78.9705 58.9326 81.122 59.3721C83.2735 59.8115 85.4908 60.9321 87.796 62.646C89.3767 63.8325 90.7817 65.1947 92.0331 66.7108C93.2844 68.2489 94.2065 69.809 94.8212 71.4349L88.6522 75.2801C87.3569 72.2259 85.6445 69.8968 83.493 68.2928C82.1538 67.2821 80.9903 66.7548 80.0682 66.7328C79.1242 66.6889 78.3997 67.0185 77.8728 67.7216C77.3459 68.4027 77.324 69.1937 77.807 70.0946C78.2899 70.9955 79.19 72.2259 80.5292 73.8079C82.0441 75.6097 83.2296 77.1917 84.0638 78.5759C84.8981 79.9602 85.381 81.4983 85.4689 83.2121C85.5567 84.9259 84.942 86.6618 83.6028 88.4635C82.4392 90.0235 80.9903 91.1222 79.2559 91.7594C77.5215 92.3966 75.5677 92.5064 73.3942 92.067C71.2208 91.6275 69.0034 90.5289 66.7202 88.815C64.7663 87.3649 63.0759 85.673 61.6489 83.7834L61.6708 83.8053Z" fill="#25806E"/>
<path d="M88.411 98.8785C87.4231 95.4289 88.0158 91.5618 90.2331 87.2991L98.4659 71.3911L105.996 75.3022L97.8951 90.9465C95.524 95.5387 96.029 98.7028 99.4099 100.461C102.769 102.196 105.623 100.768 107.994 96.1759L116.095 80.5316L123.515 84.3768L115.304 100.285C113.109 104.547 110.299 107.272 106.896 108.458C103.493 109.645 99.827 109.206 95.8533 107.162C91.9016 105.119 89.4209 102.35 88.411 98.9005V98.8785Z" fill="#25806E"/>
<path d="M146.369 93.1874C147.993 94.7035 149.069 96.4833 149.574 98.5267C150.079 100.57 149.969 102.745 149.267 105.074C148.542 107.404 147.401 109.249 145.842 110.633C144.283 112.018 142.395 112.875 140.2 113.204C138.004 113.534 135.611 113.314 133.021 112.501L128.015 110.963L125.535 119.027L117.434 116.522L126.962 85.6729L140.068 89.7158C142.659 90.5287 144.766 91.6713 146.391 93.1874H146.369ZM138.773 105.47C139.849 104.943 140.617 103.976 141.078 102.526C141.517 101.097 141.451 99.845 140.836 98.7904C140.222 97.7357 139.102 96.9447 137.434 96.4393L132.933 95.0551L130.145 104.086L134.645 105.47C136.314 105.975 137.697 105.975 138.773 105.47Z" fill="#25806E"/>
<path d="M175.282 122.191L174.316 129.178L150.452 125.86L154.887 93.8687L178.202 97.0986L177.236 104.086L162.241 101.998L161.495 107.382L174.711 109.205L173.767 115.973L160.551 114.149L159.739 119.994L175.282 122.147V122.191Z" fill="#25806E"/>
<path d="M195.217 120.763L190.585 120.873L190.782 129.464L182.286 129.662L181.518 97.3622L195.239 97.0326C197.961 96.9667 200.332 97.4061 202.352 98.307C204.372 99.2298 205.952 100.57 207.072 102.35C208.192 104.13 208.784 106.217 208.85 108.656C208.916 110.985 208.455 113.05 207.467 114.808C206.501 116.566 205.074 117.972 203.208 119.005L209.926 129.002L200.837 129.222L195.195 120.763H195.217ZM198.883 105.404C197.983 104.591 196.644 104.218 194.909 104.262L190.189 104.371L190.409 113.819L195.129 113.71C196.863 113.666 198.181 113.226 199.037 112.391C199.893 111.556 200.31 110.392 200.288 108.876C200.244 107.36 199.783 106.217 198.883 105.404Z" fill="#25806E"/>
<path d="M248.894 114.391L236.666 117.753L236.051 124.432L227.708 126.717L231.946 92.0669L240.003 89.8477L261.364 117.467L252.846 119.796L248.916 114.369L248.894 114.391ZM244.723 108.546L238.268 99.6034L237.28 110.59L244.723 108.546Z" fill="#25806E"/>
<path d="M272.319 78.1804C274.536 78.1804 276.534 78.7737 278.29 79.9382C280.047 81.1028 281.452 82.7726 282.506 84.9479C283.559 87.1451 283.976 89.2765 283.757 91.3638C283.537 93.4512 282.747 95.3408 281.364 97.0986C279.981 98.8564 278.049 100.285 275.612 101.471L270.892 103.734L274.536 111.359L266.874 115.028L252.956 85.8927L265.338 79.9602C267.796 78.7956 270.124 78.2024 272.341 78.2244L272.319 78.1804ZM275.063 92.3746C275.502 91.254 275.414 90.0235 274.756 88.6612C274.097 87.299 273.197 86.442 272.055 86.0685C270.892 85.695 269.531 85.8927 267.95 86.6398L263.691 88.6832L267.774 97.2085L272.034 95.1651C273.614 94.418 274.624 93.4732 275.063 92.3526V92.3746Z" fill="#25806E"/>
<path d="M296.863 62.2065C299.058 61.8329 301.122 62.0746 303.032 62.9315C304.964 63.7665 306.61 65.1947 308.015 67.1722C309.42 69.1497 310.189 71.1932 310.32 73.2805C310.452 75.3679 309.991 77.3894 308.915 79.3229C307.84 81.2785 306.193 83.0362 303.976 84.5963L299.695 87.6065L304.568 94.5058L297.631 99.4057L279.036 73.0169L290.255 65.1068C292.472 63.5468 294.689 62.58 296.863 62.2065ZM301.934 75.7414C302.197 74.5549 301.89 73.3684 301.012 72.138C300.134 70.9075 299.102 70.2044 297.916 70.0286C296.709 69.8529 295.392 70.2923 293.965 71.281L290.101 74.0056L295.545 81.7399L299.409 79.0153C300.836 78.0046 301.671 76.9279 301.934 75.7414Z" fill="#25806E"/>
<defs>
<filter id="filter0_d_120_515" x="0.612488" y="0.770691" width="380.712" height="166.27" filterUnits="userSpaceOnUse" color-interpolation-filters="sRGB">
<feFlood flood-opacity="0" result="BackgroundImageFix"/>
<feColorMatrix in="SourceAlpha" type="matrix" values="0 0 0 0 0 0 0 0 0 0 0 0 0 0 0 0 0 0 127 0" result="hardAlpha"/>
<feOffset/>
<feGaussianBlur stdDeviation="2.11002"/>
<feColorMatrix type="matrix" values="0 0 0 0 0 0 0 0 0 0 0 0 0 0 0 0 0 0 0.2 0"/>
<feBlend mode="normal" in2="BackgroundImageFix" result="effect1_dropShadow_120_515"/>
<feBlend mode="normal" in="SourceGraphic" in2="effect1_dropShadow_120_515" result="shape"/>
</filter>
</defs>
</svg>
