<svg width="218" height="219" viewBox="0 0 218 219" fill="none" xmlns="http://www.w3.org/2000/svg">
<path d="M109.449 210.297C164.968 210.055 209.779 164.814 209.536 109.248C209.294 53.6823 164.091 8.83393 108.572 9.07638C53.0529 9.31883 8.24228 54.5603 8.48453 110.126C8.72678 165.692 53.9301 210.54 109.449 210.297Z" fill="#F5F5F5"/>
<g filter="url(#filter0_d_120_580)">
<path d="M137.274 190.222C181.718 174.601 205.095 125.879 189.487 81.3975C173.88 36.9161 125.198 13.5199 80.7542 29.1407C36.3102 44.7614 12.9337 93.4839 28.5414 137.965C44.149 182.447 92.8304 205.843 137.274 190.222Z" fill="#F5F5F5"/>
</g>
<path d="M25.1909 89.4006C28.6596 74.3056 36.2337 59.9356 47.9352 48.1145C55.0921 40.8856 63.237 35.1728 71.9088 31.02" stroke="#479073" stroke-width="1.58065" stroke-miterlimit="10"/>
<path d="M41.6349 162.327C24.95 141.344 19.4615 114.34 25.1914 89.4011" stroke="#25806E" stroke-width="1.58065" stroke-miterlimit="10"/>
<path d="M193.051 89.709C198.671 114.582 193.139 141.498 176.454 162.438" stroke="#A8C580" stroke-width="1.58065" stroke-miterlimit="10"/>
<path d="M146.596 31.2183C154.917 35.2612 162.732 40.7103 169.67 47.5877C181.744 59.5846 189.538 74.2621 193.029 89.7087" stroke="#86B47C" stroke-width="1.58065" stroke-miterlimit="10"/>
<path d="M71.9092 31.0423C95.4657 19.7705 123.084 19.8144 146.596 31.2181" stroke="#69A278" stroke-width="1.58065" stroke-miterlimit="10"/>
<path d="M112.919 87.2256C112.919 92.6089 110.745 97.4867 107.255 101.046C107.233 101.068 107.189 101.112 107.167 101.134C107.145 101.156 107.101 101.2 107.079 101.222L93.2699 115.043C95.5092 112.801 97.2216 110.011 98.1657 106.891C98.2315 106.671 98.2974 106.451 98.3632 106.232C98.8023 104.606 99.0219 102.892 99.0219 101.134C99.0219 95.707 96.8265 90.7852 93.2699 87.2256L65.4543 59.3866C65.4543 59.3866 65.4983 59.3427 65.5202 59.3207C69.0767 55.8051 73.9505 53.6299 79.3511 53.6299C80.1634 53.6299 80.9538 53.6738 81.7441 53.7837C86.2227 54.311 90.2183 56.3764 93.248 59.4086L107.057 73.2292C107.057 73.2292 107.123 73.2951 107.145 73.3171C107.167 73.3391 107.211 73.383 107.233 73.405C110.745 76.9645 112.897 81.8424 112.897 87.2256H112.919Z" fill="url(#paint0_linear_120_580)"/>
<path d="M93.2482 87.2258C90.2186 90.2579 86.201 92.3014 81.7224 92.8507C80.9321 92.9386 80.1417 93.0045 79.3294 93.0045C77.5731 93.0045 75.8607 92.7628 74.2361 92.3453C70.9211 91.4664 67.9573 89.7306 65.5863 87.4015C65.5863 87.4015 65.5424 87.3576 65.5204 87.3576C65.4765 87.3136 65.4546 87.2917 65.4326 87.2697C65.4765 87.2038 65.5424 87.1598 65.5863 87.1159C67.9573 84.7868 70.9211 83.073 74.2361 82.1721C75.8607 81.7327 77.5731 81.5129 79.3294 81.5129C80.1417 81.5129 80.9321 81.5569 81.7224 81.6667C86.201 82.2161 90.2186 84.2595 93.2482 87.2917V87.2258Z" fill="url(#paint1_linear_120_580)"/>
<path d="M99.0001 101.156C99.0001 102.914 98.7586 104.628 98.3415 106.254C98.2756 106.473 98.2098 106.693 98.1439 106.913C97.1999 110.033 95.4875 112.823 93.2482 115.065C90.2186 118.097 86.201 120.14 81.7224 120.69C80.9321 120.777 80.1417 120.843 79.3294 120.843C73.9288 120.843 69.055 118.668 65.4985 115.152C65.4765 115.152 65.4546 115.109 65.4326 115.087C65.5424 114.977 65.6522 114.867 65.7619 114.757L73.5775 106.935L79.3294 101.178L81.7224 98.7831L93.2482 87.2476C96.8047 90.8071 99.0001 95.7289 99.0001 101.156Z" fill="url(#paint2_linear_120_580)"/>
<path d="M148.88 59.4086L140.735 67.5604L134.983 73.3171L121.086 87.2256L107.277 101.046C110.79 97.4867 112.941 92.6089 112.941 87.2256C112.941 81.8424 110.768 76.9645 107.277 73.405C107.255 73.383 107.211 73.3391 107.189 73.3171L112.941 67.5604L121.086 59.4086C124.643 55.8491 129.56 53.6519 134.983 53.6519C136.981 53.6519 138.913 53.9595 140.735 54.5088C143.852 55.4536 146.641 57.1674 148.88 59.4086Z" fill="url(#paint3_linear_120_580)"/>
<path d="M119.593 130.05C120.164 129.478 120.889 129.171 121.767 129.171C122.645 129.171 123.37 129.457 123.94 130.05C124.511 130.621 124.797 131.346 124.797 132.203C124.797 133.06 124.511 133.741 123.919 134.334C123.348 134.928 122.623 135.213 121.767 135.213C120.911 135.213 120.186 134.928 119.615 134.334C119.022 133.741 118.737 133.038 118.737 132.203C118.737 131.368 119.022 130.621 119.593 130.05Z" fill="#A8C580"/>
<path d="M65.7398 139.036L71.2942 129.237C71.2942 129.237 71.36 129.171 71.404 129.171H77.4413C77.4413 129.171 77.5949 129.281 77.551 129.369L68.3963 145.057C68.3963 145.057 68.3963 145.101 68.3963 145.123V154.132C68.3963 154.132 68.3304 154.263 68.2645 154.263H63.0615C63.0615 154.263 62.9297 154.197 62.9297 154.132V144.903C62.9297 144.903 62.9297 144.859 62.9297 144.837L53.8628 129.369C53.8628 129.369 53.8628 129.171 53.9726 129.171H60.0318C60.0318 129.171 60.1196 129.193 60.1416 129.237L65.652 139.036H65.7618H65.7398Z" fill="#25806E"/>
<path d="M87.2549 146.858L88.4624 146.001L94.8071 141.563C96.8488 140.135 99.6589 140.64 101.108 142.684C102.535 144.727 102.03 147.54 99.9882 148.99C98.4295 150.066 96.4536 150.044 94.9388 149.078L91.1408 151.736C94.1704 154.681 98.9344 155.142 102.535 152.637C106.596 149.803 107.584 144.2 104.752 140.135C101.92 136.07 96.3219 135.081 92.2604 137.916L81.042 145.782C82.447 147.803 85.2352 148.287 87.2549 146.88V146.858Z" fill="#25806E"/>
<path d="M93.3578 143.673L92.1504 144.529L85.8057 148.968C83.764 150.396 80.9539 149.891 79.5049 147.847C78.056 145.804 78.5829 142.991 80.6246 141.541C82.1833 140.465 84.1591 140.487 85.674 141.453L89.472 138.795C86.4423 135.85 81.6784 135.389 78.0779 137.894C74.0165 140.728 73.0285 146.331 75.8606 150.396C78.6926 154.461 84.2909 155.45 88.3523 152.615L99.5708 144.749C98.1657 142.728 95.3776 142.244 93.3578 143.651V143.673Z" fill="#25806E"/>
<path d="M110.065 154.241V129.171H114.917V154.241H110.065Z" fill="#A8C580"/>
<path d="M124.203 136.268H119.351V154.241H124.203V136.268Z" fill="#A8C580"/>
<path d="M138.188 133.631C136.146 133.631 135.136 134.642 135.114 136.685V137.3H141.437V141.475H135.114V154.241H130.262V141.475H126.508V137.3H130.262V135.828C130.262 133.873 130.943 132.291 132.326 131.082C133.709 129.874 135.465 129.259 137.661 129.259C138.583 129.259 139.856 129.434 141.459 129.808L141.064 134.158C140.208 133.829 139.263 133.675 138.21 133.675L138.188 133.631Z" fill="#A8C580"/>
<path d="M151.579 136.268C154.279 136.268 156.431 137.103 158.056 138.751C159.68 140.399 160.492 142.574 160.492 145.277C160.492 145.365 160.492 145.496 160.492 145.65C160.492 145.804 160.47 146.002 160.449 146.244C160.427 146.485 160.405 146.661 160.405 146.793H147.627C148.308 148.726 150.108 149.693 152.984 149.693C155.048 149.693 156.848 149.232 158.385 148.331L159.307 152.594C157.573 153.67 155.465 154.219 152.94 154.219C149.735 154.219 147.188 153.385 145.3 151.737C143.412 150.089 142.468 147.913 142.468 145.255C142.468 142.596 143.324 140.465 145.037 138.795C146.749 137.103 148.923 136.268 151.579 136.268ZM147.54 143.783H155.597C155.553 142.904 155.158 142.201 154.389 141.651C153.621 141.102 152.699 140.838 151.601 140.838C150.569 140.838 149.713 141.102 148.989 141.629C148.286 142.157 147.781 142.882 147.518 143.783H147.54Z" fill="#A8C580"/>
<defs>
<filter id="filter0_d_120_580" x="19.4802" y="20.0754" width="179.068" height="179.212" filterUnits="userSpaceOnUse" color-interpolation-filters="sRGB">
<feFlood flood-opacity="0" result="BackgroundImageFix"/>
<feColorMatrix in="SourceAlpha" type="matrix" values="0 0 0 0 0 0 0 0 0 0 0 0 0 0 0 0 0 0 127 0" result="hardAlpha"/>
<feOffset/>
<feGaussianBlur stdDeviation="2.11002"/>
<feColorMatrix type="matrix" values="0 0 0 0 0 0 0 0 0 0 0 0 0 0 0 0 0 0 0.3 0"/>
<feBlend mode="normal" in2="BackgroundImageFix" result="effect1_dropShadow_120_580"/>
<feBlend mode="normal" in="SourceGraphic" in2="effect1_dropShadow_120_580" result="shape"/>
</filter>
<linearGradient id="paint0_linear_120_580" x1="65.4324" y1="84.3472" x2="112.919" y2="84.3472" gradientUnits="userSpaceOnUse">
<stop offset="0.11" stop-color="#8DD1E6"/>
<stop offset="0.36" stop-color="#75BAB8"/>
<stop offset="0.93" stop-color="#3C8145"/>
<stop offset="1" stop-color="#357A37"/>
</linearGradient>
<linearGradient id="paint1_linear_120_580" x1="110.702" y1="87.2257" x2="46.4205" y2="87.2257" gradientUnits="userSpaceOnUse">
<stop offset="0.27" stop-color="#2D857A"/>
<stop offset="0.88" stop-color="#D5EBA0"/>
</linearGradient>
<linearGradient id="paint2_linear_120_580" x1="72.5018" y1="122.25" x2="102.407" y2="90.8981" gradientUnits="userSpaceOnUse">
<stop offset="0.04" stop-color="#2A9076"/>
<stop offset="0.88" stop-color="#195658"/>
</linearGradient>
<linearGradient id="paint3_linear_120_580" x1="141.24" y1="52.2237" x2="100.962" y2="95.1458" gradientUnits="userSpaceOnUse">
<stop offset="0.27" stop-color="#2D857A"/>
<stop offset="0.88" stop-color="#D5EBA0"/>
</linearGradient>
</defs>
</svg>
