<svg width="380" height="472" viewBox="0 0 380 472" fill="none" xmlns="http://www.w3.org/2000/svg">
<g clip-path="url(#clip0_124_476)">
<g style="mix-blend-mode:screen">
<path d="M358.5 9.5L35.5 9.50003L35.5001 438.5L294.698 438.5L294.701 438.497L294.848 438.349L294.995 438.2L295.141 438.052L295.288 437.904L295.434 437.756L296.016 437.168L296.161 437.022L296.305 436.875L296.45 436.729L296.594 436.584L296.738 436.438L296.882 436.293L297.025 436.148L297.168 436.003L297.311 435.858L297.454 435.714L297.597 435.57L297.739 435.426L297.881 435.282L298.023 435.139L298.164 434.996L298.306 434.853L298.447 434.71L298.588 434.568L298.729 434.426L298.869 434.284L299.009 434.142L299.149 434L299.289 433.859L299.429 433.718L299.568 433.577L299.707 433.436L299.846 433.296L299.985 433.155L300.124 433.015L300.262 432.876L300.4 432.736L300.538 432.597L300.676 432.457L300.813 432.318L301.087 432.041L301.224 431.903L301.361 431.765L301.497 431.627L301.633 431.489L301.769 431.352L301.905 431.214L302.041 431.077L302.176 430.94L302.312 430.804L302.447 430.667L302.581 430.531L302.716 430.395L302.85 430.259L302.985 430.123L303.119 429.987L303.253 429.852L303.386 429.717L303.52 429.582L303.653 429.447L303.786 429.313L303.919 429.178L304.052 429.044L304.184 428.91L304.317 428.776L304.449 428.643L304.581 428.509L304.713 428.376L304.844 428.243L305.107 427.977L305.238 427.845L305.369 427.712L305.891 427.185L306.021 427.053L306.151 426.922L306.281 426.791L306.411 426.66L306.669 426.398L306.798 426.268L306.927 426.138L307.056 426.007L307.185 425.877L307.313 425.748L307.441 425.618L307.569 425.488L307.697 425.359L307.825 425.23L307.953 425.101L308.207 424.843L308.335 424.715L308.462 424.586L308.589 424.458L308.715 424.33L308.842 424.202L308.968 424.074L309.221 423.819L309.347 423.692L309.472 423.564L309.598 423.437L309.724 423.31L309.974 423.057L310.225 422.804L310.349 422.678L310.474 422.552L310.599 422.426L310.723 422.3L310.848 422.174L310.972 422.049L311.467 421.548L311.714 421.298L311.837 421.174L311.961 421.049L312.207 420.801L312.329 420.676L312.452 420.552L312.697 420.305L312.819 420.181L312.942 420.057L313.186 419.811L313.308 419.687L313.429 419.564L313.551 419.441L313.673 419.319L313.794 419.196L313.915 419.073L314.158 418.828L314.279 418.706L314.4 418.584L314.52 418.462L314.641 418.34L314.762 418.218L314.882 418.096L315.003 417.974L315.123 417.852L315.363 417.61L315.483 417.488L315.603 417.367L315.723 417.246L315.843 417.125L315.962 417.004L316.082 416.883L316.201 416.762L316.321 416.642L316.44 416.521L316.559 416.401L316.678 416.28L316.797 416.16L317.272 415.679L318.219 414.722L318.455 414.484L318.573 414.365L318.691 414.245L318.926 414.007L319.044 413.889L319.162 413.77L319.279 413.651L319.396 413.532L319.631 413.295L319.748 413.176L319.866 413.058L320.1 412.821L320.217 412.703L320.334 412.585L320.451 412.467L320.567 412.348L320.684 412.23L320.801 412.112L320.918 411.994L321.034 411.876L321.151 411.759L321.267 411.641L321.384 411.523L321.5 411.405L321.617 411.288L321.733 411.17L321.966 410.935L322.082 410.817L322.198 410.7L322.315 410.582L322.431 410.465L322.895 409.996L323.127 409.761L323.243 409.644L323.359 409.527L323.474 409.41L323.59 409.293L323.706 409.176L323.822 409.058L324.053 408.824L324.169 408.707L324.285 408.591L324.516 408.357L324.747 408.123L326.596 406.254L327.058 405.787L327.289 405.554L327.52 405.32L327.751 405.087L327.982 404.853L328.097 404.736L328.213 404.619L328.444 404.386L328.56 404.269L328.675 404.152L328.791 404.035L328.907 403.918L329.022 403.801L329.138 403.684L329.254 403.567L329.37 403.45L329.485 403.333L329.601 403.216L329.833 402.982L329.949 402.865L330.065 402.748L330.181 402.63L330.297 402.513L330.761 402.044L330.877 401.926L330.993 401.809L331.226 401.574L331.458 401.339L331.691 401.103L331.808 400.986L331.924 400.868L332.157 400.632L334.03 398.739L334.148 398.62L334.265 398.501L334.383 398.382L334.501 398.263L334.618 398.144L334.736 398.025L334.854 397.906L334.972 397.786L335.09 397.667L335.209 397.548L335.327 397.428L335.445 397.308L335.563 397.189L335.682 397.069L335.8 396.949L335.919 396.829L336.038 396.709L336.157 396.589L336.394 396.349L336.513 396.228L336.633 396.108L336.752 395.988L336.871 395.867L336.99 395.746L337.11 395.626L337.349 395.384L337.469 395.263L337.589 395.142L337.828 394.899L337.949 394.778L338.069 394.656L338.309 394.413L338.792 393.925L338.913 393.803L339.034 393.68L339.155 393.558L339.276 393.435L339.762 392.944L339.884 392.821L340.006 392.698L340.128 392.575L340.25 392.451L340.372 392.328L340.494 392.204L340.617 392.08L340.739 391.956L341.231 391.459L341.477 391.21L341.724 390.961L342.717 389.957L342.967 389.704L343.092 389.578L343.217 389.452L343.719 388.944L343.845 388.817L343.971 388.69L344.097 388.562L344.223 388.434L344.35 388.307L344.476 388.179L344.603 388.051L344.73 387.922L344.984 387.665L345.111 387.537L345.239 387.408L345.367 387.279L345.494 387.15L345.622 387.02L345.75 386.891L345.879 386.761L346.007 386.631L346.264 386.371L346.393 386.241L346.522 386.11L346.781 385.849L346.911 385.718L347.04 385.587L347.17 385.455L347.3 385.324L347.822 384.796L348.347 384.266L348.479 384.133L348.611 383.999L348.743 383.866L348.875 383.732L349.007 383.598L349.14 383.464L349.272 383.33L349.405 383.196L349.672 382.927L349.805 382.792L349.939 382.656L350.073 382.521L350.207 382.386L350.341 382.25L350.476 382.114L350.61 381.978L350.745 381.842L351.015 381.568L351.558 381.02L351.694 380.882L351.831 380.744L351.967 380.606L352.104 380.467L352.241 380.329L352.379 380.19L352.516 380.051L352.654 379.912L352.792 379.773L352.93 379.633L353.068 379.493L353.207 379.353L353.345 379.213L353.484 379.072L353.623 378.932L353.763 378.791L353.902 378.65L354.042 378.508L354.182 378.367L354.323 378.225L354.886 377.656L355.169 377.37L355.311 377.226L355.453 377.083L355.595 376.939L355.738 376.795L355.88 376.65L356.023 376.506L356.166 376.361L356.31 376.216L356.454 376.071L356.598 375.925L356.742 375.779L356.886 375.633L357.031 375.487L357.176 375.341L357.321 375.194L357.466 375.047L357.612 374.9L357.758 374.752L357.904 374.605L358.05 374.457L358.344 374.16L358.491 374.011L358.5 374.002L358.5 9.5Z" stroke="url(#paint0_linear_124_476)" stroke-width="3"/>
</g>
<path d="M301.869 19.574L82.0001 19.574L82.0001 0.000125885L301.869 0.000106663L301.869 19.574Z" fill="url(#paint1_linear_124_476)"/>
<path d="M136.14 462.744L8.92841 462.744L8.92838 118.3" stroke="url(#paint2_linear_124_476)" stroke-width="2" stroke-miterlimit="10"/>
<path d="M18.402 422.088L6.10352e-05 422.088L4.38003e-05 224.945L18.402 224.945L18.402 422.088Z" fill="url(#paint3_linear_124_476)"/>
<path d="M110.003 453.489L110.003 472L46.7546 472L46.7546 453.489L110.003 453.489Z" fill="url(#paint4_linear_124_476)"/>
<path d="M346.195 423.46L378.296 391.168L378.296 87.4138" stroke="url(#paint5_linear_124_476)" stroke-width="2" stroke-miterlimit="10"/>
<path d="M301.461 67.9493H300.887L300.46 68.3324L280.197 86.5H35.5001V9.5H358.5V67.9493H301.461Z" stroke="url(#paint6_linear_124_476)" stroke-width="3"/>
<path d="M304.286 75L290 88H295.714L310 75H304.286Z" fill="#F4F3F3"/>
<path d="M315.286 75L301 88H306.714L321 75H315.286Z" fill="#F4F3F3"/>
<path d="M326.571 75L313 88H318.429L332 75H326.571Z" fill="#F4F3F3"/>
<path d="M338.286 75L324 88H329.714L344 75H338.286Z" fill="#F4F3F3"/>
<path d="M349.286 75L335 88H340.714L355 75H349.286Z" fill="#F4F3F3"/>
</g>
<defs>
<linearGradient id="paint0_linear_124_476" x1="197" y1="440" x2="197" y2="8" gradientUnits="userSpaceOnUse">
<stop stop-color="#FDFBFB"/>
<stop offset="1" stop-color="#F0F0F0"/>
</linearGradient>
<linearGradient id="paint1_linear_124_476" x1="191.935" y1="19.574" x2="191.935" y2="0.000115691" gradientUnits="userSpaceOnUse">
<stop stop-color="#FDFBFB"/>
<stop offset="1" stop-color="#F0F0F0"/>
</linearGradient>
<linearGradient id="paint2_linear_124_476" x1="136.069" y1="118.3" x2="8.78672" y2="118.3" gradientUnits="userSpaceOnUse">
<stop stop-color="#9CC76F"/>
<stop offset="1" stop-color="#C5DA8B"/>
</linearGradient>
<linearGradient id="paint3_linear_124_476" x1="18.3917" y1="224.945" x2="-0.0204478" y2="224.945" gradientUnits="userSpaceOnUse">
<stop stop-color="#9CC76F"/>
<stop offset="1" stop-color="#C5DA8B"/>
</linearGradient>
<linearGradient id="paint4_linear_124_476" x1="46.7546" y1="453.499" x2="46.7546" y2="472.021" gradientUnits="userSpaceOnUse">
<stop stop-color="#9CC76F"/>
<stop offset="1" stop-color="#C5DA8B"/>
</linearGradient>
<linearGradient id="paint5_linear_124_476" x1="378.278" y1="87.4136" x2="346.159" y2="87.4136" gradientUnits="userSpaceOnUse">
<stop stop-color="#9CC76F"/>
<stop offset="1" stop-color="#C5DA8B"/>
</linearGradient>
<linearGradient id="paint6_linear_124_476" x1="197" y1="8" x2="197" y2="88" gradientUnits="userSpaceOnUse">
<stop stop-color="#FDFBFB"/>
<stop offset="1" stop-color="#F0F0F0"/>
</linearGradient>
<clipPath id="clip0_124_476">
<rect width="380" height="472" fill="white" transform="matrix(1 -8.74228e-08 -8.74228e-08 -1 6.10352e-05 472)"/>
</clipPath>
</defs>
</svg>
