<svg width="580" height="544" viewBox="0 0 580 544" fill="none" xmlns="http://www.w3.org/2000/svg">
<path d="M565.137 360.83L531.965 329.959C535.851 301.066 534.556 271.996 528.145 243.498C526.125 234.467 523.513 225.349 520.417 216.45C513.809 197.444 504.918 179.317 493.963 162.552L510.121 120.914L466.345 127.682C446.257 106.544 422.766 89.3179 396.488 76.3981C369.418 63.1048 340.571 54.9751 310.692 52.2285L289.462 15.4468L268.387 51.9868C247.618 53.6787 227.069 58.0072 207.267 64.9066C198.99 67.785 190.802 71.1467 182.92 74.8601C155.609 87.7578 131.219 105.358 110.362 127.198L69.6161 120.892L84.5008 159.278C67.4207 184.524 55.3021 212.341 48.4306 242.026C41.4931 271.952 40.2418 302.45 44.6984 332.772L14.5996 360.786L54.0508 372.915C54.6435 374.761 55.2363 376.541 55.851 378.298C64.2593 402.49 76.2242 424.968 91.4382 445.226L91.3285 445.314L96.1583 451.335C96.1583 451.335 96.2022 451.4 96.2242 451.422L101.076 457.487L101.186 457.399C123.271 483.216 150.977 504.53 181.713 519.295C214.819 535.203 251.614 543.597 288.123 543.597H289.199C289.616 543.597 290.033 543.597 290.45 543.597C317.168 543.333 343.579 538.719 368.979 529.864C410.67 515.34 447.399 490.072 475.719 456.63L475.829 456.718L480.637 450.653C480.637 450.653 480.681 450.609 480.703 450.588L485.533 444.501L485.423 444.413C501.252 423.1 513.48 399.524 521.8 374.168L565.116 360.852L565.137 360.83ZM328.255 412.751C315.873 417.058 303.052 419.365 290.187 419.563H290.011C289.858 419.563 289.704 419.563 289.506 419.563C289.484 419.563 288.123 419.563 288.123 419.563C251.658 419.563 216.202 402.644 193.26 374.277L193.173 374.19C184.347 363.291 177.498 350.965 172.843 337.562C165.247 315.699 163.974 292.299 169.177 269.887C177.717 232.995 202.218 202.695 236.356 186.743C240.132 184.986 244.04 183.404 247.97 182.019C260.966 177.493 274.468 175.186 288.101 175.186C306.806 175.186 325.577 179.602 342.415 187.996C371.175 202.3 392.821 226.887 403.359 257.231C404.918 261.713 406.213 266.305 407.223 270.876C415.28 306.822 406.762 344.087 383.842 373.135C369.484 391.394 350.231 405.083 328.211 412.751H328.255Z" fill="#F5F5F5"/>
<path d="M521.054 245.211L415.412 269.161" stroke="#F5F5F5" stroke-width="1.58065" stroke-miterlimit="10"/>
<path d="M299.649 9.7777C299.649 15.1829 295.28 19.5554 289.879 19.5554C284.479 19.5554 280.11 15.1829 280.11 9.7777C280.11 4.3725 284.479 0 289.879 0C295.28 0 299.649 4.3725 299.649 9.7777Z" fill="#69A278"/>
<path d="M523.487 117.547C523.487 122.893 519.164 127.218 513.82 127.218C508.477 127.218 504.154 122.893 504.154 117.547C504.154 112.2 508.477 107.875 513.82 107.875C519.164 107.875 523.487 112.2 523.487 117.547Z" fill="#86B47C"/>
<path d="M56.5129 117.547C56.5129 122.893 60.8357 127.218 66.1795 127.218C71.5234 127.218 75.8462 122.893 75.8462 117.547C75.8462 112.2 71.5234 107.875 66.1795 107.875C60.8357 107.875 56.5129 112.2 56.5129 117.547Z" fill="#479073"/>
<path d="M580 361.568C580 366.915 575.677 371.24 570.333 371.24C564.989 371.24 560.667 366.915 560.667 361.568C560.667 356.222 564.989 351.896 570.333 351.896C575.677 351.896 580 356.222 580 361.568Z" fill="#A8C580"/>
<path d="M0.000162335 361.568C0.000162335 366.915 4.32303 371.24 9.66685 371.24C15.0107 371.24 19.3335 366.915 19.3335 361.568C19.3335 356.222 15.0107 351.896 9.66685 351.896C4.32303 351.896 0.000162335 356.222 0.000162335 361.568Z" fill="#25806E"/>
<path d="M9.65967 232.951C21.2513 182.481 46.5861 134.515 85.686 95.0305C109.638 70.8609 136.795 51.8109 165.796 37.9243" stroke="#479073" stroke-width="1.58065" stroke-miterlimit="10"/>
<path d="M64.6103 476.646C8.86936 406.51 -9.4841 316.314 9.6597 232.951" stroke="#25806E" stroke-width="1.58065" stroke-miterlimit="10"/>
<path d="M570.582 233.984C589.353 317.127 570.889 407.038 515.104 476.998" stroke="#A8C580" stroke-width="1.58065" stroke-miterlimit="10"/>
<path d="M415.412 38.4956C443.227 51.9866 469.33 70.2237 492.514 93.2068C532.887 133.262 558.924 182.327 570.582 233.984" stroke="#86B47C" stroke-width="1.58065" stroke-miterlimit="10"/>
<path d="M165.796 37.924C244.479 0.241439 336.795 0.395244 415.412 38.4953" stroke="#69A278" stroke-width="1.58065" stroke-miterlimit="10"/>
<path d="M475.126 445.731L390.538 378.012C414.16 348.064 424.171 308.25 415.412 269.183L521.054 245.233C537.278 317.237 518.793 390.625 475.126 445.731Z" fill="#A8C580"/>
<path d="M393.59 83.4289L346.433 181.03C316.268 166.023 280.308 162.705 245.95 174.68C241.713 176.152 237.585 177.844 233.612 179.69L186.784 81.9567C194.38 78.3533 202.262 75.1453 210.363 72.3109C272.931 50.5143 338.464 56.3809 393.59 83.4289Z" fill="#69A278"/>
<path d="M162.13 268.129L56.5537 243.827C72.5801 174.549 119.276 113.817 186.762 81.9351L233.59 179.668C196.532 196.982 170.89 230.205 162.108 268.129H162.13Z" fill="#479073"/>
<path d="M187.64 379.111L102.832 446.588C86.3008 425.956 72.9309 402.182 63.7542 375.771C48.4304 331.695 46.7619 286.168 56.5752 243.827L162.152 268.129C156.795 291.222 157.673 316.073 166.037 340.132C171.087 354.7 178.507 367.795 187.662 379.111H187.64Z" fill="#25806E"/>
<path d="M123.272 333.518C126.543 330.86 128.628 326.817 128.628 322.269C128.628 314.271 122.152 307.767 114.139 307.767C106.126 307.767 99.6493 314.249 99.6493 322.269C99.6493 326.817 101.735 330.86 105.006 333.518C96.4441 337.1 90.4067 345.559 90.4067 355.425H137.827C137.827 345.559 131.812 337.1 123.228 333.518H123.272Z" stroke="#F5F5F5" stroke-width="1.05128" stroke-linecap="round" stroke-linejoin="round"/>
<path d="M126.542 314.798C128.518 313.59 130.845 312.886 133.326 312.886C140.461 312.886 146.257 318.687 146.257 325.828C146.257 329.893 144.391 333.497 141.471 335.87C149.133 339.056 154.512 346.614 154.512 355.447H127.069" stroke="#F5F5F5" stroke-width="1.05128" stroke-linecap="round" stroke-linejoin="round"/>
<path d="M101.054 314.798C99.0784 313.59 96.7513 312.886 94.2705 312.886C87.1355 312.886 81.3396 318.687 81.3396 325.828C81.3396 329.893 83.2057 333.497 86.1256 335.87C78.4637 339.056 73.085 346.614 73.085 355.447H100.527" stroke="#F5F5F5" stroke-width="1.05128" stroke-linecap="round" stroke-linejoin="round"/>
<path d="M289.462 31.0688L298.595 46.9109L307.728 62.731H289.462H271.196L280.329 46.9109L289.462 31.0688Z" fill="#69A278"/>
<path d="M81.7783 130.714L99.8244 133.504L117.892 136.295L106.433 150.555L94.9946 164.793L88.3864 147.764L81.7783 130.714Z" fill="#479073"/>
<path d="M29.8135 357.337L43.1834 344.878L56.5533 332.442L60.6367 350.261L64.7421 368.081L47.2668 362.698L29.8135 357.337Z" fill="#25806E"/>
<path d="M497.958 130.714L479.89 133.504L461.844 136.295L473.282 150.555L484.72 164.793L491.328 147.764L497.958 130.714Z" fill="#86B47C"/>
<path d="M549.923 357.337L536.531 344.878L523.161 332.442L519.078 350.261L514.995 368.081L532.448 362.698L549.923 357.337Z" fill="#A8C580"/>
<path d="M521.054 245.211L415.412 269.161C414.336 264.305 412.975 259.471 411.306 254.659C399.693 221.239 375.807 195.598 346.455 181.008L393.612 83.4067C447.925 110.081 492.141 157.344 513.59 219.02C516.619 227.699 519.1 236.444 521.076 245.211H521.054Z" fill="#86B47C"/>
<path d="M185.576 79.4519L234.797 182.173" stroke="#F5F5F5" stroke-width="1.58065" stroke-miterlimit="10"/>
<path d="M394.292 81.9346L345.708 182.502" stroke="#F5F5F5" stroke-width="1.58065" stroke-miterlimit="10"/>
<path d="M54.4678 243.344L164.215 268.612" stroke="#F5F5F5" stroke-width="1.58065" stroke-miterlimit="10"/>
<path d="M461.537 162.661C460.593 162.068 459.407 162.002 458.397 162.486L455.477 163.892V157.432C455.477 156.377 454.951 155.367 454.094 154.773C453.238 154.18 452.14 154.026 451.153 154.378C439.21 158.75 432.953 165.144 430.648 169.934C428.342 165.144 422.086 158.75 410.143 154.378C408.452 153.763 406.608 154.641 405.993 156.333C405.862 156.685 405.796 157.058 405.796 157.432V163.892L402.876 162.486C401.273 161.717 399.319 162.398 398.551 164.002C398.331 164.441 398.222 164.925 398.222 165.408V197.378C398.222 198.63 398.946 199.751 400.066 200.3L425.379 212.473C425.686 213.33 426.498 213.879 427.398 213.879H433.875C434.775 213.879 435.587 213.308 435.895 212.473L461.207 200.322C462.327 199.773 463.03 198.652 463.052 197.4V165.43C463.052 164.309 462.481 163.277 461.537 162.683V162.661ZM451.899 156.399C452.228 156.289 452.58 156.333 452.865 156.531C453.15 156.729 453.326 157.058 453.326 157.432V164.947L435.477 173.516C435.06 173.054 434.49 172.813 433.875 172.791H431.877C432.755 168.967 438.09 161.453 451.899 156.399ZM433.897 174.944V178.196H427.42V174.944H433.897ZM427.42 180.349H433.897V182.502H427.42V180.349ZM427.42 184.678H433.897V201.97H427.42V184.678ZM427.42 204.145H433.897V206.299H427.42V204.145ZM407.969 157.432C407.969 157.08 408.145 156.751 408.43 156.531C408.716 156.333 409.067 156.289 409.396 156.399C423.183 161.453 428.518 168.967 429.418 172.791H427.42C426.806 172.791 426.235 173.054 425.818 173.516L407.969 164.947V157.432ZM400.417 197.378V165.408C400.417 165.034 400.615 164.683 400.922 164.485C401.229 164.287 401.625 164.265 401.976 164.419L425.269 175.603V209.968L401.032 198.323C400.659 198.147 400.417 197.751 400.417 197.356V197.378ZM427.42 211.704V208.452H433.897V211.704H427.42ZM460.9 197.378C460.9 197.795 460.659 198.169 460.285 198.344L436.048 209.99V175.625L459.341 164.441C459.868 164.177 460.527 164.419 460.79 164.947C460.856 165.1 460.9 165.254 460.9 165.408V197.378Z" fill="#F5F5F5"/>
<path d="M456.641 172.637C456.027 172.242 455.236 172.198 454.578 172.505L440.527 179.053C439.759 179.405 439.276 180.174 439.276 181.009V189.424C439.276 190.611 440.242 191.577 441.427 191.577C441.735 191.577 442.064 191.511 442.349 191.38L456.4 184.832C457.168 184.48 457.651 183.711 457.651 182.876V174.461C457.651 173.714 457.278 173.033 456.641 172.637ZM441.449 189.446V181.031L455.5 174.461V182.876L441.449 189.446Z" fill="#F5F5F5"/>
<path d="M420.285 179.36L406.235 172.878C405.686 172.637 405.049 172.878 404.808 173.406C404.566 173.955 404.808 174.592 405.335 174.834L419.385 181.316C419.934 181.557 420.571 181.316 420.812 180.788C421.054 180.261 420.812 179.602 420.285 179.36Z" fill="#F5F5F5"/>
<path d="M414.929 182.612L408.452 179.361C407.925 179.097 407.267 179.317 407.003 179.844C406.74 180.371 406.959 181.03 407.486 181.294L413.963 184.546C414.49 184.81 415.148 184.59 415.412 184.063C415.675 183.535 415.455 182.876 414.929 182.612Z" fill="#F5F5F5"/>
<path d="M146.433 203.881C134.951 203.288 125.95 193.796 125.95 182.282C125.95 170.769 134.951 161.277 146.433 160.684C147.728 160.618 148.738 159.563 148.738 158.289V148.665C148.738 148.006 148.474 147.39 147.991 146.929C147.53 146.467 146.872 146.226 146.213 146.248C145.511 146.27 144.83 146.336 144.106 146.402C142.635 146.599 141.449 147.742 141.23 149.214L140.615 153.037C137.497 153.762 134.512 155.015 131.789 156.707L128.628 154.443C127.421 153.565 125.752 153.586 124.567 154.509C123.688 155.212 122.854 155.981 122.064 156.772C121.252 157.563 120.483 158.42 119.759 159.299C118.837 160.486 118.815 162.134 119.693 163.342L121.954 166.506C120.264 169.231 119.034 172.219 118.288 175.339L114.468 175.976C112.997 176.218 111.855 177.405 111.68 178.877C111.438 181.118 111.438 183.381 111.68 185.622C111.855 187.116 112.997 188.325 114.49 188.588L118.31 189.204C119.034 192.324 120.286 195.312 121.976 198.037L119.737 201.179C118.837 202.387 118.859 204.057 119.781 205.244C120.505 206.122 121.252 206.957 122.064 207.748C122.81 208.495 123.623 209.221 124.589 210.055C125.774 210.956 127.399 210.978 128.606 210.099L131.767 207.836C134.49 209.528 137.475 210.759 140.593 211.506L141.23 215.329C141.471 216.801 142.657 217.944 144.128 218.119C144.808 218.185 145.511 218.251 146.213 218.273H146.323C146.938 218.273 147.552 218.031 147.991 217.592C148.452 217.153 148.738 216.515 148.716 215.856V206.232C148.716 204.936 147.684 203.903 146.411 203.837L146.433 203.881ZM146.323 215.9C145.686 215.878 145.05 215.834 144.413 215.746C143.996 215.68 143.666 215.351 143.623 214.955L142.876 210.319C142.788 209.836 142.415 209.44 141.932 209.33C138.551 208.627 135.324 207.287 132.448 205.375C132.031 205.112 131.482 205.112 131.087 205.397L127.267 208.144C126.938 208.408 126.499 208.408 126.147 208.166C125.269 207.419 124.501 206.716 123.82 206.035C123.074 205.309 122.393 204.54 121.735 203.749C121.471 203.398 121.471 202.936 121.735 202.585L124.479 198.762C124.764 198.366 124.786 197.817 124.501 197.399C122.591 194.521 121.252 191.291 120.549 187.885C120.439 187.402 120.066 187.028 119.561 186.941L114.951 186.193C114.512 186.128 114.182 185.776 114.138 185.337C113.919 183.271 113.919 181.184 114.138 179.118C114.204 178.701 114.534 178.371 114.929 178.327L119.539 177.58C120.022 177.492 120.417 177.119 120.527 176.635C121.23 173.252 122.569 170.022 124.479 167.121C124.742 166.704 124.742 166.155 124.457 165.759L121.713 161.936C121.449 161.606 121.449 161.145 121.713 160.793C122.371 159.98 123.074 159.211 123.82 158.464C124.545 157.739 125.313 157.036 126.103 156.377C126.455 156.113 126.916 156.113 127.267 156.377L131.087 159.124C131.482 159.409 132.031 159.431 132.448 159.145C135.324 157.234 138.551 155.894 141.932 155.19C142.415 155.081 142.788 154.707 142.876 154.202L143.623 149.588C143.666 149.17 143.996 148.84 144.413 148.775C145.05 148.709 145.686 148.665 146.345 148.643V158.267C133.546 158.926 123.535 169.473 123.535 182.282C123.535 195.07 133.568 205.617 146.345 206.254V215.878L146.323 215.9Z" fill="#F5F5F5"/>
<path d="M183.491 181.865C183.271 180.041 181.735 178.679 179.912 178.679C178.398 178.679 177.036 179.646 176.532 181.074H148.716V177.471H167.904C169.901 177.471 171.504 175.867 171.504 173.867V167.649C173.151 167.056 174.139 165.364 173.853 163.65C173.546 161.914 172.053 160.662 170.297 160.662C168.54 160.662 167.047 161.936 166.74 163.65C166.433 165.386 167.443 167.078 169.089 167.649V173.867C169.089 174.526 168.562 175.076 167.882 175.076H148.694V171.472H161.888C162.547 171.472 163.096 170.945 163.096 170.264C163.096 169.582 162.569 169.055 161.888 169.055H148.694V166.66H155.895C157.893 166.66 159.495 165.056 159.495 163.057V155.63C161.142 155.037 162.13 153.345 161.844 151.631C161.559 149.917 160.044 148.643 158.288 148.643C156.532 148.643 155.039 149.917 154.731 151.631C154.424 153.367 155.434 155.059 157.08 155.63V163.057C157.08 163.716 156.553 164.265 155.873 164.265H148.365C147.948 163.496 147.135 163.035 146.257 163.101C136.158 163.738 128.277 172.131 128.277 182.261C128.277 192.39 136.158 200.783 146.257 201.42H146.389C147.201 201.42 147.969 200.981 148.343 200.256H155.851C156.51 200.256 157.058 200.783 157.058 201.464V208.891C155.412 209.484 154.424 211.176 154.709 212.89C154.995 214.604 156.51 215.878 158.266 215.878C160.022 215.878 161.515 214.604 161.822 212.89C162.13 211.154 161.12 209.462 159.473 208.891V201.464C159.473 199.465 157.871 197.861 155.873 197.861H148.672V195.466H161.866C162.525 195.466 163.074 194.939 163.074 194.257C163.074 193.576 162.547 193.049 161.866 193.049H148.672V189.446H167.86C168.518 189.446 169.067 189.973 169.067 190.654V196.872C167.421 197.465 166.433 199.157 166.718 200.871C167.004 202.585 168.518 203.859 170.275 203.859C172.031 203.859 173.524 202.585 173.831 200.871C174.139 199.135 173.129 197.443 171.482 196.872V190.654C171.482 188.654 169.879 187.051 167.882 187.051H148.694V183.447H176.51C177.124 185.161 178.924 186.15 180.703 185.732C182.481 185.315 183.667 183.623 183.447 181.821L183.491 181.865ZM170.319 163.079C170.977 163.079 171.526 163.606 171.526 164.287C171.526 164.968 170.999 165.496 170.319 165.496C169.638 165.496 169.111 164.968 169.111 164.287C169.111 163.606 169.638 163.079 170.319 163.079ZM158.332 151.082C158.99 151.082 159.539 151.609 159.539 152.29C159.539 152.971 159.012 153.499 158.332 153.499C157.651 153.499 157.124 152.971 157.124 152.29C157.124 151.609 157.651 151.082 158.332 151.082ZM146.345 199.069C137.563 198.432 130.758 191.115 130.758 182.304C130.758 173.494 137.563 166.177 146.345 165.54V199.069ZM158.332 211.11C158.99 211.11 159.539 211.638 159.539 212.319C159.539 213 159.012 213.527 158.332 213.527C157.651 213.527 157.124 213 157.124 212.319C157.124 211.638 157.651 211.11 158.332 211.11ZM170.319 199.113C170.977 199.113 171.526 199.641 171.526 200.322C171.526 201.003 170.999 201.53 170.319 201.53C169.638 201.53 169.111 201.003 169.111 200.322C169.111 199.641 169.638 199.113 170.319 199.113ZM179.912 183.513C179.254 183.513 178.705 182.986 178.705 182.304C178.705 181.623 179.232 181.096 179.912 181.096C180.593 181.096 181.12 181.623 181.12 182.304C181.12 182.986 180.593 183.513 179.912 183.513Z" fill="#F5F5F5"/>
<path d="M456.883 346.834C456.137 346.834 455.544 347.427 455.544 348.174C455.544 348.921 456.137 349.514 456.883 349.514C457.63 349.514 458.223 348.921 458.223 348.174C458.223 347.427 457.63 346.834 456.883 346.834Z" fill="#F5F5F5"/>
<path d="M496.158 322.796L504.018 314.93C504.347 314.6 504.479 314.117 504.369 313.655C504.259 313.194 503.908 312.842 503.469 312.711L484.303 306.8C482.569 301.241 477.432 297.418 471.548 297.418C466.082 297.418 461.186 300.758 459.166 305.789L436.971 312.711C436.532 312.842 436.18 313.216 436.071 313.677C435.961 314.139 436.071 314.622 436.422 314.952L444.501 323.038L439.408 331.541C439.21 331.892 439.166 332.31 439.298 332.683C439.43 333.057 439.737 333.365 440.132 333.496L447.531 335.957V356.523C447.531 357.073 447.882 357.578 448.387 357.776C452.909 359.468 469.682 365.774 469.77 365.796C470.033 365.884 470.341 365.906 470.626 365.796L494.666 357.776C495.214 357.6 495.588 357.073 495.588 356.501V335.386L503.469 332.903C503.908 332.771 504.259 332.398 504.369 331.936C504.479 331.475 504.347 331.013 504.018 330.662L496.158 322.796ZM484.918 310.777C484.918 310.447 484.918 310.096 484.874 309.766L500.571 314.622L493.897 321.302L483.008 317.676C484.237 315.611 484.918 313.238 484.918 310.799V310.777ZM461.449 307.305C462.942 302.999 467.004 300.098 471.548 300.098C476.466 300.098 480.725 303.416 481.91 308.184C482.13 309.041 482.218 309.898 482.218 310.777C482.218 313.26 481.405 315.589 479.847 317.5C477.805 320.027 474.775 321.455 471.548 321.455C468.057 321.455 464.764 319.742 462.767 316.863C461.515 315.062 460.857 312.974 460.857 310.777C460.857 309.59 461.054 308.404 461.427 307.305H461.449ZM439.869 314.6L458.332 308.843C458.244 309.481 458.2 310.14 458.2 310.777C458.2 312.93 458.705 315.018 459.671 316.885L446.543 321.258L439.869 314.578V314.6ZM442.547 331.453L446.762 324.4L468.211 331.563L463.996 338.616C461.713 337.847 445.006 332.288 442.547 331.453ZM468.87 362.566L450.165 355.557V336.814C464.874 341.692 464.15 341.538 464.567 341.538C465.028 341.538 465.467 341.297 465.708 340.879L468.848 335.628V362.544L468.87 362.566ZM470.209 329.409L450.385 322.796L461.164 319.192C463.689 322.29 467.487 324.136 471.526 324.136C475.258 324.136 478.771 322.598 481.296 319.895L490.011 322.796L470.187 329.409H470.209ZM492.909 355.513L471.548 362.632V334.617L476.29 340.549C476.641 340.989 477.212 341.165 477.739 340.989L492.931 336.221V355.535L492.909 355.513ZM477.783 338.154L472.448 331.475L493.875 324.334L500.549 331.013L477.783 338.176V338.154Z" fill="#F5F5F5"/>
<path d="M465.358 349.822L462.394 348.702C461.713 348.438 460.923 348.789 460.681 349.493C460.418 350.174 460.769 350.965 461.472 351.206L464.436 352.327C465.138 352.591 465.907 352.239 466.148 351.536C466.412 350.855 466.061 350.064 465.358 349.822Z" fill="#F5F5F5"/>
<path d="M465.357 355.513L457.344 352.503C456.663 352.239 455.873 352.59 455.631 353.294C455.39 353.997 455.719 354.766 456.422 355.007L464.435 358.018C464.589 358.084 464.742 358.106 464.896 358.106C465.445 358.106 465.95 357.776 466.147 357.249C466.411 356.567 466.059 355.776 465.357 355.535V355.513Z" fill="#F5F5F5"/>
<path d="M479.188 305.811C478.661 305.284 477.827 305.284 477.3 305.811L470.23 312.886L468.496 311.151C467.969 310.623 467.135 310.623 466.608 311.151C466.081 311.678 466.081 312.513 466.608 313.04L469.286 315.721C469.813 316.248 470.648 316.248 471.174 315.721L479.188 307.701C479.715 307.174 479.715 306.339 479.188 305.811Z" fill="#F5F5F5"/>
<path d="M292.996 93.5583H287.003C286.454 93.5583 285.993 93.1189 285.993 92.5476C285.993 91.9763 286.432 91.5369 287.003 91.5369H292.996C293.545 91.5369 294.006 91.9763 294.006 92.5476C294.006 93.1189 293.567 93.5583 292.996 93.5583Z" fill="#F5F5F5"/>
<path d="M300.989 147.588H278.991C276.225 147.588 273.985 145.347 273.985 142.579V108.565C273.985 108.016 274.424 107.555 274.995 107.555C275.566 107.555 276.005 107.994 276.005 108.565V142.579C276.005 144.227 277.344 145.589 279.013 145.589H301.011C302.657 145.589 304.018 144.249 304.018 142.579V108.565C304.018 108.016 304.457 107.555 305.028 107.555C305.599 107.555 306.038 107.994 306.038 108.565V142.579C306.038 145.325 303.799 147.588 301.033 147.588H300.989Z" fill="#F5F5F5"/>
<path d="M304.983 115.575C304.434 115.575 303.973 115.135 303.973 114.564V92.5475C303.973 90.8996 302.634 89.5373 300.966 89.5373H278.968C277.321 89.5373 275.96 90.8776 275.96 92.5475V114.564C275.96 115.113 275.521 115.575 274.95 115.575C274.38 115.575 273.94 115.135 273.94 114.564V92.5475C273.94 89.801 276.18 87.5378 278.946 87.5378H300.944C303.71 87.5378 305.949 89.779 305.949 92.5475V114.564C305.949 115.113 305.51 115.575 304.939 115.575H304.983Z" fill="#F5F5F5"/>
<path d="M310.977 97.667C310.428 97.667 309.967 97.3154 309.967 96.7661V96.5683C309.967 96.019 310.406 95.5576 310.977 95.5576C311.548 95.5576 311.987 95.9971 311.987 96.5683C311.987 97.1396 311.548 97.667 310.977 97.667Z" fill="#F5F5F5"/>
<path d="M310.977 101.666C310.428 101.666 309.967 101.315 309.967 100.765V100.568C309.967 100.018 310.406 99.5569 310.977 99.5569C311.548 99.5569 311.987 99.9963 311.987 100.568C311.987 101.139 311.548 101.666 310.977 101.666Z" fill="#F5F5F5"/>
<path d="M310.977 105.665C310.428 105.665 309.967 105.313 309.967 104.764V104.566C309.967 104.017 310.406 103.556 310.977 103.556C311.548 103.556 311.987 103.995 311.987 104.566C311.987 105.138 311.548 105.665 310.977 105.665Z" fill="#F5F5F5"/>
<path d="M269.002 131.461C268.453 131.461 267.992 131.109 267.992 130.56V130.362C267.992 129.813 268.431 129.351 269.002 129.351C269.573 129.351 270.012 129.791 270.012 130.362C270.012 130.933 269.573 131.461 269.002 131.461Z" fill="#F5F5F5"/>
<path d="M269.002 135.481C268.453 135.481 267.992 135.13 267.992 134.58V134.383C267.992 133.833 268.431 133.372 269.002 133.372C269.573 133.372 270.012 133.811 270.012 134.383C270.012 134.954 269.573 135.481 269.002 135.481Z" fill="#F5F5F5"/>
<path d="M269.002 139.48C268.453 139.48 267.992 139.129 267.992 138.58V138.382C267.992 137.833 268.431 137.371 269.002 137.371C269.573 137.371 270.012 137.811 270.012 138.382C270.012 138.953 269.573 139.48 269.002 139.48Z" fill="#F5F5F5"/>
<path d="M307.662 139.568C307.662 139.568 307.53 139.568 307.443 139.546C306.894 139.436 306.565 138.887 306.674 138.36L307.333 135.306C307.421 134.932 307.706 134.624 308.079 134.537C309.023 134.317 309.945 133.921 310.802 133.394C311.131 133.196 311.548 133.196 311.855 133.394L313.831 134.668L315.061 133.438L313.787 131.482C313.59 131.153 313.568 130.735 313.787 130.428C314.314 129.549 314.709 128.648 314.929 127.703C315.017 127.33 315.302 127.044 315.675 126.956L317.959 126.451V124.737L315.675 124.232C315.302 124.144 315.017 123.858 314.929 123.484C314.709 122.54 314.314 121.617 313.787 120.76C313.59 120.43 313.59 120.013 313.787 119.705L315.061 117.728L313.831 116.497L311.855 117.772C311.526 117.969 311.131 117.991 310.802 117.772C309.924 117.244 309.001 116.849 308.079 116.629C307.706 116.541 307.421 116.234 307.333 115.86L306.85 113.597H305.972C305.423 113.597 304.962 113.157 304.962 112.586C304.962 112.015 305.401 111.575 305.972 111.575H307.64C308.101 111.575 308.518 111.905 308.606 112.366L309.133 114.827C309.858 115.047 310.582 115.355 311.285 115.728L313.436 114.344C313.831 114.102 314.358 114.146 314.687 114.476L317.058 116.827C317.388 117.156 317.454 117.684 317.19 118.079L315.807 120.233C316.18 120.936 316.488 121.639 316.707 122.386L319.166 122.935C319.627 123.045 319.956 123.441 319.956 123.924V127.242C319.956 127.703 319.627 128.121 319.166 128.209L316.707 128.758C316.488 129.483 316.18 130.208 315.807 130.911L317.168 133.042C317.432 133.438 317.366 133.965 317.037 134.295L314.666 136.668C314.336 136.997 313.809 137.063 313.414 136.8L311.263 135.415C310.56 135.789 309.858 136.097 309.111 136.316L308.584 138.777C308.475 139.239 308.057 139.568 307.618 139.568H307.662Z" fill="#F5F5F5"/>
<path d="M308.782 130.736C308.452 130.736 308.145 130.582 307.947 130.296C307.64 129.835 307.772 129.22 308.211 128.912C309.33 128.165 309.989 126.913 309.989 125.594C309.989 123.397 308.189 121.595 305.993 121.595C305.73 121.595 305.445 121.617 305.203 121.683C304.676 121.793 304.127 121.441 304.018 120.892C303.908 120.343 304.259 119.815 304.808 119.706C305.203 119.618 305.598 119.596 306.015 119.596C309.33 119.596 312.009 122.298 312.009 125.594C312.009 127.594 311.021 129.461 309.352 130.582C309.177 130.692 308.979 130.758 308.804 130.758L308.782 130.736Z" fill="#F5F5F5"/>
<path d="M274.007 115.575C270.692 115.575 268.013 112.872 268.013 109.576C268.013 107.555 269.023 105.709 270.692 104.588C271.153 104.281 271.767 104.413 272.075 104.874C272.382 105.335 272.25 105.951 271.789 106.258C270.67 107.005 270.011 108.258 270.011 109.598C270.011 111.795 271.811 113.597 274.007 113.597C274.27 113.597 274.533 113.575 274.797 113.509C275.324 113.399 275.873 113.751 275.982 114.3C276.092 114.85 275.741 115.377 275.192 115.487C274.819 115.575 274.424 115.597 274.007 115.597V115.575Z" fill="#F5F5F5"/>
<path d="M274.007 123.572H272.339C271.878 123.572 271.46 123.243 271.373 122.781L270.846 120.321C270.121 120.101 269.397 119.793 268.694 119.42L266.543 120.804C266.148 121.046 265.621 121.002 265.291 120.672L262.92 118.321C262.591 117.991 262.525 117.464 262.789 117.069L264.172 114.915C263.799 114.212 263.491 113.509 263.272 112.762L260.813 112.213C260.352 112.103 260.022 111.707 260.022 111.224V107.906C260.022 107.445 260.352 107.027 260.813 106.939L263.272 106.39C263.491 105.665 263.799 104.94 264.172 104.237L262.811 102.105C262.547 101.71 262.613 101.183 262.942 100.853L265.313 98.48C265.643 98.1504 266.17 98.0845 266.565 98.3482L268.716 99.7324C269.419 99.3589 270.121 99.0513 270.868 98.8316L271.395 96.3707C271.504 95.8213 272.053 95.4918 272.58 95.6016C273.129 95.7115 273.458 96.2608 273.348 96.7881L272.69 99.8423C272.602 100.216 272.317 100.523 271.943 100.611C270.999 100.831 270.077 101.227 269.199 101.754C268.87 101.952 268.453 101.952 268.145 101.754L266.17 100.479L264.94 101.71L266.213 103.665C266.433 103.995 266.433 104.413 266.213 104.72C265.687 105.599 265.291 106.5 265.072 107.445C264.984 107.818 264.699 108.104 264.325 108.192L262.042 108.697V110.411L264.325 110.916C264.699 111.004 264.984 111.29 265.072 111.663C265.291 112.608 265.687 113.531 266.213 114.388C266.411 114.718 266.411 115.135 266.213 115.443L264.94 117.42L266.17 118.651L268.145 117.376C268.475 117.178 268.892 117.178 269.199 117.376C270.077 117.904 270.999 118.299 271.921 118.519C272.295 118.607 272.58 118.914 272.668 119.288L273.151 121.551H274.029C274.578 121.551 275.039 121.99 275.039 122.562C275.039 123.133 274.6 123.572 274.029 123.572H274.007Z" fill="#F5F5F5"/>
<path d="M289.001 122.562C289.001 122.562 288.848 122.562 288.76 122.54C288.233 122.408 287.904 121.859 288.035 121.331L290.033 113.333C290.165 112.806 290.692 112.476 291.241 112.608C291.768 112.74 292.097 113.289 291.966 113.817L289.968 121.815C289.858 122.276 289.441 122.584 289.001 122.584V122.562Z" fill="#F5F5F5"/>
<path d="M294.995 122.562C294.732 122.562 294.49 122.474 294.293 122.276C293.897 121.881 293.897 121.243 294.293 120.87L297.586 117.574L294.293 114.278C293.897 113.883 293.897 113.245 294.293 112.872C294.688 112.498 295.324 112.476 295.698 112.872L299.694 116.871C300.089 117.266 300.089 117.904 299.694 118.277L295.698 122.276C295.5 122.474 295.237 122.562 294.995 122.562Z" fill="#F5F5F5"/>
<path d="M285.006 122.562C284.743 122.562 284.501 122.474 284.304 122.276L280.308 118.277C279.912 117.882 279.912 117.244 280.308 116.871L284.304 112.872C284.699 112.476 285.336 112.476 285.709 112.872C286.082 113.267 286.104 113.905 285.709 114.278L282.415 117.574L285.709 120.87C286.104 121.265 286.104 121.902 285.709 122.276C285.511 122.474 285.27 122.562 285.006 122.562Z" fill="#F5F5F5"/>
</svg>
