<svg width="676" height="131" viewBox="0 0 676 131" fill="none" xmlns="http://www.w3.org/2000/svg">
<path d="M121.251 0.956534H130.043L84.065 80.8234V129H46.6961V80.8234L0.534553 0.956534H41.2007L65.3806 47.4845L89.3773 0.956534H98.17L54.3897 85.5861V121.306H76.1883V78.8084L116.854 8.65014H116.671L121.251 0.956534ZM13.9068 8.65014L51.642 74.0457L60.9843 55.9108L36.438 8.65014H13.9068ZM220.739 27.8841C231.547 38.875 237.409 53.8958 237.409 70.5653C237.409 87.0516 231.547 102.256 220.739 113.246C209.932 124.42 194.911 130.465 178.425 130.465C162.122 130.465 147.101 124.42 136.293 113.246C125.485 102.256 119.624 87.0516 119.624 70.5653C119.624 53.8958 125.485 38.875 136.293 27.8841C143.803 20.0074 153.512 14.6951 164.32 12.3138C166.518 11.7642 168.899 11.3979 171.281 11.0315V18.1755C168.899 18.3587 166.518 18.9083 164.32 19.4578C141.788 25.3196 126.584 44.92 126.584 70.5653C126.584 101.157 148.383 123.505 178.425 123.505C208.65 123.505 230.448 101.157 230.448 70.5653C230.448 45.1031 215.244 25.3196 192.896 19.4578V39.6077C204.62 45.2863 210.665 57.9258 210.665 70.5653C210.665 87.6011 199.674 104.82 178.425 104.82C157.359 104.82 146.368 87.6011 146.368 70.5653C146.368 57.9258 152.413 45.1031 164.32 39.4245C166.518 38.5086 168.716 37.5927 171.281 37.0432V44.1872C168.716 44.92 166.335 46.019 164.32 47.4845C156.809 52.6136 153.329 61.7726 153.329 70.5653C153.329 83.7543 161.206 97.8592 178.425 97.8592C195.827 97.8592 203.704 83.7543 203.704 70.5653C203.704 61.9558 200.223 52.7967 192.896 47.6677C190.881 46.2022 188.5 45.1031 185.935 44.3704V11.0315C188.316 11.3979 190.698 11.7642 192.896 12.3138C203.704 14.8783 213.229 20.1905 220.739 27.8841ZM346.497 27.8841C357.305 38.875 363.167 53.8958 363.167 70.5653C363.167 87.0516 357.305 102.256 346.497 113.246C335.69 124.42 320.669 130.465 304.183 130.465C287.88 130.465 272.859 124.42 262.051 113.246C251.243 102.256 245.382 87.0516 245.382 70.5653C245.382 53.8958 251.243 38.875 262.051 27.8841C269.561 20.0074 279.27 14.6951 290.078 12.3138C292.276 11.7642 294.657 11.3979 297.039 11.0315V18.1755C294.657 18.3587 292.276 18.9083 290.078 19.4578C267.546 25.3196 252.342 44.92 252.342 70.5653C252.342 101.157 274.141 123.505 304.183 123.505C334.408 123.505 356.206 101.157 356.206 70.5653C356.206 45.1031 341.002 25.3196 318.654 19.4578V39.6077C330.378 45.2863 336.423 57.9258 336.423 70.5653C336.423 87.6011 325.432 104.82 304.183 104.82C283.117 104.82 272.126 87.6011 272.126 70.5653C272.126 57.9258 278.171 45.1031 290.078 39.4245C292.276 38.5086 294.474 37.5927 297.039 37.0432V44.1872C294.474 44.92 292.093 46.019 290.078 47.4845C282.567 52.6136 279.087 61.7726 279.087 70.5653C279.087 83.7543 286.964 97.8592 304.183 97.8592C321.585 97.8592 329.462 83.7543 329.462 70.5653C329.462 61.9558 325.981 52.7967 318.654 47.6677C316.639 46.2022 314.258 45.1031 311.693 44.3704V11.0315C314.074 11.3979 316.456 11.7642 318.654 12.3138C329.462 14.8783 338.987 20.1905 346.497 27.8841ZM409.791 96.9433H450.457V129H402.83V103.904V20.0074H383.046V129H376.085V13.0465H409.791V96.9433ZM443.496 122.039V103.904H409.791V122.039H443.496ZM487.439 13.0465H494.4V129H460.878V13.0465H467.839V122.039H487.439V13.0465ZM586.582 45.2863H545.366V59.0249H582.185V91.0815H545.366V129H511.844V83.9375H575.225V65.9858H545.366H511.844V13.0465H586.582V45.2863ZM538.405 122.039V91.0815H518.805V122.039H538.405ZM538.405 38.3254H579.621V20.0074H518.805V59.0249H538.405V38.3254ZM633.204 96.9433H675.153V129H599.682V78.8084H661.78V62.139H599.682V13.0465H673.687V45.2863H633.204V54.9949H668.741V85.9525H633.204V96.9433ZM626.243 54.9949V38.3254H666.726V20.0074H606.643V54.9949H626.243ZM668.192 122.039V103.904H626.243V85.9525H606.643V122.039H668.192Z" fill="white"/>
</svg>
